# MagicaVoxel @ Ephtracy

# group
o 

# material
mtllib Bar.mtl
usemtl palette

# normals
vn -1 0 0
vn 1 0 0
vn 0 0 1
vn 0 0 -1
vn 0 -1 0
vn 0 1 0

# texcoords
vt 0.0449219 0.5
vt 0.0683594 0.5
vt 0.373047 0.5
vt 0.396484 0.5
vt 0.537109 0.5
vt 0.771484 0.5
vt 0.794922 0.5
vt 0.966797 0.5
vt 0.982422 0.5

# verts
v -1.5 0 0.2
v -1.5 0 0
v -1.5 0 -0.1
v -1.5 0 -0.5
v -1.5 1.1 0.2
v -1.5 1.1 0
v -1.5 1.1 -0.1
v -1.5 1.1 -0.5
v -1.5 1.2 0.2
v -1.5 1.2 -0.5
v -0.6 0 0.2
v -0.6 0 0
v -0.6 1.1 0.2
v -0.6 1.1 0
v 0.2 1.2 0.1
v 0.2 1.2 -0.2
v 0.2 1.3 0.1
v 0.2 1.3 0
v 0.2 1.5 0.1
v 0.2 1.5 0
v 0.2 1.6 0.1
v 0.2 1.6 0
v 0.2 1.6 -0.1
v 0.2 1.6 -0.2
v 0.2 1.7 0
v 0.2 1.7 -0.1
v 0.3 0 0.2
v 0.3 0 0
v 0.3 1.1 0.2
v 0.3 1.1 0
v 0.3 1.6 0.1
v 0.3 1.6 0
v 0.3 1.6 -0.1
v 0.3 1.6 -0.2
v 0.3 1.7 0.1
v 0.3 1.7 0
v 0.3 1.7 -0.1
v 0.3 1.7 -0.2
v 0.3 1.8 0
v 0.3 1.8 -0.1
v 0.6 1.2 0
v 0.6 1.2 -0.3
v 0.6 1.3 0
v 0.6 1.3 -0.1
v 0.6 1.5 0
v 0.6 1.5 -0.1
v 0.6 1.6 0
v 0.6 1.6 -0.1
v 0.6 1.6 -0.2
v 0.6 1.6 -0.3
v 0.6 1.7 -0.1
v 0.6 1.7 -0.2
v 0.7 1.6 0
v 0.7 1.6 -0.1
v 0.7 1.6 -0.2
v 0.7 1.6 -0.3
v 0.7 1.7 0
v 0.7 1.7 -0.1
v 0.7 1.7 -0.2
v 0.7 1.7 -0.3
v 0.7 1.8 -0.1
v 0.7 1.8 -0.2
v 1 1.2 0.2
v 1 1.2 -0.1
v 1 1.3 0.2
v 1 1.3 0.1
v 1 1.5 0.2
v 1 1.5 0.1
v 1 1.6 0.2
v 1 1.6 0.1
v 1 1.6 0
v 1 1.6 -0.1
v 1 1.7 0.1
v 1 1.7 0
v 1.1 1.6 0.2
v 1.1 1.6 0.1
v 1.1 1.6 0
v 1.1 1.6 -0.1
v 1.1 1.7 0.2
v 1.1 1.7 0.1
v 1.1 1.7 0
v 1.1 1.7 -0.1
v 1.1 1.8 0.1
v 1.1 1.8 0
v 1.3 0 0.2
v 1.3 0 0
v 1.3 1.1 0.2
v 1.3 1.1 0
v -1.3 0 0.2
v -1.3 0 0
v -1.3 1.1 0.2
v -1.3 1.1 0
v -0.4 0 0.2
v -0.4 0 0
v -0.4 1.1 0.2
v -0.4 1.1 0
v 0.4 1.6 0.1
v 0.4 1.6 0
v 0.4 1.6 -0.1
v 0.4 1.6 -0.2
v 0.4 1.7 0.1
v 0.4 1.7 0
v 0.4 1.7 -0.1
v 0.4 1.7 -0.2
v 0.4 1.8 0
v 0.4 1.8 -0.1
v 0.5 0 0.2
v 0.5 0 0
v 0.5 1.1 0.2
v 0.5 1.1 0
v 0.5 1.2 0.1
v 0.5 1.2 -0.2
v 0.5 1.3 0.1
v 0.5 1.3 0
v 0.5 1.5 0.1
v 0.5 1.5 0
v 0.5 1.6 0.1
v 0.5 1.6 0
v 0.5 1.6 -0.1
v 0.5 1.6 -0.2
v 0.5 1.7 0
v 0.5 1.7 -0.1
v 0.8 1.6 0
v 0.8 1.6 -0.1
v 0.8 1.6 -0.2
v 0.8 1.6 -0.3
v 0.8 1.7 0
v 0.8 1.7 -0.1
v 0.8 1.7 -0.2
v 0.8 1.7 -0.3
v 0.8 1.8 -0.1
v 0.8 1.8 -0.2
v 0.9 1.2 0
v 0.9 1.2 -0.3
v 0.9 1.3 0
v 0.9 1.3 -0.1
v 0.9 1.5 0
v 0.9 1.5 -0.1
v 0.9 1.6 0
v 0.9 1.6 -0.1
v 0.9 1.6 -0.2
v 0.9 1.6 -0.3
v 0.9 1.7 -0.1
v 0.9 1.7 -0.2
v 1.2 1.6 0.2
v 1.2 1.6 0.1
v 1.2 1.6 0
v 1.2 1.6 -0.1
v 1.2 1.7 0.2
v 1.2 1.7 0.1
v 1.2 1.7 0
v 1.2 1.7 -0.1
v 1.2 1.8 0.1
v 1.2 1.8 0
v 1.3 1.2 0.2
v 1.3 1.2 -0.1
v 1.3 1.3 0.2
v 1.3 1.3 0.1
v 1.3 1.5 0.2
v 1.3 1.5 0.1
v 1.3 1.6 0.2
v 1.3 1.6 0.1
v 1.3 1.6 0
v 1.3 1.6 -0.1
v 1.3 1.7 0.1
v 1.3 1.7 0
v 1.5 0 0.2
v 1.5 0 0
v 1.5 0 -0.1
v 1.5 0 -0.5
v 1.5 1.1 0.2
v 1.5 1.1 0
v 1.5 1.1 -0.1
v 1.5 1.1 -0.5
v 1.5 1.2 0.2
v 1.5 1.2 -0.5
v -1.5 0 0.2
v -1.5 1.1 0.2
v -1.5 1.2 0.2
v -1.3 0 0.2
v -1.3 1.1 0.2
v -0.6 0 0.2
v -0.6 1.1 0.2
v -0.4 0 0.2
v -0.4 1.1 0.2
v 0.3 0 0.2
v 0.3 1.1 0.2
v 0.5 0 0.2
v 0.5 1.1 0.2
v 1 1.2 0.2
v 1 1.3 0.2
v 1 1.5 0.2
v 1 1.6 0.2
v 1.1 1.6 0.2
v 1.1 1.7 0.2
v 1.2 1.6 0.2
v 1.2 1.7 0.2
v 1.3 0 0.2
v 1.3 1.1 0.2
v 1.3 1.2 0.2
v 1.3 1.3 0.2
v 1.3 1.5 0.2
v 1.3 1.6 0.2
v 1.5 0 0.2
v 1.5 1.1 0.2
v 1.5 1.2 0.2
v 0.2 1.2 0.1
v 0.2 1.3 0.1
v 0.2 1.5 0.1
v 0.2 1.6 0.1
v 0.3 1.6 0.1
v 0.3 1.7 0.1
v 0.4 1.6 0.1
v 0.4 1.7 0.1
v 0.5 1.2 0.1
v 0.5 1.3 0.1
v 0.5 1.5 0.1
v 0.5 1.6 0.1
v 1 1.6 0.1
v 1 1.7 0.1
v 1.1 1.6 0.1
v 1.1 1.7 0.1
v 1.1 1.8 0.1
v 1.2 1.6 0.1
v 1.2 1.7 0.1
v 1.2 1.8 0.1
v 1.3 1.6 0.1
v 1.3 1.7 0.1
v 0.2 1.6 0
v 0.2 1.7 0
v 0.3 1.6 0
v 0.3 1.7 0
v 0.3 1.8 0
v 0.4 1.6 0
v 0.4 1.7 0
v 0.4 1.8 0
v 0.5 1.6 0
v 0.5 1.7 0
v 0.6 1.2 0
v 0.6 1.3 0
v 0.6 1.5 0
v 0.6 1.6 0
v 0.7 1.6 0
v 0.7 1.7 0
v 0.8 1.6 0
v 0.8 1.7 0
v 0.9 1.2 0
v 0.9 1.3 0
v 0.9 1.5 0
v 0.9 1.6 0
v -1.5 0 -0.1
v -1.5 1.1 -0.1
v -1.3 0.1 -0.1
v -1.3 1 -0.1
v -1.2 0.2 -0.1
v -1.2 0.6 -0.1
v -1.2 0.7 -0.1
v -1.2 0.9 -0.1
v -0.9 0.1 -0.1
v -0.9 0.2 -0.1
v -0.9 0.3 -0.1
v -0.9 0.5 -0.1
v -0.9 0.6 -0.1
v -0.9 0.7 -0.1
v -0.9 0.9 -0.1
v -0.9 1 -0.1
v -0.8 0.2 -0.1
v -0.8 0.3 -0.1
v -0.8 0.5 -0.1
v -0.8 0.6 -0.1
v -0.8 0.7 -0.1
v -0.8 0.9 -0.1
v -0.7 0.3 -0.1
v -0.7 0.5 -0.1
v -0.4 0.1 -0.1
v -0.4 0.3 -0.1
v -0.3 0.1 -0.1
v -0.3 0.3 -0.1
v -0.3 0.7 -0.1
v -0.2 0.3 -0.1
v -0.2 0.4 -0.1
v -0.2 0.5 -0.1
v -0.2 0.7 -0.1
v -0.2 1 -0.1
v -0.1 0.7 -0.1
v -0.1 0.9 -0.1
v 0 0.7 -0.1
v 0 0.9 -0.1
v 0.1 0.3 -0.1
v 0.1 0.4 -0.1
v 0.1 0.5 -0.1
v 0.1 0.7 -0.1
v 0.1 1 -0.1
v 0.2 0.1 -0.1
v 0.2 0.3 -0.1
v 0.2 0.7 -0.1
v 0.3 0.1 -0.1
v 0.3 0.3 -0.1
v 0.6 0.1 -0.1
v 0.6 1 -0.1
v 0.6 1.6 -0.1
v 0.6 1.7 -0.1
v 0.7 0.1 -0.1
v 0.7 0.5 -0.1
v 0.7 0.7 -0.1
v 0.7 0.9 -0.1
v 0.7 1.6 -0.1
v 0.7 1.7 -0.1
v 0.7 1.8 -0.1
v 0.8 0.4 -0.1
v 0.8 0.5 -0.1
v 0.8 0.6 -0.1
v 0.8 1.6 -0.1
v 0.8 1.7 -0.1
v 0.8 1.8 -0.1
v 0.9 0.3 -0.1
v 0.9 0.4 -0.1
v 0.9 0.5 -0.1
v 0.9 1.6 -0.1
v 0.9 1.7 -0.1
v 1 0.2 -0.1
v 1 0.3 -0.1
v 1 0.4 -0.1
v 1 0.6 -0.1
v 1 0.7 -0.1
v 1 0.9 -0.1
v 1 1 -0.1
v 1.1 0.1 -0.1
v 1.1 0.2 -0.1
v 1.1 0.3 -0.1
v 1.1 0.7 -0.1
v 1.1 0.9 -0.1
v 1.2 0.1 -0.1
v 1.2 0.2 -0.1
v 1.5 0 -0.1
v 1.5 1.1 -0.1
v -1.5 0 0
v -1.5 1.1 0
v -1.3 0 0
v -1.3 1.1 0
v -0.6 0 0
v -0.6 1.1 0
v -0.4 0 0
v -0.4 1.1 0
v 0.3 0 0
v 0.3 1.1 0
v 0.5 0 0
v 0.5 1.1 0
v 1 1.6 0
v 1 1.7 0
v 1.1 1.6 0
v 1.1 1.7 0
v 1.1 1.8 0
v 1.2 1.6 0
v 1.2 1.7 0
v 1.2 1.8 0
v 1.3 0 0
v 1.3 1.1 0
v 1.3 1.6 0
v 1.3 1.7 0
v 1.5 0 0
v 1.5 1.1 0
v 0.2 1.6 -0.1
v 0.2 1.7 -0.1
v 0.3 1.6 -0.1
v 0.3 1.7 -0.1
v 0.3 1.8 -0.1
v 0.4 1.6 -0.1
v 0.4 1.7 -0.1
v 0.4 1.8 -0.1
v 0.5 1.6 -0.1
v 0.5 1.7 -0.1
v 1 1.2 -0.1
v 1 1.6 -0.1
v 1.1 1.6 -0.1
v 1.1 1.7 -0.1
v 1.2 1.6 -0.1
v 1.2 1.7 -0.1
v 1.3 1.2 -0.1
v 1.3 1.6 -0.1
v 0.2 1.2 -0.2
v 0.2 1.6 -0.2
v 0.3 1.6 -0.2
v 0.3 1.7 -0.2
v 0.4 1.6 -0.2
v 0.4 1.7 -0.2
v 0.5 1.2 -0.2
v 0.5 1.6 -0.2
v 0.6 1.6 -0.2
v 0.6 1.7 -0.2
v 0.7 1.6 -0.2
v 0.7 1.7 -0.2
v 0.7 1.8 -0.2
v 0.8 1.6 -0.2
v 0.8 1.7 -0.2
v 0.8 1.8 -0.2
v 0.9 1.6 -0.2
v 0.9 1.7 -0.2
v 0.6 1.2 -0.3
v 0.6 1.6 -0.3
v 0.7 1.6 -0.3
v 0.7 1.7 -0.3
v 0.8 1.6 -0.3
v 0.8 1.7 -0.3
v 0.9 1.2 -0.3
v 0.9 1.6 -0.3
v -1.5 0 -0.5
v -1.5 1.1 -0.5
v -1.5 1.2 -0.5
v 1.5 0 -0.5
v 1.5 1.1 -0.5
v 1.5 1.2 -0.5
v -1.5 0 0.2
v -1.3 0 0.2
v -0.6 0 0.2
v -0.4 0 0.2
v 0.3 0 0.2
v 0.5 0 0.2
v 1.3 0 0.2
v 1.5 0 0.2
v -1.5 0 0
v -1.3 0 0
v -0.6 0 0
v -0.4 0 0
v 0.3 0 0
v 0.5 0 0
v 1.3 0 0
v 1.5 0 0
v -1.5 0 -0.1
v 1.5 0 -0.1
v -1.5 0 -0.5
v 1.5 0 -0.5
v -1.3 1.1 0.2
v -0.6 1.1 0.2
v -0.4 1.1 0.2
v 0.3 1.1 0.2
v 0.5 1.1 0.2
v 1.3 1.1 0.2
v -1.5 1.1 0
v -1.3 1.1 0
v -0.6 1.1 0
v -0.4 1.1 0
v 0.3 1.1 0
v 0.5 1.1 0
v 1.3 1.1 0
v 1.5 1.1 0
v -1.5 1.1 -0.1
v 1.5 1.1 -0.1
v -1.5 1.2 0.2
v 1 1.2 0.2
v 1.3 1.2 0.2
v 1.5 1.2 0.2
v 0.2 1.2 0.1
v 0.5 1.2 0.1
v 0.6 1.2 0
v 0.9 1.2 0
v 1 1.2 -0.1
v 1.3 1.2 -0.1
v 0.2 1.2 -0.2
v 0.5 1.2 -0.2
v 0.6 1.2 -0.3
v 0.9 1.2 -0.3
v -1.5 1.2 -0.5
v 1.5 1.2 -0.5
v 1 1.6 0.2
v 1.1 1.6 0.2
v 1.2 1.6 0.2
v 1.3 1.6 0.2
v 0.2 1.6 0.1
v 0.3 1.6 0.1
v 0.4 1.6 0.1
v 0.5 1.6 0.1
v 1 1.6 0.1
v 1.1 1.6 0.1
v 1.2 1.6 0.1
v 1.3 1.6 0.1
v 0.2 1.6 0
v 0.3 1.6 0
v 0.4 1.6 0
v 0.5 1.6 0
v 0.6 1.6 0
v 0.7 1.6 0
v 0.8 1.6 0
v 0.9 1.6 0
v 1 1.6 0
v 1.1 1.6 0
v 1.2 1.6 0
v 1.3 1.6 0
v 0.2 1.6 -0.1
v 0.3 1.6 -0.1
v 0.4 1.6 -0.1
v 0.5 1.6 -0.1
v 0.6 1.6 -0.1
v 0.7 1.6 -0.1
v 0.8 1.6 -0.1
v 0.9 1.6 -0.1
v 1 1.6 -0.1
v 1.1 1.6 -0.1
v 1.2 1.6 -0.1
v 1.3 1.6 -0.1
v 0.2 1.6 -0.2
v 0.3 1.6 -0.2
v 0.4 1.6 -0.2
v 0.5 1.6 -0.2
v 0.6 1.6 -0.2
v 0.7 1.6 -0.2
v 0.8 1.6 -0.2
v 0.9 1.6 -0.2
v 0.6 1.6 -0.3
v 0.7 1.6 -0.3
v 0.8 1.6 -0.3
v 0.9 1.6 -0.3
v 1.1 1.7 0.2
v 1.2 1.7 0.2
v 0.3 1.7 0.1
v 0.4 1.7 0.1
v 1 1.7 0.1
v 1.1 1.7 0.1
v 1.2 1.7 0.1
v 1.3 1.7 0.1
v 0.2 1.7 0
v 0.3 1.7 0
v 0.4 1.7 0
v 0.5 1.7 0
v 0.7 1.7 0
v 0.8 1.7 0
v 1 1.7 0
v 1.1 1.7 0
v 1.2 1.7 0
v 1.3 1.7 0
v 0.2 1.7 -0.1
v 0.3 1.7 -0.1
v 0.4 1.7 -0.1
v 0.5 1.7 -0.1
v 0.6 1.7 -0.1
v 0.7 1.7 -0.1
v 0.8 1.7 -0.1
v 0.9 1.7 -0.1
v 1.1 1.7 -0.1
v 1.2 1.7 -0.1
v 0.3 1.7 -0.2
v 0.4 1.7 -0.2
v 0.6 1.7 -0.2
v 0.7 1.7 -0.2
v 0.8 1.7 -0.2
v 0.9 1.7 -0.2
v 0.7 1.7 -0.3
v 0.8 1.7 -0.3
v 1.1 1.8 0.1
v 1.2 1.8 0.1
v 0.3 1.8 0
v 0.4 1.8 0
v 1.1 1.8 0
v 1.2 1.8 0
v 0.3 1.8 -0.1
v 0.4 1.8 -0.1
v 0.7 1.8 -0.1
v 0.8 1.8 -0.1
v 0.7 1.8 -0.2
v 0.8 1.8 -0.2

# faces
f 5/5/1 2/5/1 1/5/1
f 6/5/1 2/5/1 5/5/1
f 7/5/1 4/5/1 3/5/1
f 8/5/1 4/5/1 7/5/1
f 9/3/1 6/3/1 5/3/1
f 9/3/1 7/3/1 6/3/1
f 9/3/1 8/3/1 7/3/1
f 10/3/1 8/3/1 9/3/1
f 13/5/1 12/5/1 11/5/1
f 14/5/1 12/5/1 13/5/1
f 17/7/1 16/7/1 15/7/1
f 18/7/1 16/7/1 17/7/1
f 19/8/1 18/8/1 17/8/1
f 20/7/1 16/7/1 18/7/1
f 20/8/1 18/8/1 19/8/1
f 21/7/1 20/7/1 19/7/1
f 22/7/1 16/7/1 20/7/1
f 22/7/1 20/7/1 21/7/1
f 23/7/1 16/7/1 22/7/1
f 24/7/1 16/7/1 23/7/1
f 25/7/1 23/7/1 22/7/1
f 26/7/1 23/7/1 25/7/1
f 29/5/1 28/5/1 27/5/1
f 30/5/1 28/5/1 29/5/1
f 35/7/1 32/7/1 31/7/1
f 36/7/1 32/7/1 35/7/1
f 37/7/1 34/7/1 33/7/1
f 38/7/1 34/7/1 37/7/1
f 39/7/1 37/7/1 36/7/1
f 40/7/1 37/7/1 39/7/1
f 43/6/1 42/6/1 41/6/1
f 44/6/1 42/6/1 43/6/1
f 45/1/1 44/1/1 43/1/1
f 46/6/1 42/6/1 44/6/1
f 46/1/1 44/1/1 45/1/1
f 47/6/1 46/6/1 45/6/1
f 48/6/1 42/6/1 46/6/1
f 48/6/1 46/6/1 47/6/1
f 49/6/1 42/6/1 48/6/1
f 50/6/1 42/6/1 49/6/1
f 51/6/1 49/6/1 48/6/1
f 52/6/1 49/6/1 51/6/1
f 57/6/1 54/6/1 53/6/1
f 58/6/1 54/6/1 57/6/1
f 59/6/1 56/6/1 55/6/1
f 60/6/1 56/6/1 59/6/1
f 61/6/1 59/6/1 58/6/1
f 62/6/1 59/6/1 61/6/1
f 65/9/1 64/9/1 63/9/1
f 66/9/1 64/9/1 65/9/1
f 67/2/1 66/2/1 65/2/1
f 68/9/1 64/9/1 66/9/1
f 68/2/1 66/2/1 67/2/1
f 69/9/1 68/9/1 67/9/1
f 70/9/1 64/9/1 68/9/1
f 70/9/1 68/9/1 69/9/1
f 71/9/1 64/9/1 70/9/1
f 72/9/1 64/9/1 71/9/1
f 73/9/1 71/9/1 70/9/1
f 74/9/1 71/9/1 73/9/1
f 79/9/1 76/9/1 75/9/1
f 80/9/1 76/9/1 79/9/1
f 81/9/1 78/9/1 77/9/1
f 82/9/1 78/9/1 81/9/1
f 83/9/1 81/9/1 80/9/1
f 84/9/1 81/9/1 83/9/1
f 87/5/1 86/5/1 85/5/1
f 88/5/1 86/5/1 87/5/1
f 89/5/2 90/5/2 91/5/2
f 91/5/2 90/5/2 92/5/2
f 93/5/2 94/5/2 95/5/2
f 95/5/2 94/5/2 96/5/2
f 97/7/2 98/7/2 101/7/2
f 101/7/2 98/7/2 102/7/2
f 99/7/2 100/7/2 103/7/2
f 103/7/2 100/7/2 104/7/2
f 102/7/2 103/7/2 105/7/2
f 105/7/2 103/7/2 106/7/2
f 107/5/2 108/5/2 109/5/2
f 109/5/2 108/5/2 110/5/2
f 111/7/2 112/7/2 113/7/2
f 113/7/2 112/7/2 114/7/2
f 113/8/2 114/8/2 115/8/2
f 114/7/2 112/7/2 116/7/2
f 115/8/2 114/8/2 116/8/2
f 115/7/2 116/7/2 117/7/2
f 116/7/2 112/7/2 118/7/2
f 117/7/2 116/7/2 118/7/2
f 118/7/2 112/7/2 119/7/2
f 119/7/2 112/7/2 120/7/2
f 118/7/2 119/7/2 121/7/2
f 121/7/2 119/7/2 122/7/2
f 123/6/2 124/6/2 127/6/2
f 127/6/2 124/6/2 128/6/2
f 125/6/2 126/6/2 129/6/2
f 129/6/2 126/6/2 130/6/2
f 128/6/2 129/6/2 131/6/2
f 131/6/2 129/6/2 132/6/2
f 133/6/2 134/6/2 135/6/2
f 135/6/2 134/6/2 136/6/2
f 135/1/2 136/1/2 137/1/2
f 136/6/2 134/6/2 138/6/2
f 137/1/2 136/1/2 138/1/2
f 137/6/2 138/6/2 139/6/2
f 138/6/2 134/6/2 140/6/2
f 139/6/2 138/6/2 140/6/2
f 140/6/2 134/6/2 141/6/2
f 141/6/2 134/6/2 142/6/2
f 140/6/2 141/6/2 143/6/2
f 143/6/2 141/6/2 144/6/2
f 145/9/2 146/9/2 149/9/2
f 149/9/2 146/9/2 150/9/2
f 147/9/2 148/9/2 151/9/2
f 151/9/2 148/9/2 152/9/2
f 150/9/2 151/9/2 153/9/2
f 153/9/2 151/9/2 154/9/2
f 155/9/2 156/9/2 157/9/2
f 157/9/2 156/9/2 158/9/2
f 157/2/2 158/2/2 159/2/2
f 158/9/2 156/9/2 160/9/2
f 159/2/2 158/2/2 160/2/2
f 159/9/2 160/9/2 161/9/2
f 160/9/2 156/9/2 162/9/2
f 161/9/2 160/9/2 162/9/2
f 162/9/2 156/9/2 163/9/2
f 163/9/2 156/9/2 164/9/2
f 162/9/2 163/9/2 165/9/2
f 165/9/2 163/9/2 166/9/2
f 167/5/2 168/5/2 171/5/2
f 171/5/2 168/5/2 172/5/2
f 169/5/2 170/5/2 173/5/2
f 173/5/2 170/5/2 174/5/2
f 171/3/2 172/3/2 175/3/2
f 172/3/2 173/3/2 175/3/2
f 173/3/2 174/3/2 175/3/2
f 175/3/2 174/3/2 176/3/2
f 180/5/3 178/5/3 177/5/3
f 181/3/3 179/3/3 178/3/3
f 181/5/3 178/5/3 180/5/3
f 183/3/3 179/3/3 181/3/3
f 184/5/3 183/5/3 182/5/3
f 185/3/3 179/3/3 183/3/3
f 185/5/3 183/5/3 184/5/3
f 187/3/3 179/3/3 185/3/3
f 188/5/3 187/5/3 186/5/3
f 189/3/3 179/3/3 187/3/3
f 189/5/3 187/5/3 188/5/3
f 190/3/3 179/3/3 189/3/3
f 194/9/3 193/9/3 192/9/3
f 196/9/3 194/9/3 192/9/3
f 196/9/3 195/9/3 194/9/3
f 197/9/3 195/9/3 196/9/3
f 199/3/3 190/3/3 189/3/3
f 200/9/3 191/9/3 190/9/3
f 200/3/3 190/3/3 199/3/3
f 201/2/3 192/2/3 191/2/3
f 201/9/3 191/9/3 200/9/3
f 202/9/3 196/9/3 192/9/3
f 202/2/3 192/2/3 201/2/3
f 203/9/3 196/9/3 202/9/3
f 204/5/3 199/5/3 198/5/3
f 205/3/3 200/3/3 199/3/3
f 205/5/3 199/5/3 204/5/3
f 206/3/3 200/3/3 205/3/3
f 211/7/3 210/7/3 209/7/3
f 213/7/3 211/7/3 209/7/3
f 213/7/3 212/7/3 211/7/3
f 214/7/3 212/7/3 213/7/3
f 215/7/3 208/7/3 207/7/3
f 216/8/3 209/8/3 208/8/3
f 216/7/3 208/7/3 215/7/3
f 217/7/3 213/7/3 209/7/3
f 217/8/3 209/8/3 216/8/3
f 218/7/3 213/7/3 217/7/3
f 221/9/3 220/9/3 219/9/3
f 222/9/3 220/9/3 221/9/3
f 225/9/3 223/9/3 222/9/3
f 226/9/3 223/9/3 225/9/3
f 227/9/3 225/9/3 224/9/3
f 228/9/3 225/9/3 227/9/3
f 231/7/3 230/7/3 229/7/3
f 232/7/3 230/7/3 231/7/3
f 235/7/3 233/7/3 232/7/3
f 236/7/3 233/7/3 235/7/3
f 237/7/3 235/7/3 234/7/3
f 238/7/3 235/7/3 237/7/3
f 243/6/3 242/6/3 241/6/3
f 245/6/3 243/6/3 241/6/3
f 245/6/3 244/6/3 243/6/3
f 246/6/3 244/6/3 245/6/3
f 247/6/3 240/6/3 239/6/3
f 248/1/3 241/1/3 240/1/3
f 248/6/3 240/6/3 247/6/3
f 249/6/3 245/6/3 241/6/3
f 249/1/3 241/1/3 248/1/3
f 250/6/3 245/6/3 249/6/3
f 253/5/3 252/5/3 251/5/3
f 254/5/3 252/5/3 253/5/3
f 255/4/3 254/4/3 253/4/3
f 256/4/3 254/4/3 255/4/3
f 257/4/3 254/4/3 256/4/3
f 258/4/3 254/4/3 257/4/3
f 259/5/3 253/5/3 251/5/3
f 259/4/3 255/4/3 253/4/3
f 260/5/3 256/5/3 255/5/3
f 260/4/3 255/4/3 259/4/3
f 261/5/3 256/5/3 260/5/3
f 262/5/3 256/5/3 261/5/3
f 263/4/3 257/4/3 256/4/3
f 263/5/3 256/5/3 262/5/3
f 264/5/3 258/5/3 257/5/3
f 264/4/3 257/4/3 263/4/3
f 265/4/3 254/4/3 258/4/3
f 265/5/3 258/5/3 264/5/3
f 266/5/3 252/5/3 254/5/3
f 266/4/3 254/4/3 265/4/3
f 267/5/3 260/5/3 259/5/3
f 267/4/3 261/4/3 260/4/3
f 268/5/3 262/5/3 261/5/3
f 268/4/3 261/4/3 267/4/3
f 269/4/3 263/4/3 262/4/3
f 269/5/3 262/5/3 268/5/3
f 270/5/3 264/5/3 263/5/3
f 270/4/3 263/4/3 269/4/3
f 271/4/3 265/4/3 264/4/3
f 271/5/3 264/5/3 270/5/3
f 272/5/3 266/5/3 265/5/3
f 272/4/3 265/4/3 271/4/3
f 273/4/3 269/4/3 268/4/3
f 273/5/3 268/5/3 267/5/3
f 274/5/3 270/5/3 269/5/3
f 274/4/3 269/4/3 273/4/3
f 274/5/3 272/5/3 271/5/3
f 274/5/3 271/5/3 270/5/3
f 275/5/3 273/5/3 267/5/3
f 275/5/3 259/5/3 251/5/3
f 275/5/3 274/5/3 273/5/3
f 275/5/3 267/5/3 259/5/3
f 276/5/3 274/5/3 275/5/3
f 277/5/3 275/5/3 251/5/3
f 277/4/3 276/4/3 275/4/3
f 278/5/3 274/5/3 276/5/3
f 278/4/3 276/4/3 277/4/3
f 279/5/3 272/5/3 274/5/3
f 279/5/3 274/5/3 278/5/3
f 280/5/3 278/5/3 277/5/3
f 280/4/3 279/4/3 278/4/3
f 281/4/3 279/4/3 280/4/3
f 282/4/3 279/4/3 281/4/3
f 283/5/3 272/5/3 279/5/3
f 283/4/3 279/4/3 282/4/3
f 284/5/3 266/5/3 272/5/3
f 284/5/3 272/5/3 283/5/3
f 284/5/3 252/5/3 266/5/3
f 285/5/3 283/5/3 282/5/3
f 285/4/3 284/4/3 283/4/3
f 286/4/3 284/4/3 285/4/3
f 287/5/3 285/5/3 282/5/3
f 287/5/3 286/5/3 285/5/3
f 288/4/3 284/4/3 286/4/3
f 288/5/3 286/5/3 287/5/3
f 289/5/3 281/5/3 280/5/3
f 289/5/3 280/5/3 277/5/3
f 290/4/3 282/4/3 281/4/3
f 290/5/3 281/5/3 289/5/3
f 291/5/3 287/5/3 282/5/3
f 291/4/3 282/4/3 290/4/3
f 292/4/3 288/4/3 287/4/3
f 292/5/3 287/5/3 291/5/3
f 293/5/3 252/5/3 284/5/3
f 293/4/3 288/4/3 292/4/3
f 293/4/3 284/4/3 288/4/3
f 294/5/3 289/5/3 277/5/3
f 294/5/3 277/5/3 251/5/3
f 295/4/3 292/4/3 291/4/3
f 295/5/3 289/5/3 294/5/3
f 295/4/3 290/4/3 289/4/3
f 295/4/3 291/4/3 290/4/3
f 296/5/3 293/5/3 292/5/3
f 296/4/3 292/4/3 295/4/3
f 297/5/3 294/5/3 251/5/3
f 297/4/3 295/4/3 294/4/3
f 298/5/3 296/5/3 295/5/3
f 298/4/3 295/4/3 297/4/3
f 299/5/3 297/5/3 251/5/3
f 299/5/3 298/5/3 297/5/3
f 300/5/3 293/5/3 296/5/3
f 300/5/3 298/5/3 299/5/3
f 300/5/3 252/5/3 293/5/3
f 300/5/3 296/5/3 298/5/3
f 303/5/3 299/5/3 251/5/3
f 303/4/3 300/4/3 299/4/3
f 304/4/3 300/4/3 303/4/3
f 305/4/3 300/4/3 304/4/3
f 306/4/3 300/4/3 305/4/3
f 307/6/3 302/6/3 301/6/3
f 308/6/3 302/6/3 307/6/3
f 310/5/3 304/5/3 303/5/3
f 311/4/3 305/4/3 304/4/3
f 311/5/3 304/5/3 310/5/3
f 312/4/3 305/4/3 311/4/3
f 314/6/3 309/6/3 308/6/3
f 315/6/3 309/6/3 314/6/3
f 316/5/3 310/5/3 303/5/3
f 317/4/3 311/4/3 310/4/3
f 317/5/3 310/5/3 316/5/3
f 318/5/3 312/5/3 311/5/3
f 318/4/3 311/4/3 317/4/3
f 319/6/3 314/6/3 313/6/3
f 320/6/3 314/6/3 319/6/3
f 321/5/3 316/5/3 303/5/3
f 322/4/3 317/4/3 316/4/3
f 322/5/3 316/5/3 321/5/3
f 323/5/3 318/5/3 317/5/3
f 323/4/3 317/4/3 322/4/3
f 324/4/3 305/4/3 312/4/3
f 324/5/3 318/5/3 323/5/3
f 324/5/3 312/5/3 318/5/3
f 325/5/3 306/5/3 305/5/3
f 325/4/3 305/4/3 324/4/3
f 326/4/3 300/4/3 306/4/3
f 326/5/3 306/5/3 325/5/3
f 327/5/3 252/5/3 300/5/3
f 327/4/3 300/4/3 326/4/3
f 328/5/3 303/5/3 251/5/3
f 328/5/3 321/5/3 303/5/3
f 329/4/3 322/4/3 321/4/3
f 329/5/3 321/5/3 328/5/3
f 330/5/3 325/5/3 324/5/3
f 330/4/3 322/4/3 329/4/3
f 330/5/3 323/5/3 322/5/3
f 330/5/3 324/5/3 323/5/3
f 331/4/3 326/4/3 325/4/3
f 331/5/3 325/5/3 330/5/3
f 332/5/3 327/5/3 326/5/3
f 332/4/3 326/4/3 331/4/3
f 333/4/3 329/4/3 328/4/3
f 333/5/3 328/5/3 251/5/3
f 334/5/3 330/5/3 329/5/3
f 334/4/3 329/4/3 333/4/3
f 334/5/3 332/5/3 331/5/3
f 334/5/3 331/5/3 330/5/3
f 335/5/3 333/5/3 251/5/3
f 335/5/3 334/5/3 333/5/3
f 336/5/3 327/5/3 332/5/3
f 336/5/3 334/5/3 335/5/3
f 336/5/3 332/5/3 334/5/3
f 336/5/3 252/5/3 327/5/3
f 337/5/4 338/5/4 339/5/4
f 339/5/4 338/5/4 340/5/4
f 341/5/4 342/5/4 343/5/4
f 343/5/4 342/5/4 344/5/4
f 345/5/4 346/5/4 347/5/4
f 347/5/4 346/5/4 348/5/4
f 349/9/4 350/9/4 351/9/4
f 351/9/4 350/9/4 352/9/4
f 352/9/4 353/9/4 355/9/4
f 355/9/4 353/9/4 356/9/4
f 354/9/4 355/9/4 359/9/4
f 359/9/4 355/9/4 360/9/4
f 357/5/4 358/5/4 361/5/4
f 361/5/4 358/5/4 362/5/4
f 363/7/4 364/7/4 365/7/4
f 365/7/4 364/7/4 366/7/4
f 366/7/4 367/7/4 369/7/4
f 369/7/4 367/7/4 370/7/4
f 368/7/4 369/7/4 371/7/4
f 371/7/4 369/7/4 372/7/4
f 373/9/4 374/9/4 375/9/4
f 373/9/4 375/9/4 377/9/4
f 375/9/4 376/9/4 377/9/4
f 377/9/4 376/9/4 378/9/4
f 373/9/4 377/9/4 379/9/4
f 379/9/4 377/9/4 380/9/4
f 381/7/4 382/7/4 383/7/4
f 381/7/4 383/7/4 385/7/4
f 383/7/4 384/7/4 385/7/4
f 385/7/4 384/7/4 386/7/4
f 381/7/4 385/7/4 387/7/4
f 387/7/4 385/7/4 388/7/4
f 389/6/4 390/6/4 391/6/4
f 391/6/4 390/6/4 392/6/4
f 392/6/4 393/6/4 395/6/4
f 395/6/4 393/6/4 396/6/4
f 394/6/4 395/6/4 397/6/4
f 397/6/4 395/6/4 398/6/4
f 399/6/4 400/6/4 401/6/4
f 399/6/4 401/6/4 403/6/4
f 401/6/4 402/6/4 403/6/4
f 403/6/4 402/6/4 404/6/4
f 399/6/4 403/6/4 405/6/4
f 405/6/4 403/6/4 406/6/4
f 407/5/4 408/5/4 410/5/4
f 408/3/4 409/3/4 411/3/4
f 410/5/4 408/5/4 411/5/4
f 411/3/4 409/3/4 412/3/4
f 421/5/5 414/5/5 413/5/5
f 422/5/5 414/5/5 421/5/5
f 423/5/5 416/5/5 415/5/5
f 424/5/5 416/5/5 423/5/5
f 425/5/5 418/5/5 417/5/5
f 426/5/5 418/5/5 425/5/5
f 427/5/5 420/5/5 419/5/5
f 428/5/5 420/5/5 427/5/5
f 431/5/5 430/5/5 429/5/5
f 432/5/5 430/5/5 431/5/5
f 440/3/5 434/3/5 433/3/5
f 441/3/5 434/3/5 440/3/5
f 442/3/5 436/3/5 435/3/5
f 443/3/5 436/3/5 442/3/5
f 444/3/5 438/3/5 437/3/5
f 445/3/5 438/3/5 444/3/5
f 447/3/5 443/3/5 442/3/5
f 447/3/5 446/3/5 445/3/5
f 447/3/5 445/3/5 444/3/5
f 447/3/5 444/3/5 443/3/5
f 447/3/5 441/3/5 440/3/5
f 447/3/5 442/3/5 441/3/5
f 447/3/5 440/3/5 439/3/5
f 448/3/5 446/3/5 447/3/5
f 449/3/6 450/3/6 453/3/6
f 453/3/6 450/3/6 454/3/6
f 454/3/6 450/3/6 455/3/6
f 455/3/6 450/3/6 456/3/6
f 456/3/6 450/3/6 457/3/6
f 451/3/6 452/3/6 458/3/6
f 449/3/6 453/3/6 459/3/6
f 454/3/6 455/3/6 460/3/6
f 460/3/6 455/3/6 461/3/6
f 459/3/6 460/3/6 461/3/6
f 456/3/6 457/3/6 462/3/6
f 457/3/6 458/3/6 462/3/6
f 459/3/6 461/3/6 463/3/6
f 461/3/6 462/3/6 463/3/6
f 449/3/6 459/3/6 463/3/6
f 462/3/6 458/3/6 464/3/6
f 463/3/6 462/3/6 464/3/6
f 458/3/6 452/3/6 464/3/6
f 465/9/6 466/9/6 473/9/6
f 473/9/6 466/9/6 474/9/6
f 467/9/6 468/9/6 475/9/6
f 475/9/6 468/9/6 476/9/6
f 469/7/6 470/7/6 477/7/6
f 477/7/6 470/7/6 478/7/6
f 471/7/6 472/7/6 479/7/6
f 479/7/6 472/7/6 480/7/6
f 481/6/6 482/6/6 493/6/6
f 493/6/6 482/6/6 494/6/6
f 483/6/6 484/6/6 495/6/6
f 495/6/6 484/6/6 496/6/6
f 485/9/6 486/9/6 497/9/6
f 497/9/6 486/9/6 498/9/6
f 487/9/6 488/9/6 499/9/6
f 499/9/6 488/9/6 500/9/6
f 489/7/6 490/7/6 501/7/6
f 501/7/6 490/7/6 502/7/6
f 491/7/6 492/7/6 503/7/6
f 503/7/6 492/7/6 504/7/6
f 505/6/6 506/6/6 509/6/6
f 509/6/6 506/6/6 510/6/6
f 507/6/6 508/6/6 511/6/6
f 511/6/6 508/6/6 512/6/6
f 513/9/6 514/9/6 518/9/6
f 518/9/6 514/9/6 519/9/6
f 515/7/6 516/7/6 522/7/6
f 522/7/6 516/7/6 523/7/6
f 517/9/6 518/9/6 527/9/6
f 527/9/6 518/9/6 528/9/6
f 519/9/6 520/9/6 529/9/6
f 529/9/6 520/9/6 530/9/6
f 521/7/6 522/7/6 531/7/6
f 531/7/6 522/7/6 532/7/6
f 523/7/6 524/7/6 533/7/6
f 533/7/6 524/7/6 534/7/6
f 525/6/6 526/6/6 536/6/6
f 536/6/6 526/6/6 537/6/6
f 528/9/6 529/9/6 539/9/6
f 539/9/6 529/9/6 540/9/6
f 532/7/6 533/7/6 541/7/6
f 541/7/6 533/7/6 542/7/6
f 535/6/6 536/6/6 543/6/6
f 543/6/6 536/6/6 544/6/6
f 537/6/6 538/6/6 545/6/6
f 545/6/6 538/6/6 546/6/6
f 544/6/6 545/6/6 547/6/6
f 547/6/6 545/6/6 548/6/6
f 549/9/6 550/9/6 553/9/6
f 553/9/6 550/9/6 554/9/6
f 551/7/6 552/7/6 555/7/6
f 555/7/6 552/7/6 556/7/6
f 557/6/6 558/6/6 559/6/6
f 559/6/6 558/6/6 560/6/6
