# MagicaVoxel @ Ephtracy

# group
o 

# material
mtllib Bed.mtl
usemtl palette

# normals
vn -1 0 0
vn 1 0 0
vn 0 0 1
vn 0 0 -1
vn 0 -1 0
vn 0 1 0

# texcoords
vt 0.0410156 0.5
vt 0.537109 0.5
vt 0.634766 0.5
vt 0.810547 0.5
vt 0.962891 0.5
vt 0.982422 0.5

# verts
v -1 0.4 1.5
v -1 0.4 -1.3
v -1 0.5 -1
v -1 0.5 -1.3
v -1 0.7 1.5
v -1 0.7 -1
v -1 0.7 -1.3
v -0.9 0 1.4
v -0.9 0 1.2
v -0.9 0 -1.8
v -0.9 0 -2
v -0.9 0.4 1.4
v -0.9 0.4 1.2
v -0.9 0.4 -1.3
v -0.9 0.4 -1.8
v -0.9 0.5 -1.3
v -0.9 0.5 -1.8
v -0.9 0.7 1.4
v -0.9 0.7 1.3
v -0.9 0.7 1.2
v -0.9 0.7 -1
v -0.9 0.7 -1.3
v -0.9 0.7 -1.8
v -0.9 0.8 1.4
v -0.9 0.8 1.3
v -0.9 0.8 1.2
v -0.9 0.8 -1
v -0.9 0.8 -1.3
v -0.9 1.3 -1.8
v -0.9 1.3 -2
v -0.7 0.5 -1.8
v -0.7 0.5 -1.9
v -0.7 0.7 -1.4
v -0.7 0.7 -1.8
v -0.7 0.8 -1.4
v -0.7 0.8 -1.8
v -0.7 1.2 -1.8
v -0.7 1.2 -1.9
v -0.5 0.5 -1.8
v -0.5 0.5 -1.9
v -0.5 0.7 -1.8
v -0.5 0.8 -1.8
v -0.5 1.2 -1.8
v -0.5 1.2 -1.9
v -0.3 0.5 -1.8
v -0.3 0.5 -1.9
v -0.3 0.7 -1.8
v -0.3 0.8 -1.8
v -0.3 1.2 -1.8
v -0.3 1.2 -1.9
v -0.1 0.5 -1.8
v -0.1 0.5 -1.9
v -0.1 0.7 -1.8
v -0.1 0.8 -1.8
v -0.1 1.2 -1.8
v -0.1 1.2 -1.9
v 0.1 0.5 -1.8
v 0.1 0.5 -1.9
v 0.1 0.7 -1.4
v 0.1 0.7 -1.8
v 0.1 0.8 -1.4
v 0.1 0.8 -1.8
v 0.1 1.2 -1.8
v 0.1 1.2 -1.9
v 0.3 0.5 -1.8
v 0.3 0.5 -1.9
v 0.3 0.7 -1.8
v 0.3 0.8 -1.8
v 0.3 1.2 -1.8
v 0.3 1.2 -1.9
v 0.5 0.5 -1.8
v 0.5 0.5 -1.9
v 0.5 0.7 -1.8
v 0.5 0.8 -1.8
v 0.5 1.2 -1.8
v 0.5 1.2 -1.9
v 0.7 0.5 -1.8
v 0.7 0.5 -1.9
v 0.7 0.7 -1.8
v 0.7 0.8 -1.8
v 0.7 1.2 -1.8
v 0.7 1.2 -1.9
v 0.8 0 1.4
v 0.8 0 1.2
v 0.8 0 -1.8
v 0.8 0 -2
v 0.8 0.4 1.4
v 0.8 0.4 1.2
v 0.8 0.4 -1.8
v 0.8 0.4 -2
v 0.9 0.5 -1.8
v 0.9 0.5 -1.9
v 0.9 0.7 -1.8
v 0.9 1.2 -1.8
v 0.9 1.2 -1.9
v -0.8 0.5 -1.8
v -0.8 0.5 -1.9
v -0.8 0.7 -1.8
v -0.8 1.2 -1.8
v -0.8 1.2 -1.9
v -0.7 0 1.4
v -0.7 0 1.2
v -0.7 0 -1.8
v -0.7 0 -2
v -0.7 0.4 1.4
v -0.7 0.4 1.2
v -0.7 0.4 -1.8
v -0.7 0.4 -2
v -0.6 0.5 -1.8
v -0.6 0.5 -1.9
v -0.6 0.7 -1.8
v -0.6 0.8 -1.8
v -0.6 1.2 -1.8
v -0.6 1.2 -1.9
v -0.4 0.5 -1.8
v -0.4 0.5 -1.9
v -0.4 0.7 -1.8
v -0.4 0.8 -1.8
v -0.4 1.2 -1.8
v -0.4 1.2 -1.9
v -0.2 0.5 -1.8
v -0.2 0.5 -1.9
v -0.2 0.7 -1.8
v -0.2 0.8 -1.8
v -0.2 1.2 -1.8
v -0.2 1.2 -1.9
v 0 0.5 -1.8
v 0 0.5 -1.9
v 0 0.7 -1.4
v 0 0.7 -1.8
v 0 0.8 -1.4
v 0 0.8 -1.8
v 0 1.2 -1.8
v 0 1.2 -1.9
v 0.2 0.5 -1.8
v 0.2 0.5 -1.9
v 0.2 0.7 -1.8
v 0.2 0.8 -1.8
v 0.2 1.2 -1.8
v 0.2 1.2 -1.9
v 0.4 0.5 -1.8
v 0.4 0.5 -1.9
v 0.4 0.7 -1.8
v 0.4 0.8 -1.8
v 0.4 1.2 -1.8
v 0.4 1.2 -1.9
v 0.6 0.5 -1.8
v 0.6 0.5 -1.9
v 0.6 0.7 -1.8
v 0.6 0.8 -1.8
v 0.6 1.2 -1.8
v 0.6 1.2 -1.9
v 0.8 0.5 -1.8
v 0.8 0.5 -1.9
v 0.8 0.7 -1.4
v 0.8 0.7 -1.8
v 0.8 0.8 -1.4
v 0.8 0.8 -1.8
v 0.8 1.2 -1.8
v 0.8 1.2 -1.9
v 1 0 1.4
v 1 0 1.2
v 1 0 -1.8
v 1 0 -2
v 1 0.4 1.4
v 1 0.4 1.2
v 1 0.4 -1.3
v 1 0.4 -1.8
v 1 0.5 -1.3
v 1 0.5 -1.8
v 1 0.7 1.4
v 1 0.7 1.3
v 1 0.7 1.2
v 1 0.7 -1
v 1 0.7 -1.3
v 1 0.7 -1.8
v 1 0.8 1.4
v 1 0.8 1.3
v 1 0.8 1.2
v 1 0.8 -1
v 1 0.8 -1.3
v 1 1.3 -1.8
v 1 1.3 -2
v 1.1 0.4 1.5
v 1.1 0.4 -1.3
v 1.1 0.5 -1
v 1.1 0.5 -1.3
v 1.1 0.7 1.5
v 1.1 0.7 -1
v 1.1 0.7 -1.3
v -1 0.4 1.5
v -1 0.7 1.5
v 1.1 0.4 1.5
v 1.1 0.7 1.5
v -0.9 0 1.4
v -0.9 0.4 1.4
v -0.9 0.7 1.4
v -0.9 0.8 1.4
v -0.8 0.7 1.4
v -0.8 0.8 1.4
v -0.7 0 1.4
v -0.7 0.4 1.4
v -0.7 0.7 1.4
v -0.7 0.8 1.4
v 0.8 0 1.4
v 0.8 0.4 1.4
v 0.8 0.7 1.4
v 0.8 0.8 1.4
v 0.9 0.7 1.4
v 0.9 0.8 1.4
v 1 0 1.4
v 1 0.4 1.4
v 1 0.7 1.4
v 1 0.8 1.4
v -0.7 0.7 -1.4
v -0.7 0.8 -1.4
v 0 0.7 -1.4
v 0 0.8 -1.4
v 0.1 0.7 -1.4
v 0.1 0.8 -1.4
v 0.8 0.7 -1.4
v 0.8 0.8 -1.4
v -0.9 0 -1.8
v -0.9 0.4 -1.8
v -0.9 0.7 -1.8
v -0.9 1.3 -1.8
v -0.8 0.7 -1.8
v -0.8 1.2 -1.8
v -0.7 0 -1.8
v -0.7 0.4 -1.8
v -0.7 0.8 -1.8
v -0.7 1.2 -1.8
v -0.6 0.8 -1.8
v -0.6 1.2 -1.8
v -0.5 0.8 -1.8
v -0.5 1.2 -1.8
v -0.4 0.8 -1.8
v -0.4 1.2 -1.8
v -0.3 0.8 -1.8
v -0.3 1.2 -1.8
v -0.2 0.8 -1.8
v -0.2 1.2 -1.8
v -0.1 0.8 -1.8
v -0.1 1.2 -1.8
v 0 0.8 -1.8
v 0 1.2 -1.8
v 0.1 0.8 -1.8
v 0.1 1.2 -1.8
v 0.2 0.8 -1.8
v 0.2 1.2 -1.8
v 0.3 0.8 -1.8
v 0.3 1.2 -1.8
v 0.4 0.8 -1.8
v 0.4 1.2 -1.8
v 0.5 0.8 -1.8
v 0.5 1.2 -1.8
v 0.6 0.8 -1.8
v 0.6 1.2 -1.8
v 0.7 0.8 -1.8
v 0.7 1.2 -1.8
v 0.8 0 -1.8
v 0.8 0.4 -1.8
v 0.8 0.8 -1.8
v 0.8 1.2 -1.8
v 0.9 0.7 -1.8
v 0.9 1.2 -1.8
v 1 0 -1.8
v 1 0.4 -1.8
v 1 0.7 -1.8
v 1 1.3 -1.8
v -0.8 0.5 -1.9
v -0.8 1.2 -1.9
v -0.7 0.5 -1.9
v -0.7 1.2 -1.9
v -0.6 0.5 -1.9
v -0.6 1.2 -1.9
v -0.5 0.5 -1.9
v -0.5 1.2 -1.9
v -0.4 0.5 -1.9
v -0.4 1.2 -1.9
v -0.3 0.5 -1.9
v -0.3 1.2 -1.9
v -0.2 0.5 -1.9
v -0.2 1.2 -1.9
v -0.1 0.5 -1.9
v -0.1 1.2 -1.9
v 0 0.5 -1.9
v 0 1.2 -1.9
v 0.1 0.5 -1.9
v 0.1 1.2 -1.9
v 0.2 0.5 -1.9
v 0.2 1.2 -1.9
v 0.3 0.5 -1.9
v 0.3 1.2 -1.9
v 0.4 0.5 -1.9
v 0.4 1.2 -1.9
v 0.5 0.5 -1.9
v 0.5 1.2 -1.9
v 0.6 0.5 -1.9
v 0.6 1.2 -1.9
v 0.7 0.5 -1.9
v 0.7 1.2 -1.9
v 0.8 0.5 -1.9
v 0.8 1.2 -1.9
v 0.9 0.5 -1.9
v 0.9 1.2 -1.9
v -0.9 0 1.2
v -0.9 0.4 1.2
v -0.7 0 1.2
v -0.7 0.4 1.2
v 0.8 0 1.2
v 0.8 0.4 1.2
v 1 0 1.2
v 1 0.4 1.2
v -1 0.4 -1.3
v -1 0.5 -1.3
v -1 0.7 -1.3
v -0.9 0.4 -1.3
v -0.9 0.5 -1.3
v -0.9 0.7 -1.3
v -0.9 0.8 -1.3
v 1 0.4 -1.3
v 1 0.5 -1.3
v 1 0.7 -1.3
v 1 0.8 -1.3
v 1.1 0.4 -1.3
v 1.1 0.5 -1.3
v 1.1 0.7 -1.3
v -0.8 0.5 -1.8
v -0.8 0.7 -1.8
v -0.7 0.5 -1.8
v -0.7 0.7 -1.8
v -0.6 0.5 -1.8
v -0.6 0.7 -1.8
v -0.6 0.8 -1.8
v -0.5 0.5 -1.8
v -0.5 0.7 -1.8
v -0.5 0.8 -1.8
v -0.4 0.5 -1.8
v -0.4 0.7 -1.8
v -0.4 0.8 -1.8
v -0.3 0.5 -1.8
v -0.3 0.7 -1.8
v -0.3 0.8 -1.8
v -0.2 0.5 -1.8
v -0.2 0.7 -1.8
v -0.2 0.8 -1.8
v -0.1 0.5 -1.8
v -0.1 0.7 -1.8
v -0.1 0.8 -1.8
v 0 0.5 -1.8
v 0 0.7 -1.8
v 0.1 0.5 -1.8
v 0.1 0.7 -1.8
v 0.2 0.5 -1.8
v 0.2 0.7 -1.8
v 0.2 0.8 -1.8
v 0.3 0.5 -1.8
v 0.3 0.7 -1.8
v 0.3 0.8 -1.8
v 0.4 0.5 -1.8
v 0.4 0.7 -1.8
v 0.4 0.8 -1.8
v 0.5 0.5 -1.8
v 0.5 0.7 -1.8
v 0.5 0.8 -1.8
v 0.6 0.5 -1.8
v 0.6 0.7 -1.8
v 0.6 0.8 -1.8
v 0.7 0.5 -1.8
v 0.7 0.7 -1.8
v 0.7 0.8 -1.8
v 0.8 0.5 -1.8
v 0.8 0.7 -1.8
v 0.9 0.5 -1.8
v 0.9 0.7 -1.8
v -0.9 0 -2
v -0.9 1.3 -2
v -0.7 0 -2
v -0.7 0.4 -2
v 0.8 0 -2
v 0.8 0.4 -2
v 1 0 -2
v 1 1.3 -2
v -0.9 0 1.4
v -0.7 0 1.4
v 0.8 0 1.4
v 1 0 1.4
v -0.9 0 1.2
v -0.7 0 1.2
v 0.8 0 1.2
v 1 0 1.2
v -0.9 0 -1.8
v -0.7 0 -1.8
v 0.8 0 -1.8
v 1 0 -1.8
v -0.9 0 -2
v -0.7 0 -2
v 0.8 0 -2
v 1 0 -2
v -1 0.4 1.5
v 1.1 0.4 1.5
v -0.9 0.4 1.4
v -0.7 0.4 1.4
v 0.8 0.4 1.4
v 1 0.4 1.4
v -0.9 0.4 1.2
v -0.7 0.4 1.2
v 0.8 0.4 1.2
v 1 0.4 1.2
v -1 0.4 -1.3
v -0.9 0.4 -1.3
v 1 0.4 -1.3
v 1.1 0.4 -1.3
v -0.9 0.4 -1.8
v -0.7 0.4 -1.8
v 0.8 0.4 -1.8
v 1 0.4 -1.8
v -0.7 0.4 -2
v 0.8 0.4 -2
v -0.8 1.2 -1.8
v -0.7 1.2 -1.8
v -0.6 1.2 -1.8
v -0.5 1.2 -1.8
v -0.4 1.2 -1.8
v -0.3 1.2 -1.8
v -0.2 1.2 -1.8
v -0.1 1.2 -1.8
v 0 1.2 -1.8
v 0.1 1.2 -1.8
v 0.2 1.2 -1.8
v 0.3 1.2 -1.8
v 0.4 1.2 -1.8
v 0.5 1.2 -1.8
v 0.6 1.2 -1.8
v 0.7 1.2 -1.8
v 0.8 1.2 -1.8
v 0.9 1.2 -1.8
v -0.8 1.2 -1.9
v -0.7 1.2 -1.9
v -0.6 1.2 -1.9
v -0.5 1.2 -1.9
v -0.4 1.2 -1.9
v -0.3 1.2 -1.9
v -0.2 1.2 -1.9
v -0.1 1.2 -1.9
v 0 1.2 -1.9
v 0.1 1.2 -1.9
v 0.2 1.2 -1.9
v 0.3 1.2 -1.9
v 0.4 1.2 -1.9
v 0.5 1.2 -1.9
v 0.6 1.2 -1.9
v 0.7 1.2 -1.9
v 0.8 1.2 -1.9
v 0.9 1.2 -1.9
v -0.8 0.5 -1.8
v -0.7 0.5 -1.8
v -0.6 0.5 -1.8
v -0.5 0.5 -1.8
v -0.4 0.5 -1.8
v -0.3 0.5 -1.8
v -0.2 0.5 -1.8
v -0.1 0.5 -1.8
v 0 0.5 -1.8
v 0.1 0.5 -1.8
v 0.2 0.5 -1.8
v 0.3 0.5 -1.8
v 0.4 0.5 -1.8
v 0.5 0.5 -1.8
v 0.6 0.5 -1.8
v 0.7 0.5 -1.8
v 0.8 0.5 -1.8
v 0.9 0.5 -1.8
v -0.8 0.5 -1.9
v -0.7 0.5 -1.9
v -0.6 0.5 -1.9
v -0.5 0.5 -1.9
v -0.4 0.5 -1.9
v -0.3 0.5 -1.9
v -0.2 0.5 -1.9
v -0.1 0.5 -1.9
v 0 0.5 -1.9
v 0.1 0.5 -1.9
v 0.2 0.5 -1.9
v 0.3 0.5 -1.9
v 0.4 0.5 -1.9
v 0.5 0.5 -1.9
v 0.6 0.5 -1.9
v 0.7 0.5 -1.9
v 0.8 0.5 -1.9
v 0.9 0.5 -1.9
v -1 0.7 1.5
v 1.1 0.7 1.5
v -0.9 0.7 1.4
v -0.8 0.7 1.4
v -0.7 0.7 1.4
v 0.8 0.7 1.4
v 0.9 0.7 1.4
v 1 0.7 1.4
v -0.9 0.7 1.3
v 1 0.7 1.3
v -0.9 0.7 1.2
v 1 0.7 1.2
v -1 0.7 -1
v -0.9 0.7 -1
v 1 0.7 -1
v 1.1 0.7 -1
v -1 0.7 -1.3
v -0.9 0.7 -1.3
v 1 0.7 -1.3
v 1.1 0.7 -1.3
v -0.7 0.7 -1.4
v 0 0.7 -1.4
v 0.1 0.7 -1.4
v 0.8 0.7 -1.4
v -0.9 0.7 -1.8
v -0.8 0.7 -1.8
v -0.7 0.7 -1.8
v 0 0.7 -1.8
v 0.1 0.7 -1.8
v 0.8 0.7 -1.8
v 0.9 0.7 -1.8
v 1 0.7 -1.8
v -0.9 0.8 1.4
v -0.8 0.8 1.4
v -0.7 0.8 1.4
v 0.8 0.8 1.4
v 0.9 0.8 1.4
v 1 0.8 1.4
v -0.9 0.8 1.3
v -0.8 0.8 1.3
v -0.7 0.8 1.3
v -0.6 0.8 1.3
v 0.7 0.8 1.3
v 0.8 0.8 1.3
v 0.9 0.8 1.3
v 1 0.8 1.3
v -0.9 0.8 1.2
v -0.8 0.8 1.2
v -0.7 0.8 1.2
v -0.6 0.8 1.2
v 0.7 0.8 1.2
v 0.8 0.8 1.2
v 0.9 0.8 1.2
v 1 0.8 1.2
v -0.8 0.8 1.1
v -0.7 0.8 1.1
v 0.8 0.8 1.1
v 0.9 0.8 1.1
v -0.2 0.8 1
v 0.3 0.8 1
v -0.4 0.8 0.9
v -0.2 0.8 0.9
v 0.3 0.8 0.9
v 0.5 0.8 0.9
v -0.6 0.8 0.8
v -0.4 0.8 0.8
v 0.5 0.8 0.8
v 0.7 0.8 0.8
v 0.1 0.8 0.7
v 0.6 0.8 0.7
v -0.7 0.8 0.6
v -0.6 0.8 0.6
v 0 0.8 0.6
v 0.1 0.8 0.6
v 0.6 0.8 0.6
v 0.7 0.8 0.6
v 0.8 0.8 0.6
v -0.1 0.8 0.5
v 0 0.8 0.5
v 0.7 0.8 0.5
v 0.8 0.8 0.5
v -0.8 0.8 0.4
v -0.7 0.8 0.4
v -0.2 0.8 0.4
v -0.1 0.8 0.4
v -0.8 0.8 -0.1
v -0.7 0.8 -0.1
v -0.2 0.8 -0.1
v -0.1 0.8 -0.1
v -0.1 0.8 -0.2
v 0 0.8 -0.2
v 0.7 0.8 -0.2
v 0.8 0.8 -0.2
v -0.7 0.8 -0.3
v -0.6 0.8 -0.3
v 0 0.8 -0.3
v 0.1 0.8 -0.3
v 0.6 0.8 -0.3
v 0.7 0.8 -0.3
v 0.8 0.8 -0.3
v 0.1 0.8 -0.4
v 0.6 0.8 -0.4
v -0.6 0.8 -0.5
v -0.4 0.8 -0.5
v 0.5 0.8 -0.5
v 0.7 0.8 -0.5
v -0.4 0.8 -0.6
v -0.2 0.8 -0.6
v 0.3 0.8 -0.6
v 0.5 0.8 -0.6
v -0.7 0.8 -0.7
v -0.6 0.8 -0.7
v -0.2 0.8 -0.7
v 0.3 0.8 -0.7
v 0.7 0.8 -0.7
v 0.8 0.8 -0.7
v -0.8 0.8 -0.8
v -0.7 0.8 -0.8
v -0.6 0.8 -0.8
v -0.5 0.8 -0.8
v 0.6 0.8 -0.8
v 0.7 0.8 -0.8
v 0.8 0.8 -0.8
v 0.9 0.8 -0.8
v -0.8 0.8 -0.9
v -0.7 0.8 -0.9
v -0.6 0.8 -0.9
v -0.5 0.8 -0.9
v 0.6 0.8 -0.9
v 0.7 0.8 -0.9
v 0.8 0.8 -0.9
v 0.9 0.8 -0.9
v -0.9 0.8 -1
v -0.7 0.8 -1
v -0.6 0.8 -1
v 0.7 0.8 -1
v 0.8 0.8 -1
v 1 0.8 -1
v -0.9 0.8 -1.3
v 1 0.8 -1.3
v -0.7 0.8 -1.4
v 0 0.8 -1.4
v 0.1 0.8 -1.4
v 0.8 0.8 -1.4
v -0.7 0.8 -1.8
v -0.6 0.8 -1.8
v -0.5 0.8 -1.8
v -0.4 0.8 -1.8
v -0.3 0.8 -1.8
v -0.2 0.8 -1.8
v -0.1 0.8 -1.8
v 0 0.8 -1.8
v 0.1 0.8 -1.8
v 0.2 0.8 -1.8
v 0.3 0.8 -1.8
v 0.4 0.8 -1.8
v 0.5 0.8 -1.8
v 0.6 0.8 -1.8
v 0.7 0.8 -1.8
v 0.8 0.8 -1.8
v -0.9 1.3 -1.8
v 1 1.3 -1.8
v -0.9 1.3 -2
v 1 1.3 -2

# faces
f 3/4/1 2/4/1 1/4/1
f 4/4/1 2/4/1 3/4/1
f 5/4/1 3/4/1 1/4/1
f 6/6/1 4/6/1 3/6/1
f 6/4/1 3/4/1 5/4/1
f 7/6/1 4/6/1 6/6/1
f 12/2/1 9/2/1 8/2/1
f 13/2/1 9/2/1 12/2/1
f 15/2/1 11/2/1 10/2/1
f 16/2/1 15/2/1 14/2/1
f 17/2/1 11/2/1 15/2/1
f 17/2/1 15/2/1 16/2/1
f 22/5/1 17/5/1 16/5/1
f 23/2/1 11/2/1 17/2/1
f 23/5/1 17/5/1 22/5/1
f 24/4/1 19/4/1 18/4/1
f 25/1/1 20/1/1 19/1/1
f 25/4/1 19/4/1 24/4/1
f 26/4/1 21/4/1 20/4/1
f 26/1/1 20/1/1 25/1/1
f 27/6/1 22/6/1 21/6/1
f 27/4/1 21/4/1 26/4/1
f 28/6/1 22/6/1 27/6/1
f 29/2/1 11/2/1 23/2/1
f 30/2/1 11/2/1 29/2/1
f 34/2/1 32/2/1 31/2/1
f 35/3/1 34/3/1 33/3/1
f 36/2/1 32/2/1 34/2/1
f 36/3/1 34/3/1 35/3/1
f 37/2/1 32/2/1 36/2/1
f 38/2/1 32/2/1 37/2/1
f 41/2/1 40/2/1 39/2/1
f 42/2/1 40/2/1 41/2/1
f 43/2/1 40/2/1 42/2/1
f 44/2/1 40/2/1 43/2/1
f 47/2/1 46/2/1 45/2/1
f 48/2/1 46/2/1 47/2/1
f 49/2/1 46/2/1 48/2/1
f 50/2/1 46/2/1 49/2/1
f 53/2/1 52/2/1 51/2/1
f 54/2/1 52/2/1 53/2/1
f 55/2/1 52/2/1 54/2/1
f 56/2/1 52/2/1 55/2/1
f 60/2/1 58/2/1 57/2/1
f 61/3/1 60/3/1 59/3/1
f 62/2/1 58/2/1 60/2/1
f 62/3/1 60/3/1 61/3/1
f 63/2/1 58/2/1 62/2/1
f 64/2/1 58/2/1 63/2/1
f 67/2/1 66/2/1 65/2/1
f 68/2/1 66/2/1 67/2/1
f 69/2/1 66/2/1 68/2/1
f 70/2/1 66/2/1 69/2/1
f 73/2/1 72/2/1 71/2/1
f 74/2/1 72/2/1 73/2/1
f 75/2/1 72/2/1 74/2/1
f 76/2/1 72/2/1 75/2/1
f 79/2/1 78/2/1 77/2/1
f 80/2/1 78/2/1 79/2/1
f 81/2/1 78/2/1 80/2/1
f 82/2/1 78/2/1 81/2/1
f 87/2/1 84/2/1 83/2/1
f 88/2/1 84/2/1 87/2/1
f 89/2/1 86/2/1 85/2/1
f 90/2/1 86/2/1 89/2/1
f 93/2/1 92/2/1 91/2/1
f 94/2/1 92/2/1 93/2/1
f 95/2/1 92/2/1 94/2/1
f 96/2/2 97/2/2 98/2/2
f 98/2/2 97/2/2 99/2/2
f 99/2/2 97/2/2 100/2/2
f 101/2/2 102/2/2 105/2/2
f 105/2/2 102/2/2 106/2/2
f 103/2/2 104/2/2 107/2/2
f 107/2/2 104/2/2 108/2/2
f 109/2/2 110/2/2 111/2/2
f 111/2/2 110/2/2 112/2/2
f 112/2/2 110/2/2 113/2/2
f 113/2/2 110/2/2 114/2/2
f 115/2/2 116/2/2 117/2/2
f 117/2/2 116/2/2 118/2/2
f 118/2/2 116/2/2 119/2/2
f 119/2/2 116/2/2 120/2/2
f 121/2/2 122/2/2 123/2/2
f 123/2/2 122/2/2 124/2/2
f 124/2/2 122/2/2 125/2/2
f 125/2/2 122/2/2 126/2/2
f 127/2/2 128/2/2 130/2/2
f 129/3/2 130/3/2 131/3/2
f 130/2/2 128/2/2 132/2/2
f 131/3/2 130/3/2 132/3/2
f 132/2/2 128/2/2 133/2/2
f 133/2/2 128/2/2 134/2/2
f 135/2/2 136/2/2 137/2/2
f 137/2/2 136/2/2 138/2/2
f 138/2/2 136/2/2 139/2/2
f 139/2/2 136/2/2 140/2/2
f 141/2/2 142/2/2 143/2/2
f 143/2/2 142/2/2 144/2/2
f 144/2/2 142/2/2 145/2/2
f 145/2/2 142/2/2 146/2/2
f 147/2/2 148/2/2 149/2/2
f 149/2/2 148/2/2 150/2/2
f 150/2/2 148/2/2 151/2/2
f 151/2/2 148/2/2 152/2/2
f 153/2/2 154/2/2 156/2/2
f 155/3/2 156/3/2 157/3/2
f 156/2/2 154/2/2 158/2/2
f 157/3/2 156/3/2 158/3/2
f 158/2/2 154/2/2 159/2/2
f 159/2/2 154/2/2 160/2/2
f 161/2/2 162/2/2 165/2/2
f 165/2/2 162/2/2 166/2/2
f 163/2/2 164/2/2 168/2/2
f 167/2/2 168/2/2 169/2/2
f 168/2/2 164/2/2 170/2/2
f 169/2/2 168/2/2 170/2/2
f 169/5/2 170/5/2 175/5/2
f 170/2/2 164/2/2 176/2/2
f 175/5/2 170/5/2 176/5/2
f 171/4/2 172/4/2 177/4/2
f 172/1/2 173/1/2 178/1/2
f 177/4/2 172/4/2 178/4/2
f 173/4/2 174/4/2 179/4/2
f 178/1/2 173/1/2 179/1/2
f 174/6/2 175/6/2 180/6/2
f 179/4/2 174/4/2 180/4/2
f 180/6/2 175/6/2 181/6/2
f 176/2/2 164/2/2 182/2/2
f 182/2/2 164/2/2 183/2/2
f 184/4/2 185/4/2 186/4/2
f 186/4/2 185/4/2 187/4/2
f 184/4/2 186/4/2 188/4/2
f 186/6/2 187/6/2 189/6/2
f 188/4/2 186/4/2 189/4/2
f 189/6/2 187/6/2 190/6/2
f 193/4/3 192/4/3 191/4/3
f 194/4/3 192/4/3 193/4/3
f 199/4/3 198/4/3 197/4/3
f 200/4/3 198/4/3 199/4/3
f 201/2/3 196/2/3 195/2/3
f 202/2/3 196/2/3 201/2/3
f 203/1/3 200/1/3 199/1/3
f 204/1/3 200/1/3 203/1/3
f 207/4/3 204/4/3 203/4/3
f 208/4/3 204/4/3 207/4/3
f 209/1/3 208/1/3 207/1/3
f 210/1/3 208/1/3 209/1/3
f 211/2/3 206/2/3 205/2/3
f 212/2/3 206/2/3 211/2/3
f 213/4/3 210/4/3 209/4/3
f 214/4/3 210/4/3 213/4/3
f 217/3/3 216/3/3 215/3/3
f 218/3/3 216/3/3 217/3/3
f 221/3/3 220/3/3 219/3/3
f 222/3/3 220/3/3 221/3/3
f 227/2/3 226/2/3 225/2/3
f 228/2/3 226/2/3 227/2/3
f 229/2/3 224/2/3 223/2/3
f 230/2/3 224/2/3 229/2/3
f 232/2/3 226/2/3 228/2/3
f 233/2/3 232/2/3 231/2/3
f 234/2/3 226/2/3 232/2/3
f 234/2/3 232/2/3 233/2/3
f 236/2/3 226/2/3 234/2/3
f 237/2/3 236/2/3 235/2/3
f 238/2/3 226/2/3 236/2/3
f 238/2/3 236/2/3 237/2/3
f 240/2/3 226/2/3 238/2/3
f 241/2/3 240/2/3 239/2/3
f 242/2/3 226/2/3 240/2/3
f 242/2/3 240/2/3 241/2/3
f 244/2/3 226/2/3 242/2/3
f 245/2/3 244/2/3 243/2/3
f 246/2/3 226/2/3 244/2/3
f 246/2/3 244/2/3 245/2/3
f 248/2/3 226/2/3 246/2/3
f 249/2/3 248/2/3 247/2/3
f 250/2/3 226/2/3 248/2/3
f 250/2/3 248/2/3 249/2/3
f 252/2/3 226/2/3 250/2/3
f 253/2/3 252/2/3 251/2/3
f 254/2/3 226/2/3 252/2/3
f 254/2/3 252/2/3 253/2/3
f 256/2/3 226/2/3 254/2/3
f 257/2/3 256/2/3 255/2/3
f 258/2/3 226/2/3 256/2/3
f 258/2/3 256/2/3 257/2/3
f 260/2/3 226/2/3 258/2/3
f 263/2/3 260/2/3 259/2/3
f 264/2/3 226/2/3 260/2/3
f 264/2/3 260/2/3 263/2/3
f 266/2/3 226/2/3 264/2/3
f 267/2/3 262/2/3 261/2/3
f 268/2/3 262/2/3 267/2/3
f 269/2/3 266/2/3 265/2/3
f 270/2/3 226/2/3 266/2/3
f 270/2/3 266/2/3 269/2/3
f 273/2/3 272/2/3 271/2/3
f 274/2/3 272/2/3 273/2/3
f 277/2/3 276/2/3 275/2/3
f 278/2/3 276/2/3 277/2/3
f 281/2/3 280/2/3 279/2/3
f 282/2/3 280/2/3 281/2/3
f 285/2/3 284/2/3 283/2/3
f 286/2/3 284/2/3 285/2/3
f 289/2/3 288/2/3 287/2/3
f 290/2/3 288/2/3 289/2/3
f 293/2/3 292/2/3 291/2/3
f 294/2/3 292/2/3 293/2/3
f 297/2/3 296/2/3 295/2/3
f 298/2/3 296/2/3 297/2/3
f 301/2/3 300/2/3 299/2/3
f 302/2/3 300/2/3 301/2/3
f 305/2/3 304/2/3 303/2/3
f 306/2/3 304/2/3 305/2/3
f 307/2/4 308/2/4 309/2/4
f 309/2/4 308/2/4 310/2/4
f 311/2/4 312/2/4 313/2/4
f 313/2/4 312/2/4 314/2/4
f 315/4/4 316/4/4 318/4/4
f 316/6/4 317/6/4 319/6/4
f 318/4/4 316/4/4 319/4/4
f 319/6/4 317/6/4 320/6/4
f 320/6/4 321/6/4 324/6/4
f 324/6/4 321/6/4 325/6/4
f 322/4/4 323/4/4 326/4/4
f 323/6/4 324/6/4 327/6/4
f 326/4/4 323/4/4 327/4/4
f 327/6/4 324/6/4 328/6/4
f 329/5/4 330/5/4 331/5/4
f 331/5/4 330/5/4 332/5/4
f 333/5/4 334/5/4 336/5/4
f 334/3/4 335/3/4 337/3/4
f 336/5/4 334/5/4 337/5/4
f 337/3/4 335/3/4 338/3/4
f 339/5/4 340/5/4 342/5/4
f 340/3/4 341/3/4 343/3/4
f 342/5/4 340/5/4 343/5/4
f 343/3/4 341/3/4 344/3/4
f 345/5/4 346/5/4 348/5/4
f 346/3/4 347/3/4 349/3/4
f 348/5/4 346/5/4 349/5/4
f 349/3/4 347/3/4 350/3/4
f 351/5/4 352/5/4 353/5/4
f 353/5/4 352/5/4 354/5/4
f 355/5/4 356/5/4 358/5/4
f 356/3/4 357/3/4 359/3/4
f 358/5/4 356/5/4 359/5/4
f 359/3/4 357/3/4 360/3/4
f 361/5/4 362/5/4 364/5/4
f 362/3/4 363/3/4 365/3/4
f 364/5/4 362/5/4 365/5/4
f 365/3/4 363/3/4 366/3/4
f 367/5/4 368/5/4 370/5/4
f 368/3/4 369/3/4 371/3/4
f 370/5/4 368/5/4 371/5/4
f 371/3/4 369/3/4 372/3/4
f 373/5/4 374/5/4 375/5/4
f 375/5/4 374/5/4 376/5/4
f 377/2/4 378/2/4 379/2/4
f 379/2/4 378/2/4 380/2/4
f 380/2/4 378/2/4 382/2/4
f 381/2/4 382/2/4 383/2/4
f 382/2/4 378/2/4 384/2/4
f 383/2/4 382/2/4 384/2/4
f 389/2/5 386/2/5 385/2/5
f 390/2/5 386/2/5 389/2/5
f 391/2/5 388/2/5 387/2/5
f 392/2/5 388/2/5 391/2/5
f 397/2/5 394/2/5 393/2/5
f 398/2/5 394/2/5 397/2/5
f 399/2/5 396/2/5 395/2/5
f 400/2/5 396/2/5 399/2/5
f 403/4/5 402/4/5 401/4/5
f 404/4/5 402/4/5 403/4/5
f 405/4/5 402/4/5 404/4/5
f 406/4/5 402/4/5 405/4/5
f 407/4/5 403/4/5 401/4/5
f 408/2/5 405/2/5 404/2/5
f 409/2/5 405/2/5 408/2/5
f 410/4/5 402/4/5 406/4/5
f 411/4/5 407/4/5 401/4/5
f 412/2/5 409/2/5 408/2/5
f 412/4/5 407/4/5 411/4/5
f 412/2/5 410/2/5 409/2/5
f 412/2/5 408/2/5 407/2/5
f 413/4/5 402/4/5 410/4/5
f 413/2/5 410/2/5 412/2/5
f 414/4/5 402/4/5 413/4/5
f 415/2/5 413/2/5 412/2/5
f 416/2/5 413/2/5 415/2/5
f 417/2/5 413/2/5 416/2/5
f 418/2/5 413/2/5 417/2/5
f 419/2/5 417/2/5 416/2/5
f 420/2/5 417/2/5 419/2/5
f 439/2/5 422/2/5 421/2/5
f 440/2/5 422/2/5 439/2/5
f 441/2/5 424/2/5 423/2/5
f 442/2/5 424/2/5 441/2/5
f 443/2/5 426/2/5 425/2/5
f 444/2/5 426/2/5 443/2/5
f 445/2/5 428/2/5 427/2/5
f 446/2/5 428/2/5 445/2/5
f 447/2/5 430/2/5 429/2/5
f 448/2/5 430/2/5 447/2/5
f 449/2/5 432/2/5 431/2/5
f 450/2/5 432/2/5 449/2/5
f 451/2/5 434/2/5 433/2/5
f 452/2/5 434/2/5 451/2/5
f 453/2/5 436/2/5 435/2/5
f 454/2/5 436/2/5 453/2/5
f 455/2/5 438/2/5 437/2/5
f 456/2/5 438/2/5 455/2/5
f 457/2/6 458/2/6 475/2/6
f 475/2/6 458/2/6 476/2/6
f 459/2/6 460/2/6 477/2/6
f 477/2/6 460/2/6 478/2/6
f 461/2/6 462/2/6 479/2/6
f 479/2/6 462/2/6 480/2/6
f 463/2/6 464/2/6 481/2/6
f 481/2/6 464/2/6 482/2/6
f 465/2/6 466/2/6 483/2/6
f 483/2/6 466/2/6 484/2/6
f 467/2/6 468/2/6 485/2/6
f 485/2/6 468/2/6 486/2/6
f 469/2/6 470/2/6 487/2/6
f 487/2/6 470/2/6 488/2/6
f 471/2/6 472/2/6 489/2/6
f 489/2/6 472/2/6 490/2/6
f 473/2/6 474/2/6 491/2/6
f 491/2/6 474/2/6 492/2/6
f 493/4/6 494/4/6 495/4/6
f 495/4/6 494/4/6 496/4/6
f 496/4/6 494/4/6 497/4/6
f 497/4/6 494/4/6 498/4/6
f 498/4/6 494/4/6 499/4/6
f 499/4/6 494/4/6 500/4/6
f 493/4/6 495/4/6 501/4/6
f 500/4/6 494/4/6 502/4/6
f 493/4/6 501/4/6 503/4/6
f 502/4/6 494/4/6 504/4/6
f 493/4/6 503/4/6 505/4/6
f 505/4/6 503/4/6 506/4/6
f 504/4/6 494/4/6 507/4/6
f 507/4/6 494/4/6 508/4/6
f 505/6/6 506/6/6 509/6/6
f 509/6/6 506/6/6 510/6/6
f 507/6/6 508/6/6 511/6/6
f 511/6/6 508/6/6 512/6/6
f 510/5/6 511/5/6 513/5/6
f 513/5/6 511/5/6 514/5/6
f 514/5/6 511/5/6 515/5/6
f 515/5/6 511/5/6 516/5/6
f 510/5/6 513/5/6 517/5/6
f 517/5/6 513/5/6 518/5/6
f 518/5/6 513/5/6 519/5/6
f 514/5/6 515/5/6 520/5/6
f 520/5/6 515/5/6 521/5/6
f 516/5/6 511/5/6 522/5/6
f 522/5/6 511/5/6 523/5/6
f 523/5/6 511/5/6 524/5/6
f 525/4/6 526/4/6 531/4/6
f 526/1/6 527/1/6 532/1/6
f 531/4/6 526/4/6 532/4/6
f 527/4/6 528/4/6 533/4/6
f 532/1/6 527/1/6 533/1/6
f 533/4/6 528/4/6 534/4/6
f 534/4/6 528/4/6 535/4/6
f 528/1/6 529/1/6 536/1/6
f 535/4/6 528/4/6 536/4/6
f 529/4/6 530/4/6 537/4/6
f 536/1/6 529/1/6 537/1/6
f 537/4/6 530/4/6 538/4/6
f 531/1/6 532/1/6 539/1/6
f 532/1/6 533/1/6 539/1/6
f 533/1/6 534/1/6 539/1/6
f 539/1/6 534/1/6 540/1/6
f 540/1/6 534/1/6 541/1/6
f 534/4/6 535/4/6 542/4/6
f 541/1/6 534/1/6 542/1/6
f 535/1/6 536/1/6 543/1/6
f 542/4/6 535/4/6 543/4/6
f 537/1/6 538/1/6 543/1/6
f 536/1/6 537/1/6 543/1/6
f 543/1/6 538/1/6 544/1/6
f 544/1/6 538/1/6 545/1/6
f 545/1/6 538/1/6 546/1/6
f 540/1/6 541/1/6 547/1/6
f 539/4/6 540/4/6 547/4/6
f 541/4/6 542/4/6 548/4/6
f 547/1/6 541/1/6 548/1/6
f 542/4/6 543/4/6 548/4/6
f 543/4/6 544/4/6 548/4/6
f 544/1/6 545/1/6 549/1/6
f 548/4/6 544/4/6 549/4/6
f 545/4/6 546/4/6 550/4/6
f 549/1/6 545/1/6 550/1/6
f 548/4/6 549/4/6 551/4/6
f 547/4/6 548/4/6 551/4/6
f 549/4/6 550/4/6 551/4/6
f 551/4/6 550/4/6 552/4/6
f 547/4/6 551/4/6 553/4/6
f 551/1/6 552/1/6 554/1/6
f 553/4/6 551/4/6 554/4/6
f 552/4/6 550/4/6 555/4/6
f 554/1/6 552/1/6 555/1/6
f 555/4/6 550/4/6 556/4/6
f 547/4/6 553/4/6 557/4/6
f 553/1/6 554/1/6 558/1/6
f 557/4/6 553/4/6 558/4/6
f 554/1/6 555/1/6 558/1/6
f 555/1/6 556/1/6 558/1/6
f 556/4/6 550/4/6 559/4/6
f 558/1/6 556/1/6 559/1/6
f 559/4/6 550/4/6 560/4/6
f 557/1/6 558/1/6 561/1/6
f 558/1/6 559/1/6 561/1/6
f 559/1/6 560/1/6 561/1/6
f 561/1/6 560/1/6 562/1/6
f 547/4/6 557/4/6 563/4/6
f 557/1/6 561/1/6 564/1/6
f 563/4/6 557/4/6 564/4/6
f 564/1/6 561/1/6 565/1/6
f 561/4/6 562/4/6 566/4/6
f 565/1/6 561/1/6 566/1/6
f 562/1/6 560/1/6 567/1/6
f 566/4/6 562/4/6 567/4/6
f 560/4/6 550/4/6 568/4/6
f 567/1/6 560/1/6 568/1/6
f 568/4/6 550/4/6 569/4/6
f 564/1/6 565/1/6 570/1/6
f 563/1/6 564/1/6 570/1/6
f 565/4/6 566/4/6 571/4/6
f 570/1/6 565/1/6 571/1/6
f 566/4/6 567/4/6 571/4/6
f 567/4/6 568/4/6 571/4/6
f 568/1/6 569/1/6 572/1/6
f 571/4/6 568/4/6 572/4/6
f 569/4/6 550/4/6 573/4/6
f 572/1/6 569/1/6 573/1/6
f 539/4/6 547/4/6 574/4/6
f 547/4/6 563/4/6 574/4/6
f 563/1/6 570/1/6 575/1/6
f 574/4/6 563/4/6 575/4/6
f 575/1/6 570/1/6 576/1/6
f 570/4/6 571/4/6 577/4/6
f 576/1/6 570/1/6 577/1/6
f 572/4/6 573/4/6 577/4/6
f 571/4/6 572/4/6 577/4/6
f 539/4/6 574/4/6 578/4/6
f 575/1/6 576/1/6 578/1/6
f 574/1/6 575/1/6 578/1/6
f 578/1/6 576/1/6 579/1/6
f 576/4/6 577/4/6 580/4/6
f 579/1/6 576/1/6 580/1/6
f 577/4/6 573/4/6 581/4/6
f 580/4/6 577/4/6 581/4/6
f 579/1/6 580/1/6 582/1/6
f 581/4/6 573/4/6 582/4/6
f 580/1/6 581/1/6 582/1/6
f 582/4/6 573/4/6 583/4/6
f 583/4/6 573/4/6 584/4/6
f 573/4/6 550/4/6 585/4/6
f 584/4/6 573/4/6 585/4/6
f 578/4/6 579/4/6 586/4/6
f 579/1/6 582/1/6 586/1/6
f 582/1/6 583/1/6 586/1/6
f 586/1/6 583/1/6 587/1/6
f 583/4/6 584/4/6 588/4/6
f 587/1/6 583/1/6 588/1/6
f 588/4/6 584/4/6 589/4/6
f 589/4/6 584/4/6 590/4/6
f 584/1/6 585/1/6 591/1/6
f 590/4/6 584/4/6 591/4/6
f 585/4/6 550/4/6 592/4/6
f 591/1/6 585/1/6 592/1/6
f 589/4/6 590/4/6 593/4/6
f 587/1/6 588/1/6 593/1/6
f 588/1/6 589/1/6 593/1/6
f 590/1/6 591/1/6 594/1/6
f 593/4/6 590/4/6 594/4/6
f 586/4/6 587/4/6 595/4/6
f 587/1/6 593/1/6 595/1/6
f 593/1/6 594/1/6 595/1/6
f 595/1/6 594/1/6 596/1/6
f 596/1/6 594/1/6 597/1/6
f 594/1/6 591/1/6 598/1/6
f 597/1/6 594/1/6 598/1/6
f 591/4/6 592/4/6 598/4/6
f 596/1/6 597/1/6 599/1/6
f 595/4/6 596/4/6 599/4/6
f 599/1/6 597/1/6 600/1/6
f 600/1/6 597/1/6 601/1/6
f 597/4/6 598/4/6 602/4/6
f 601/1/6 597/1/6 602/1/6
f 578/4/6 586/4/6 603/4/6
f 586/4/6 595/4/6 603/4/6
f 595/4/6 599/4/6 603/4/6
f 599/4/6 600/4/6 603/4/6
f 603/4/6 600/4/6 604/4/6
f 600/1/6 601/1/6 605/1/6
f 604/4/6 600/4/6 605/4/6
f 601/4/6 602/4/6 606/4/6
f 605/1/6 601/1/6 606/1/6
f 598/4/6 592/4/6 607/4/6
f 606/4/6 602/4/6 607/4/6
f 602/4/6 598/4/6 607/4/6
f 592/4/6 550/4/6 608/4/6
f 607/4/6 592/4/6 608/4/6
f 539/4/6 578/4/6 609/4/6
f 578/4/6 603/4/6 609/4/6
f 603/1/6 604/1/6 610/1/6
f 609/4/6 603/4/6 610/4/6
f 605/4/6 606/4/6 611/4/6
f 610/1/6 604/1/6 611/1/6
f 606/4/6 607/4/6 611/4/6
f 604/4/6 605/4/6 611/4/6
f 611/4/6 607/4/6 612/4/6
f 612/4/6 607/4/6 613/4/6
f 607/1/6 608/1/6 614/1/6
f 613/4/6 607/4/6 614/4/6
f 608/4/6 550/4/6 615/4/6
f 614/1/6 608/1/6 615/1/6
f 550/4/6 546/4/6 616/4/6
f 615/4/6 550/4/6 616/4/6
f 609/1/6 610/1/6 617/1/6
f 539/4/6 609/4/6 617/4/6
f 610/1/6 611/1/6 617/1/6
f 611/1/6 612/1/6 617/1/6
f 617/1/6 612/1/6 618/1/6
f 618/1/6 612/1/6 619/1/6
f 612/4/6 613/4/6 620/4/6
f 619/1/6 612/1/6 620/1/6
f 614/1/6 615/1/6 621/1/6
f 620/4/6 613/4/6 621/4/6
f 613/1/6 614/1/6 621/1/6
f 615/1/6 616/1/6 621/1/6
f 621/1/6 616/1/6 622/1/6
f 622/1/6 616/1/6 623/1/6
f 616/4/6 546/4/6 624/4/6
f 623/1/6 616/1/6 624/1/6
f 617/4/6 618/4/6 625/4/6
f 539/4/6 617/4/6 625/4/6
f 618/1/6 619/1/6 626/1/6
f 625/4/6 618/4/6 626/4/6
f 619/4/6 620/4/6 627/4/6
f 626/1/6 619/1/6 627/1/6
f 620/4/6 621/4/6 627/4/6
f 621/4/6 622/4/6 627/4/6
f 622/1/6 623/1/6 628/1/6
f 627/4/6 622/4/6 628/4/6
f 623/4/6 624/4/6 629/4/6
f 628/1/6 623/1/6 629/1/6
f 624/4/6 546/4/6 630/4/6
f 629/4/6 624/4/6 630/4/6
f 626/6/6 627/6/6 631/6/6
f 625/6/6 626/6/6 631/6/6
f 629/6/6 630/6/6 631/6/6
f 628/6/6 629/6/6 631/6/6
f 627/6/6 628/6/6 631/6/6
f 631/6/6 630/6/6 632/6/6
f 633/3/6 634/3/6 637/3/6
f 637/3/6 634/3/6 638/3/6
f 638/3/6 634/3/6 639/3/6
f 639/3/6 634/3/6 640/3/6
f 640/3/6 634/3/6 641/3/6
f 641/3/6 634/3/6 642/3/6
f 642/3/6 634/3/6 643/3/6
f 643/3/6 634/3/6 644/3/6
f 635/3/6 636/3/6 645/3/6
f 645/3/6 636/3/6 646/3/6
f 646/3/6 636/3/6 647/3/6
f 647/3/6 636/3/6 648/3/6
f 648/3/6 636/3/6 649/3/6
f 649/3/6 636/3/6 650/3/6
f 650/3/6 636/3/6 651/3/6
f 651/3/6 636/3/6 652/3/6
f 653/2/6 654/2/6 655/2/6
f 655/2/6 654/2/6 656/2/6
