# MagicaVoxel @ Ephtracy

# group
o 

# material
mtllib Bush3.mtl
usemtl palette

# normals
vn -1 0 0
vn 1 0 0
vn 0 0 1
vn 0 0 -1
vn 0 -1 0
vn 0 1 0

# texcoords
vt 0.0449219 0.5
vt 0.537109 0.5
vt 0.794922 0.5

# verts
v -0.4 0 0.2
v -0.4 0 0
v -0.4 0.1 0
v -0.4 0.1 -0.1
v -0.4 0.2 0.2
v -0.4 0.2 0
v -0.4 0.2 -0.1
v -0.4 0.2 -0.2
v -0.4 0.3 0.2
v -0.4 0.3 0.1
v -0.4 0.3 0
v -0.4 0.3 -0.1
v -0.4 0.4 0.1
v -0.4 0.4 0
v -0.4 0.4 -0.1
v -0.4 0.4 -0.2
v -0.4 0.5 0
v -0.4 0.5 -0.1
v -0.4 0.6 0
v -0.4 0.6 -0.2
v -0.3 0 0
v -0.3 0 -0.2
v -0.3 0 -0.4
v -0.3 0.1 0.3
v -0.3 0.1 0.2
v -0.3 0.1 0
v -0.3 0.1 -0.1
v -0.3 0.1 -0.2
v -0.3 0.1 -0.3
v -0.3 0.2 0.2
v -0.3 0.2 -0.1
v -0.3 0.2 -0.2
v -0.3 0.2 -0.3
v -0.3 0.2 -0.4
v -0.3 0.3 0.3
v -0.3 0.3 0.2
v -0.3 0.3 0.1
v -0.3 0.3 0
v -0.3 0.3 -0.1
v -0.3 0.3 -0.2
v -0.3 0.3 -0.3
v -0.3 0.4 0.4
v -0.3 0.4 0.3
v -0.3 0.4 0.2
v -0.3 0.4 0.1
v -0.3 0.4 0
v -0.3 0.4 -0.1
v -0.3 0.4 -0.2
v -0.3 0.4 -0.3
v -0.3 0.5 0.3
v -0.3 0.5 0.2
v -0.3 0.5 0.1
v -0.3 0.5 0
v -0.3 0.5 -0.2
v -0.3 0.5 -0.3
v -0.3 0.6 0.4
v -0.3 0.6 0.2
v -0.2 0 0.3
v -0.2 0 0.2
v -0.2 0.1 0.3
v -0.2 0.1 0.2
v -0.2 0.2 0.4
v -0.2 0.2 0.3
v -0.2 0.2 -0.3
v -0.2 0.2 -0.4
v -0.2 0.3 0.3
v -0.2 0.3 0.2
v -0.2 0.3 -0.2
v -0.2 0.3 -0.3
v -0.2 0.4 0.4
v -0.2 0.4 0.3
v -0.2 0.4 0.2
v -0.2 0.4 0.1
v -0.2 0.4 -0.2
v -0.2 0.4 -0.3
v -0.2 0.4 -0.4
v -0.2 0.5 0.2
v -0.2 0.5 0.1
v -0.2 0.5 0
v -0.2 0.6 0.2
v -0.2 0.6 0
v -0.2 0.6 -0.1
v -0.2 0.7 0
v -0.2 0.7 -0.1
v -0.1 0.4 -0.3
v -0.1 0.4 -0.4
v -0.1 0.5 -0.2
v -0.1 0.5 -0.3
v -0.1 0.5 -0.4
v -0.1 0.6 0.2
v -0.1 0.6 0.1
v -0.1 0.6 -0.1
v -0.1 0.6 -0.2
v -0.1 0.6 -0.3
v -0.1 0.7 0.2
v -0.1 0.7 0.1
v -0.1 0.7 -0.1
v -0.1 0.7 -0.2
v 0 0.1 0.4
v 0 0.1 0.3
v 0 0.3 0.4
v 0 0.3 0.3
v 0 0.5 0.3
v 0 0.5 0.2
v 0 0.6 0.3
v 0 0.6 0.2
v 0 0.6 0.1
v 0 0.6 -0.1
v 0 0.7 0.1
v 0 0.7 -0.1
v 0.3 0.1 0.3
v 0.3 0.1 0.2
v 0.3 0.2 0.3
v 0.3 0.2 0.2
v -0.1 0 -0.3
v -0.1 0 -0.4
v -0.1 0.1 -0.3
v -0.1 0.1 -0.4
v -0.1 0.2 0.4
v -0.1 0.2 0.3
v -0.1 0.3 0.4
v -0.1 0.3 0.3
v -0.1 0.5 0.4
v -0.1 0.5 0.3
v -0.1 0.5 0.2
v -0.1 0.6 0.4
v -0.1 0.6 0.3
v -0.1 0.6 0.2
v -0.1 0.6 0
v -0.1 0.6 -0.1
v -0.1 0.7 0
v -0.1 0.7 -0.1
v 0 0.4 0.4
v 0 0.4 0.3
v 0 0.5 0.4
v 0 0.5 0.3
v 0 0.5 -0.2
v 0 0.5 -0.3
v 0 0.6 -0.2
v 0 0.6 -0.3
v 0.1 0.1 0.4
v 0.1 0.1 0.3
v 0.1 0.1 -0.3
v 0.1 0.1 -0.4
v 0.1 0.2 -0.3
v 0.1 0.2 -0.4
v 0.1 0.3 0.4
v 0.1 0.3 0.3
v 0.1 0.4 -0.3
v 0.1 0.4 -0.4
v 0.1 0.5 -0.3
v 0.1 0.5 -0.4
v 0.1 0.6 0.2
v 0.1 0.6 0.1
v 0.1 0.7 0.2
v 0.1 0.7 0.1
v 0.2 0 0.3
v 0.2 0 0.2
v 0.2 0 -0.2
v 0.2 0 -0.3
v 0.2 0.1 -0.2
v 0.2 0.1 -0.3
v 0.2 0.2 0.3
v 0.2 0.2 0.2
v 0.2 0.2 -0.3
v 0.2 0.2 -0.4
v 0.2 0.3 0.4
v 0.2 0.3 0.3
v 0.2 0.4 0.4
v 0.2 0.4 0.3
v 0.2 0.4 -0.2
v 0.2 0.4 -0.3
v 0.2 0.4 -0.4
v 0.2 0.5 0.1
v 0.2 0.5 0
v 0.2 0.5 -0.1
v 0.2 0.5 -0.2
v 0.2 0.5 -0.3
v 0.2 0.6 0.1
v 0.2 0.6 0
v 0.2 0.6 -0.1
v 0.2 0.6 -0.2
v 0.2 0.7 0.1
v 0.2 0.7 0
v 0.2 0.7 -0.2
v 0.3 0 0.2
v 0.3 0 -0.2
v 0.3 0.1 0.2
v 0.3 0.1 0.1
v 0.3 0.1 -0.1
v 0.3 0.1 -0.2
v 0.3 0.1 -0.3
v 0.3 0.2 -0.1
v 0.3 0.2 -0.2
v 0.3 0.2 -0.3
v 0.3 0.3 0.3
v 0.3 0.3 0.2
v 0.3 0.3 0.1
v 0.3 0.4 0.3
v 0.3 0.4 0.2
v 0.3 0.4 0.1
v 0.3 0.4 0
v 0.3 0.4 -0.1
v 0.3 0.4 -0.2
v 0.3 0.5 0.2
v 0.3 0.5 0.1
v 0.3 0.5 0
v 0.3 0.5 -0.1
v 0.3 0.5 -0.2
v 0.3 0.6 0.3
v 0.3 0.6 0.1
v 0.3 0.6 0
v 0.3 0.6 -0.1
v 0.4 0.1 0.3
v 0.4 0.1 0.1
v 0.4 0.1 -0.1
v 0.4 0.2 0.2
v 0.4 0.2 0.1
v 0.4 0.2 -0.1
v 0.4 0.2 -0.2
v 0.4 0.2 -0.3
v 0.4 0.3 0.3
v 0.4 0.3 0.2
v 0.4 0.3 0.1
v 0.4 0.3 -0.1
v 0.4 0.3 -0.2
v 0.4 0.4 0.1
v 0.4 0.4 0
v 0.4 0.4 -0.1
v 0.4 0.4 -0.3
v 0.4 0.5 0
v 0.4 0.5 -0.1
v -0.3 0.4 0.4
v -0.3 0.6 0.4
v -0.2 0.2 0.4
v -0.2 0.4 0.4
v -0.1 0.2 0.4
v -0.1 0.3 0.4
v -0.1 0.4 0.4
v -0.1 0.5 0.4
v -0.1 0.6 0.4
v 0 0.1 0.4
v 0 0.3 0.4
v 0 0.4 0.4
v 0 0.5 0.4
v 0.1 0.1 0.4
v 0.1 0.3 0.4
v 0.2 0.3 0.4
v 0.2 0.4 0.4
v -0.3 0.1 0.3
v -0.3 0.3 0.3
v -0.2 0 0.3
v -0.2 0.1 0.3
v -0.2 0.2 0.3
v -0.2 0.3 0.3
v -0.1 0.2 0.3
v -0.1 0.3 0.3
v 0 0.1 0.3
v 0 0.3 0.3
v 0 0.4 0.3
v 0 0.5 0.3
v 0 0.6 0.3
v 0.1 0.1 0.3
v 0.1 0.3 0.3
v 0.1 0.5 0.3
v 0.1 0.6 0.3
v 0.2 0 0.3
v 0.2 0.2 0.3
v 0.2 0.3 0.3
v 0.2 0.4 0.3
v 0.2 0.5 0.3
v 0.3 0.1 0.3
v 0.3 0.2 0.3
v 0.3 0.3 0.3
v 0.3 0.4 0.3
v 0.3 0.6 0.3
v 0.4 0.1 0.3
v 0.4 0.3 0.3
v -0.4 0 0.2
v -0.4 0.2 0.2
v -0.4 0.3 0.2
v -0.3 0 0.2
v -0.3 0.1 0.2
v -0.3 0.2 0.2
v -0.3 0.3 0.2
v -0.3 0.4 0.2
v -0.2 0 0.2
v -0.2 0.1 0.2
v -0.2 0.3 0.2
v -0.2 0.4 0.2
v -0.1 0.5 0.2
v -0.1 0.6 0.2
v -0.1 0.7 0.2
v 0 0.5 0.2
v 0 0.6 0.2
v 0.1 0.6 0.2
v 0.1 0.7 0.2
v 0.2 0 0.2
v 0.2 0.2 0.2
v 0.3 0 0.2
v 0.3 0.1 0.2
v 0.3 0.2 0.2
v -0.4 0.3 0.1
v -0.4 0.4 0.1
v -0.3 0.3 0.1
v -0.3 0.4 0.1
v -0.3 0.5 0.1
v -0.2 0.4 0.1
v -0.2 0.5 0.1
v 0.1 0.6 0.1
v 0.1 0.7 0.1
v 0.2 0.6 0.1
v 0.2 0.7 0.1
v 0.3 0.3 0.1
v 0.3 0.4 0.1
v 0.4 0.3 0.1
v 0.4 0.4 0.1
v -0.4 0.4 0
v -0.4 0.5 0
v -0.4 0.6 0
v -0.3 0.4 0
v -0.3 0.5 0
v -0.3 0.6 0
v -0.2 0.5 0
v -0.2 0.6 0
v -0.2 0.7 0
v -0.1 0.6 0
v -0.1 0.7 0
v 0.2 0.5 0
v 0.2 0.6 0
v 0.3 0.4 0
v 0.3 0.5 0
v 0.3 0.6 0
v 0.4 0.4 0
v 0.4 0.5 0
v -0.4 0.3 -0.1
v -0.4 0.4 -0.1
v -0.3 0.3 -0.1
v -0.3 0.4 -0.1
v -0.1 0.6 -0.1
v -0.1 0.7 -0.1
v 0 0.6 -0.1
v 0 0.7 -0.1
v -0.3 0.4 0.2
v -0.3 0.5 0.2
v -0.3 0.6 0.2
v -0.2 0.4 0.2
v -0.2 0.5 0.2
v -0.2 0.6 0.2
v -0.1 0.6 0.1
v -0.1 0.7 0.1
v 0 0.6 0.1
v 0 0.7 0.1
v 0.2 0.5 0.1
v 0.2 0.6 0.1
v 0.3 0.5 0.1
v 0.3 0.6 0.1
v -0.4 0 0
v -0.4 0.1 0
v -0.4 0.3 0
v -0.4 0.4 0
v -0.3 0 0
v -0.3 0.1 0
v -0.3 0.3 0
v -0.3 0.4 0
v -0.4 0.1 -0.1
v -0.4 0.2 -0.1
v -0.3 0.1 -0.1
v -0.3 0.2 -0.1
v -0.2 0.6 -0.1
v -0.2 0.7 -0.1
v -0.1 0.6 -0.1
v -0.1 0.7 -0.1
v 0.2 0.5 -0.1
v 0.2 0.6 -0.1
v 0.3 0.1 -0.1
v 0.3 0.2 -0.1
v 0.3 0.4 -0.1
v 0.3 0.5 -0.1
v 0.3 0.6 -0.1
v 0.4 0.1 -0.1
v 0.4 0.2 -0.1
v 0.4 0.4 -0.1
v 0.4 0.5 -0.1
v -0.4 0.2 -0.2
v -0.4 0.4 -0.2
v -0.4 0.6 -0.2
v -0.3 0.2 -0.2
v -0.3 0.3 -0.2
v -0.3 0.4 -0.2
v -0.3 0.5 -0.2
v -0.2 0.3 -0.2
v -0.2 0.4 -0.2
v -0.2 0.5 -0.2
v -0.2 0.6 -0.2
v -0.1 0.5 -0.2
v -0.1 0.6 -0.2
v -0.1 0.7 -0.2
v 0 0.5 -0.2
v 0 0.6 -0.2
v 0 0.7 -0.2
v 0.2 0 -0.2
v 0.2 0.1 -0.2
v 0.2 0.4 -0.2
v 0.2 0.5 -0.2
v 0.2 0.6 -0.2
v 0.2 0.7 -0.2
v 0.3 0 -0.2
v 0.3 0.1 -0.2
v 0.3 0.4 -0.2
v 0.3 0.5 -0.2
v -0.3 0.2 -0.3
v -0.3 0.3 -0.3
v -0.3 0.4 -0.3
v -0.3 0.5 -0.3
v -0.2 0.2 -0.3
v -0.2 0.3 -0.3
v -0.2 0.4 -0.3
v -0.1 0 -0.3
v -0.1 0.1 -0.3
v -0.1 0.4 -0.3
v -0.1 0.5 -0.3
v -0.1 0.6 -0.3
v 0 0.5 -0.3
v 0 0.6 -0.3
v 0.1 0.1 -0.3
v 0.1 0.2 -0.3
v 0.1 0.4 -0.3
v 0.1 0.5 -0.3
v 0.2 0 -0.3
v 0.2 0.1 -0.3
v 0.2 0.2 -0.3
v 0.2 0.4 -0.3
v 0.2 0.5 -0.3
v 0.3 0.1 -0.3
v 0.3 0.2 -0.3
v 0.3 0.4 -0.3
v 0.4 0.2 -0.3
v 0.4 0.4 -0.3
v -0.3 0 -0.4
v -0.3 0.2 -0.4
v -0.2 0.2 -0.4
v -0.2 0.4 -0.4
v -0.1 0 -0.4
v -0.1 0.1 -0.4
v -0.1 0.2 -0.4
v -0.1 0.4 -0.4
v -0.1 0.5 -0.4
v 0 0.3 -0.4
v 0 0.5 -0.4
v 0.1 0.1 -0.4
v 0.1 0.2 -0.4
v 0.1 0.3 -0.4
v 0.1 0.4 -0.4
v 0.1 0.5 -0.4
v 0.2 0.2 -0.4
v 0.2 0.4 -0.4
v -0.2 0 0.3
v 0.2 0 0.3
v -0.4 0 0.2
v -0.3 0 0.2
v -0.2 0 0.2
v 0.2 0 0.2
v 0.3 0 0.2
v -0.4 0 0
v -0.3 0 0
v 0 0 0
v 0.1 0 0
v 0 0 -0.1
v 0.1 0 -0.1
v -0.3 0 -0.2
v -0.2 0 -0.2
v 0.2 0 -0.2
v 0.3 0 -0.2
v -0.2 0 -0.3
v -0.1 0 -0.3
v 0.2 0 -0.3
v -0.3 0 -0.4
v -0.1 0 -0.4
v 0 0.1 0.4
v 0.1 0.1 0.4
v -0.3 0.1 0.3
v -0.2 0.1 0.3
v 0 0.1 0.3
v 0.1 0.1 0.3
v 0.3 0.1 0.3
v 0.4 0.1 0.3
v -0.3 0.1 0.2
v -0.2 0.1 0.2
v 0.3 0.1 0.2
v 0.3 0.1 0.1
v 0.4 0.1 0.1
v -0.4 0.1 0
v -0.3 0.1 0
v -0.4 0.1 -0.1
v -0.3 0.1 -0.1
v 0.3 0.1 -0.1
v 0.4 0.1 -0.1
v 0.2 0.1 -0.2
v 0.3 0.1 -0.2
v -0.1 0.1 -0.3
v 0.1 0.1 -0.3
v 0.2 0.1 -0.3
v 0.3 0.1 -0.3
v -0.1 0.1 -0.4
v 0.1 0.1 -0.4
v -0.2 0.2 0.4
v -0.1 0.2 0.4
v -0.2 0.2 0.3
v -0.1 0.2 0.3
v 0.2 0.2 0.3
v 0.3 0.2 0.3
v 0.2 0.2 0.2
v 0.3 0.2 0.2
v -0.4 0.2 -0.1
v -0.3 0.2 -0.1
v 0.3 0.2 -0.1
v 0.4 0.2 -0.1
v -0.4 0.2 -0.2
v -0.3 0.2 -0.2
v 0.3 0.2 -0.2
v 0.4 0.2 -0.2
v 0.1 0.2 -0.3
v 0.2 0.2 -0.3
v 0.3 0.2 -0.3
v 0.4 0.2 -0.3
v 0.1 0.2 -0.4
v 0.2 0.2 -0.4
v -0.1 0.3 0.4
v 0 0.3 0.4
v 0.1 0.3 0.4
v 0.2 0.3 0.4
v -0.1 0.3 0.3
v 0 0.3 0.3
v 0.1 0.3 0.3
v 0.2 0.3 0.3
v -0.3 0.4 0.4
v -0.2 0.4 0.4
v -0.3 0.4 0.3
v -0.2 0.4 0.3
v -0.3 0.4 0.2
v -0.2 0.4 0.2
v -0.4 0.4 0
v -0.3 0.4 0
v -0.4 0.4 -0.1
v -0.3 0.4 -0.1
v -0.3 0.4 -0.2
v -0.2 0.4 -0.2
v -0.3 0.4 -0.3
v -0.2 0.4 -0.3
v -0.3 0.2 -0.3
v -0.2 0.2 -0.3
v -0.3 0.2 -0.4
v -0.2 0.2 -0.4
v -0.3 0.3 0.3
v -0.2 0.3 0.3
v 0.3 0.3 0.3
v 0.4 0.3 0.3
v -0.4 0.3 0.2
v -0.3 0.3 0.2
v -0.2 0.3 0.2
v 0.3 0.3 0.2
v 0.4 0.3 0.2
v -0.4 0.3 0.1
v -0.3 0.3 0.1
v 0.3 0.3 0.1
v 0.4 0.3 0.1
v -0.4 0.3 0
v -0.3 0.3 0
v -0.4 0.3 -0.1
v -0.3 0.3 -0.1
v -0.3 0.3 -0.2
v -0.2 0.3 -0.2
v -0.3 0.3 -0.3
v -0.2 0.3 -0.3
v 0 0.4 0.4
v 0.2 0.4 0.4
v 0 0.4 0.3
v 0.2 0.4 0.3
v -0.3 0.4 0.2
v -0.2 0.4 0.2
v -0.4 0.4 0.1
v -0.3 0.4 0.1
v -0.2 0.4 0.1
v 0.3 0.4 0.1
v 0.4 0.4 0.1
v -0.4 0.4 0
v -0.3 0.4 0
v 0.3 0.4 0
v 0.4 0.4 0
v 0.3 0.4 -0.1
v 0.4 0.4 -0.1
v 0.2 0.4 -0.2
v 0.3 0.4 -0.2
v -0.2 0.4 -0.3
v -0.1 0.4 -0.3
v 0.1 0.4 -0.3
v 0.2 0.4 -0.3
v 0.3 0.4 -0.3
v 0.4 0.4 -0.3
v -0.2 0.4 -0.4
v -0.1 0.4 -0.4
v 0.1 0.4 -0.4
v 0.2 0.4 -0.4
v -0.1 0.5 0.4
v 0 0.5 0.4
v -0.1 0.5 0.3
v 0 0.5 0.3
v -0.1 0.5 0.2
v 0 0.5 0.2
v -0.3 0.5 0.1
v -0.2 0.5 0.1
v 0.2 0.5 0.1
v 0.3 0.5 0.1
v -0.3 0.5 0
v -0.2 0.5 0
v 0.2 0.5 0
v 0.3 0.5 0
v 0.4 0.5 0
v 0.2 0.5 -0.1
v 0.3 0.5 -0.1
v 0.4 0.5 -0.1
v -0.3 0.5 -0.2
v -0.2 0.5 -0.2
v -0.1 0.5 -0.2
v 0 0.5 -0.2
v 0.2 0.5 -0.2
v 0.3 0.5 -0.2
v -0.3 0.5 -0.3
v -0.1 0.5 -0.3
v 0 0.5 -0.3
v 0.1 0.5 -0.3
v 0.2 0.5 -0.3
v -0.1 0.5 -0.4
v 0 0.5 -0.4
v 0.1 0.5 -0.4
v -0.3 0.6 0.4
v -0.1 0.6 0.4
v -0.2 0.6 0.3
v -0.1 0.6 0.3
v 0 0.6 0.3
v 0.1 0.6 0.3
v 0.3 0.6 0.3
v -0.3 0.6 0.2
v -0.2 0.6 0.2
v -0.1 0.6 0.2
v 0 0.6 0.2
v 0.1 0.6 0.2
v 0.2 0.6 0.2
v -0.1 0.6 0.1
v 0 0.6 0.1
v 0.1 0.6 0.1
v 0.2 0.6 0.1
v 0.3 0.6 0.1
v -0.4 0.6 0
v -0.3 0.6 0
v -0.2 0.6 0
v -0.1 0.6 0
v 0.2 0.6 0
v 0.3 0.6 0
v -0.3 0.6 -0.1
v -0.2 0.6 -0.1
v -0.1 0.6 -0.1
v 0 0.6 -0.1
v 0.2 0.6 -0.1
v 0.3 0.6 -0.1
v -0.4 0.6 -0.2
v -0.2 0.6 -0.2
v -0.1 0.6 -0.2
v 0 0.6 -0.2
v -0.1 0.6 -0.3
v 0 0.6 -0.3
v -0.1 0.7 0.2
v 0.1 0.7 0.2
v -0.1 0.7 0.1
v 0 0.7 0.1
v 0.1 0.7 0.1
v 0.2 0.7 0.1
v -0.2 0.7 0
v -0.1 0.7 0
v 0.1 0.7 0
v 0.2 0.7 0
v -0.2 0.7 -0.1
v -0.1 0.7 -0.1
v 0 0.7 -0.1
v 0.1 0.7 -0.1
v -0.1 0.7 -0.2
v 0 0.7 -0.2
v 0.2 0.7 -0.2

# faces
f 3/1/1 2/1/1 1/1/1
f 5/1/1 3/1/1 1/1/1
f 6/3/1 4/3/1 3/3/1
f 6/1/1 3/1/1 5/1/1
f 7/3/1 4/3/1 6/3/1
f 9/3/1 6/3/1 5/3/1
f 9/3/1 8/3/1 7/3/1
f 9/3/1 7/3/1 6/3/1
f 10/3/1 8/3/1 9/3/1
f 11/3/1 8/3/1 10/3/1
f 12/3/1 8/3/1 11/3/1
f 13/3/1 11/3/1 10/3/1
f 14/3/1 11/3/1 13/3/1
f 15/3/1 8/3/1 12/3/1
f 16/3/1 8/3/1 15/3/1
f 17/3/1 15/3/1 14/3/1
f 18/1/1 16/1/1 15/1/1
f 18/3/1 15/3/1 17/3/1
f 19/1/1 18/1/1 17/1/1
f 20/1/1 16/1/1 18/1/1
f 20/1/1 18/1/1 19/1/1
f 26/3/1 22/3/1 21/3/1
f 27/3/1 22/3/1 26/3/1
f 28/1/1 23/1/1 22/1/1
f 28/3/1 22/3/1 27/3/1
f 29/1/1 23/1/1 28/1/1
f 30/3/1 25/3/1 24/3/1
f 31/3/1 29/3/1 28/3/1
f 31/3/1 28/3/1 27/3/1
f 32/3/1 29/3/1 31/3/1
f 33/1/1 23/1/1 29/1/1
f 33/3/1 29/3/1 32/3/1
f 34/1/1 23/1/1 33/1/1
f 35/3/1 30/3/1 24/3/1
f 36/3/1 30/3/1 35/3/1
f 40/3/1 33/3/1 32/3/1
f 41/3/1 33/3/1 40/3/1
f 44/3/1 37/3/1 36/3/1
f 45/3/1 37/3/1 44/3/1
f 46/3/1 39/3/1 38/3/1
f 47/3/1 39/3/1 46/3/1
f 50/1/1 43/1/1 42/1/1
f 50/3/1 44/3/1 43/3/1
f 51/3/1 44/3/1 50/3/1
f 52/3/1 46/3/1 45/3/1
f 53/3/1 46/3/1 52/3/1
f 54/3/1 49/3/1 48/3/1
f 55/3/1 49/3/1 54/3/1
f 56/1/1 51/1/1 50/1/1
f 56/1/1 50/1/1 42/1/1
f 57/1/1 51/1/1 56/1/1
f 60/3/1 59/3/1 58/3/1
f 61/3/1 59/3/1 60/3/1
f 66/3/1 63/3/1 62/3/1
f 69/3/1 65/3/1 64/3/1
f 70/3/1 67/3/1 66/3/1
f 70/3/1 66/3/1 62/3/1
f 71/3/1 67/3/1 70/3/1
f 72/3/1 67/3/1 71/3/1
f 74/3/1 69/3/1 68/3/1
f 75/3/1 65/3/1 69/3/1
f 75/3/1 69/3/1 74/3/1
f 76/3/1 65/3/1 75/3/1
f 77/3/1 73/3/1 72/3/1
f 78/3/1 73/3/1 77/3/1
f 80/3/1 78/3/1 77/3/1
f 80/3/1 79/3/1 78/3/1
f 81/3/1 79/3/1 80/3/1
f 83/3/1 82/3/1 81/3/1
f 84/3/1 82/3/1 83/3/1
f 88/3/1 86/3/1 85/3/1
f 89/3/1 86/3/1 88/3/1
f 93/3/1 88/3/1 87/3/1
f 94/3/1 88/3/1 93/3/1
f 95/3/1 91/3/1 90/3/1
f 96/3/1 91/3/1 95/3/1
f 97/3/1 93/3/1 92/3/1
f 98/3/1 93/3/1 97/3/1
f 101/3/1 100/3/1 99/3/1
f 102/3/1 100/3/1 101/3/1
f 105/3/1 104/3/1 103/3/1
f 106/3/1 104/3/1 105/3/1
f 109/3/1 108/3/1 107/3/1
f 110/3/1 108/3/1 109/3/1
f 113/1/1 112/1/1 111/1/1
f 114/1/1 112/1/1 113/1/1
f 115/1/2 116/1/2 117/1/2
f 117/1/2 116/1/2 118/1/2
f 119/3/2 120/3/2 121/3/2
f 121/3/2 120/3/2 122/3/2
f 123/1/2 124/1/2 126/1/2
f 124/3/2 125/3/2 127/3/2
f 126/1/2 124/1/2 127/1/2
f 127/3/2 125/3/2 128/3/2
f 129/3/2 130/3/2 131/3/2
f 131/3/2 130/3/2 132/3/2
f 133/3/2 134/3/2 135/3/2
f 135/3/2 134/3/2 136/3/2
f 137/3/2 138/3/2 139/3/2
f 139/3/2 138/3/2 140/3/2
f 143/3/2 144/3/2 145/3/2
f 145/3/2 144/3/2 146/3/2
f 141/3/2 142/3/2 147/3/2
f 147/3/2 142/3/2 148/3/2
f 149/1/2 150/1/2 151/1/2
f 151/1/2 150/1/2 152/1/2
f 153/3/2 154/3/2 155/3/2
f 155/3/2 154/3/2 156/3/2
f 159/3/2 160/3/2 161/3/2
f 161/3/2 160/3/2 162/3/2
f 157/3/2 158/3/2 163/3/2
f 163/3/2 158/3/2 164/3/2
f 167/3/2 168/3/2 169/3/2
f 169/3/2 168/3/2 170/3/2
f 165/3/2 166/3/2 172/3/2
f 172/3/2 166/3/2 173/3/2
f 171/3/2 172/3/2 177/3/2
f 177/3/2 172/3/2 178/3/2
f 174/3/2 175/3/2 179/3/2
f 179/3/2 175/3/2 180/3/2
f 176/3/2 177/3/2 181/3/2
f 181/3/2 177/3/2 182/3/2
f 179/3/2 180/3/2 183/3/2
f 180/1/2 181/1/2 184/1/2
f 183/3/2 180/3/2 184/3/2
f 181/1/2 182/1/2 184/1/2
f 184/1/2 182/1/2 185/1/2
f 186/3/2 187/3/2 188/3/2
f 188/3/2 187/3/2 189/3/2
f 189/3/2 187/3/2 190/3/2
f 190/3/2 187/3/2 191/3/2
f 191/3/2 192/3/2 193/3/2
f 190/3/2 191/3/2 193/3/2
f 193/3/2 192/3/2 194/3/2
f 194/3/2 192/3/2 195/3/2
f 196/3/2 197/3/2 199/3/2
f 197/3/2 198/3/2 199/3/2
f 199/3/2 198/3/2 200/3/2
f 200/3/2 198/3/2 201/3/2
f 199/1/2 200/1/2 205/1/2
f 200/3/2 201/3/2 205/3/2
f 201/3/2 202/3/2 205/3/2
f 205/3/2 202/3/2 206/3/2
f 206/3/2 202/3/2 207/3/2
f 203/3/2 204/3/2 208/3/2
f 208/3/2 204/3/2 209/3/2
f 199/1/2 205/1/2 210/1/2
f 205/1/2 206/1/2 210/1/2
f 210/1/2 206/1/2 211/1/2
f 207/3/2 208/3/2 212/3/2
f 212/3/2 208/3/2 213/3/2
f 214/1/2 215/1/2 217/1/2
f 215/3/2 216/3/2 218/3/2
f 217/1/2 215/1/2 218/1/2
f 218/3/2 216/3/2 219/3/2
f 214/1/2 217/1/2 222/1/2
f 217/3/2 218/3/2 223/3/2
f 222/1/2 217/1/2 223/1/2
f 218/3/2 219/3/2 223/3/2
f 219/3/2 220/3/2 223/3/2
f 223/3/2 220/3/2 224/3/2
f 224/3/2 220/3/2 225/3/2
f 220/1/2 221/1/2 226/1/2
f 225/3/2 220/3/2 226/3/2
f 224/3/2 225/3/2 227/3/2
f 227/3/2 225/3/2 228/3/2
f 225/1/2 226/1/2 229/1/2
f 228/3/2 225/3/2 229/3/2
f 226/1/2 221/1/2 230/1/2
f 229/1/2 226/1/2 230/1/2
f 228/3/2 229/3/2 231/3/2
f 231/3/2 229/3/2 232/3/2
f 236/1/3 234/1/3 233/1/3
f 237/3/3 236/3/3 235/3/3
f 238/3/3 236/3/3 237/3/3
f 239/1/3 234/1/3 236/1/3
f 239/3/3 236/3/3 238/3/3
f 240/1/3 234/1/3 239/1/3
f 241/1/3 234/1/3 240/1/3
f 243/3/3 239/3/3 238/3/3
f 243/3/3 240/3/3 239/3/3
f 244/3/3 240/3/3 243/3/3
f 245/3/3 240/3/3 244/3/3
f 246/3/3 243/3/3 242/3/3
f 246/3/3 244/3/3 243/3/3
f 247/3/3 244/3/3 246/3/3
f 248/3/3 244/3/3 247/3/3
f 249/3/3 244/3/3 248/3/3
f 253/3/3 251/3/3 250/3/3
f 254/3/3 251/3/3 253/3/3
f 255/3/3 251/3/3 254/3/3
f 256/3/3 253/3/3 252/3/3
f 256/3/3 254/3/3 253/3/3
f 258/3/3 256/3/3 252/3/3
f 258/3/3 257/3/3 256/3/3
f 259/3/3 257/3/3 258/3/3
f 263/3/3 258/3/3 252/3/3
f 265/3/3 262/3/3 261/3/3
f 265/3/3 261/3/3 260/3/3
f 266/3/3 262/3/3 265/3/3
f 267/3/3 264/3/3 263/3/3
f 267/3/3 263/3/3 252/3/3
f 268/3/3 264/3/3 267/3/3
f 269/3/3 264/3/3 268/3/3
f 270/3/3 265/3/3 260/3/3
f 271/1/3 266/1/3 265/1/3
f 271/3/3 265/3/3 270/3/3
f 273/3/3 270/3/3 269/3/3
f 273/3/3 269/3/3 268/3/3
f 274/3/3 270/3/3 273/3/3
f 275/1/3 271/1/3 270/1/3
f 275/3/3 270/3/3 274/3/3
f 276/1/3 266/1/3 271/1/3
f 276/1/3 271/1/3 275/1/3
f 277/1/3 274/1/3 273/1/3
f 277/1/3 273/1/3 272/1/3
f 278/1/3 274/1/3 277/1/3
f 282/1/3 280/1/3 279/1/3
f 283/1/3 280/1/3 282/1/3
f 284/3/3 281/3/3 280/3/3
f 284/1/3 280/1/3 283/1/3
f 285/3/3 281/3/3 284/3/3
f 287/3/3 283/3/3 282/3/3
f 288/3/3 283/3/3 287/3/3
f 289/3/3 286/3/3 285/3/3
f 290/3/3 286/3/3 289/3/3
f 294/3/3 292/3/3 291/3/3
f 294/3/3 293/3/3 292/3/3
f 295/3/3 293/3/3 294/3/3
f 296/3/3 293/3/3 295/3/3
f 297/3/3 293/3/3 296/3/3
f 300/3/3 299/3/3 298/3/3
f 301/3/3 299/3/3 300/3/3
f 302/3/3 299/3/3 301/3/3
f 305/3/3 304/3/3 303/3/3
f 306/3/3 304/3/3 305/3/3
f 308/3/3 307/3/3 306/3/3
f 309/3/3 307/3/3 308/3/3
f 312/3/3 311/3/3 310/3/3
f 313/3/3 311/3/3 312/3/3
f 316/3/3 315/3/3 314/3/3
f 317/3/3 315/3/3 316/3/3
f 321/3/3 319/3/3 318/3/3
f 322/1/3 320/1/3 319/1/3
f 322/3/3 319/3/3 321/3/3
f 323/1/3 320/1/3 322/1/3
f 324/3/3 323/3/3 322/3/3
f 325/3/3 323/3/3 324/3/3
f 327/3/3 326/3/3 325/3/3
f 328/3/3 326/3/3 327/3/3
f 332/3/3 330/3/3 329/3/3
f 333/3/3 330/3/3 332/3/3
f 334/3/3 332/3/3 331/3/3
f 335/3/3 332/3/3 334/3/3
f 338/3/3 337/3/3 336/3/3
f 339/3/3 337/3/3 338/3/3
f 342/3/3 341/3/3 340/3/3
f 343/3/3 341/3/3 342/3/3
f 344/3/4 345/3/4 347/3/4
f 345/1/4 346/1/4 348/1/4
f 347/3/4 345/3/4 348/3/4
f 348/1/4 346/1/4 349/1/4
f 350/3/4 351/3/4 352/3/4
f 352/3/4 351/3/4 353/3/4
f 354/1/4 355/1/4 356/1/4
f 356/1/4 355/1/4 357/1/4
f 358/1/4 359/1/4 362/1/4
f 362/1/4 359/1/4 363/1/4
f 360/3/4 361/3/4 364/3/4
f 364/3/4 361/3/4 365/3/4
f 366/3/4 367/3/4 368/3/4
f 368/3/4 367/3/4 369/3/4
f 370/3/4 371/3/4 372/3/4
f 372/3/4 371/3/4 373/3/4
f 374/3/4 375/3/4 379/3/4
f 379/3/4 375/3/4 380/3/4
f 376/3/4 377/3/4 381/3/4
f 381/3/4 377/3/4 382/3/4
f 378/3/4 379/3/4 383/3/4
f 383/3/4 379/3/4 384/3/4
f 385/3/4 386/3/4 388/3/4
f 388/3/4 386/3/4 389/3/4
f 386/1/4 387/1/4 390/1/4
f 389/3/4 386/3/4 390/3/4
f 390/1/4 387/1/4 391/1/4
f 389/3/4 390/3/4 392/3/4
f 392/3/4 390/3/4 393/3/4
f 391/1/4 387/1/4 394/1/4
f 394/1/4 387/1/4 395/1/4
f 394/3/4 395/3/4 396/3/4
f 396/3/4 395/3/4 397/3/4
f 397/3/4 398/3/4 400/3/4
f 400/3/4 398/3/4 401/3/4
f 399/3/4 400/3/4 405/3/4
f 400/1/4 401/1/4 406/1/4
f 405/3/4 400/3/4 406/3/4
f 406/1/4 401/1/4 407/1/4
f 402/3/4 403/3/4 408/3/4
f 408/3/4 403/3/4 409/3/4
f 404/3/4 405/3/4 410/3/4
f 410/3/4 405/3/4 411/3/4
f 412/3/4 413/3/4 416/3/4
f 416/3/4 413/3/4 417/3/4
f 414/3/4 415/3/4 418/3/4
f 418/3/4 415/3/4 421/3/4
f 421/3/4 415/3/4 422/3/4
f 422/3/4 423/3/4 424/3/4
f 424/3/4 423/3/4 425/3/4
f 419/3/4 420/3/4 426/3/4
f 419/3/4 426/3/4 430/3/4
f 426/3/4 427/3/4 430/3/4
f 430/3/4 427/3/4 431/3/4
f 431/3/4 427/3/4 432/3/4
f 428/3/4 429/3/4 433/3/4
f 433/3/4 429/3/4 434/3/4
f 431/3/4 432/3/4 435/3/4
f 432/3/4 433/3/4 435/3/4
f 435/3/4 433/3/4 436/3/4
f 436/3/4 433/3/4 437/3/4
f 436/1/4 437/1/4 438/1/4
f 438/1/4 437/1/4 439/1/4
f 440/1/4 441/1/4 442/1/4
f 440/1/4 442/1/4 444/1/4
f 444/1/4 442/1/4 445/1/4
f 442/3/4 443/3/4 446/3/4
f 445/1/4 442/1/4 446/1/4
f 446/3/4 443/3/4 447/3/4
f 447/3/4 448/3/4 449/3/4
f 446/3/4 447/3/4 449/3/4
f 445/3/4 446/3/4 449/3/4
f 449/3/4 448/3/4 450/3/4
f 445/3/4 449/3/4 451/3/4
f 451/3/4 449/3/4 452/3/4
f 449/1/4 450/1/4 453/1/4
f 452/3/4 449/3/4 453/3/4
f 453/1/4 450/1/4 454/1/4
f 454/1/4 450/1/4 455/1/4
f 452/3/4 453/3/4 456/3/4
f 453/3/4 454/3/4 456/3/4
f 456/3/4 454/3/4 457/3/4
f 462/3/5 459/3/5 458/3/5
f 463/3/5 459/3/5 462/3/5
f 465/1/5 461/1/5 460/1/5
f 466/3/5 464/3/5 463/3/5
f 466/1/5 461/1/5 465/1/5
f 466/3/5 462/3/5 461/3/5
f 466/3/5 463/3/5 462/3/5
f 467/3/5 464/3/5 466/3/5
f 468/3/5 464/3/5 467/3/5
f 469/3/5 467/3/5 466/3/5
f 469/2/5 468/2/5 467/2/5
f 470/3/5 464/3/5 468/3/5
f 470/2/5 468/2/5 469/2/5
f 471/3/5 469/3/5 466/3/5
f 471/3/5 470/3/5 469/3/5
f 472/3/5 470/3/5 471/3/5
f 473/3/5 464/3/5 470/3/5
f 473/3/5 470/3/5 472/3/5
f 474/3/5 464/3/5 473/3/5
f 475/1/5 472/1/5 471/1/5
f 475/3/5 473/3/5 472/3/5
f 476/3/5 473/3/5 475/3/5
f 477/3/5 473/3/5 476/3/5
f 478/1/5 475/1/5 471/1/5
f 478/1/5 476/1/5 475/1/5
f 479/1/5 476/1/5 478/1/5
f 484/3/5 481/3/5 480/3/5
f 485/3/5 481/3/5 484/3/5
f 488/3/5 483/3/5 482/3/5
f 489/3/5 483/3/5 488/3/5
f 490/1/5 487/1/5 486/1/5
f 491/1/5 487/1/5 490/1/5
f 492/1/5 487/1/5 491/1/5
f 495/3/5 494/3/5 493/3/5
f 496/3/5 494/3/5 495/3/5
f 497/3/5 492/3/5 491/3/5
f 498/3/5 492/3/5 497/3/5
f 503/3/5 500/3/5 499/3/5
f 504/3/5 500/3/5 503/3/5
f 505/3/5 502/3/5 501/3/5
f 506/3/5 502/3/5 505/3/5
f 509/3/5 508/3/5 507/3/5
f 510/3/5 508/3/5 509/3/5
f 513/3/5 512/3/5 511/3/5
f 514/3/5 512/3/5 513/3/5
f 519/3/5 516/3/5 515/3/5
f 520/3/5 516/3/5 519/3/5
f 521/3/5 518/3/5 517/3/5
f 522/3/5 518/3/5 521/3/5
f 525/1/5 522/1/5 521/1/5
f 526/1/5 522/1/5 525/1/5
f 527/3/5 524/3/5 523/3/5
f 528/3/5 524/3/5 527/3/5
f 533/3/5 530/3/5 529/3/5
f 534/3/5 530/3/5 533/3/5
f 535/3/5 532/3/5 531/3/5
f 536/3/5 532/3/5 535/3/5
f 539/1/5 538/1/5 537/1/5
f 540/1/5 538/1/5 539/1/5
f 541/3/5 540/3/5 539/3/5
f 542/3/5 540/3/5 541/3/5
f 545/3/5 544/3/5 543/3/5
f 546/3/5 544/3/5 545/3/5
f 549/3/5 548/3/5 547/3/5
f 550/3/5 548/3/5 549/3/5
f 551/1/6 552/1/6 553/1/6
f 553/1/6 552/1/6 554/1/6
f 555/3/6 556/3/6 560/3/6
f 560/3/6 556/3/6 561/3/6
f 557/1/6 558/1/6 562/1/6
f 562/1/6 558/1/6 563/1/6
f 559/3/6 560/3/6 564/3/6
f 564/3/6 560/3/6 565/3/6
f 562/3/6 563/3/6 566/3/6
f 566/3/6 563/3/6 567/3/6
f 568/3/6 569/3/6 570/3/6
f 570/3/6 569/3/6 571/3/6
f 572/3/6 573/3/6 574/3/6
f 574/3/6 573/3/6 575/3/6
f 576/3/6 577/3/6 578/3/6
f 578/3/6 577/3/6 579/3/6
f 580/3/6 581/3/6 583/3/6
f 583/3/6 581/3/6 584/3/6
f 582/3/6 583/3/6 587/3/6
f 587/3/6 583/3/6 588/3/6
f 585/3/6 586/3/6 589/3/6
f 589/3/6 586/3/6 590/3/6
f 591/1/6 592/1/6 594/1/6
f 593/3/6 594/3/6 598/3/6
f 594/1/6 592/1/6 599/1/6
f 598/3/6 594/3/6 599/3/6
f 599/1/6 592/1/6 600/1/6
f 595/3/6 596/3/6 601/3/6
f 601/3/6 596/3/6 602/3/6
f 597/3/6 598/3/6 603/3/6
f 603/3/6 598/3/6 604/3/6
f 605/3/6 606/3/6 607/3/6
f 607/3/6 606/3/6 608/3/6
f 607/3/6 608/3/6 609/3/6
f 609/3/6 608/3/6 610/3/6
f 611/3/6 612/3/6 615/3/6
f 615/3/6 612/3/6 616/3/6
f 613/3/6 614/3/6 617/3/6
f 617/3/6 614/3/6 618/3/6
f 618/3/6 619/3/6 621/3/6
f 621/3/6 619/3/6 622/3/6
f 620/3/6 621/3/6 627/3/6
f 627/3/6 621/3/6 628/3/6
f 624/3/6 625/3/6 629/3/6
f 623/3/6 624/3/6 629/3/6
f 629/3/6 625/3/6 630/3/6
f 626/3/6 627/3/6 631/3/6
f 631/3/6 627/3/6 632/3/6
f 632/3/6 627/3/6 633/3/6
f 630/3/6 631/3/6 634/3/6
f 631/1/6 632/1/6 635/1/6
f 634/3/6 631/3/6 635/3/6
f 635/1/6 632/1/6 636/1/6
f 637/1/6 638/1/6 639/1/6
f 639/1/6 638/1/6 640/1/6
f 637/1/6 639/1/6 644/1/6
f 639/3/6 640/3/6 645/3/6
f 644/1/6 639/1/6 645/1/6
f 645/3/6 640/3/6 646/3/6
f 641/3/6 642/3/6 647/3/6
f 642/1/6 643/1/6 648/1/6
f 647/3/6 642/3/6 648/3/6
f 648/1/6 643/1/6 649/1/6
f 645/3/6 646/3/6 650/3/6
f 648/3/6 649/3/6 652/3/6
f 649/1/6 643/1/6 653/1/6
f 652/3/6 649/3/6 653/3/6
f 653/1/6 643/1/6 654/1/6
f 650/3/6 651/3/6 657/3/6
f 645/3/6 650/3/6 657/3/6
f 657/3/6 651/3/6 658/3/6
f 655/1/6 656/1/6 661/1/6
f 656/3/6 657/3/6 661/3/6
f 661/3/6 657/3/6 662/3/6
f 658/3/6 651/3/6 663/3/6
f 663/3/6 651/3/6 664/3/6
f 659/3/6 660/3/6 665/3/6
f 665/3/6 660/3/6 666/3/6
f 661/1/6 662/1/6 667/1/6
f 655/1/6 661/1/6 667/1/6
f 662/3/6 663/3/6 668/3/6
f 667/1/6 662/1/6 668/1/6
f 668/3/6 663/3/6 669/3/6
f 669/3/6 670/3/6 671/3/6
f 671/3/6 670/3/6 672/3/6
f 673/3/6 674/3/6 675/3/6
f 675/3/6 674/3/6 676/3/6
f 676/3/6 674/3/6 677/3/6
f 677/3/6 678/3/6 681/3/6
f 676/3/6 677/3/6 681/3/6
f 681/3/6 678/3/6 682/3/6
f 679/3/6 680/3/6 683/3/6
f 683/3/6 680/3/6 684/3/6
f 676/3/6 681/3/6 685/3/6
f 681/1/6 682/1/6 686/1/6
f 685/3/6 681/3/6 686/3/6
f 684/3/6 685/3/6 687/3/6
f 685/1/6 686/1/6 688/1/6
f 687/3/6 685/3/6 688/3/6
f 686/1/6 682/1/6 689/1/6
f 688/1/6 686/1/6 689/1/6
