# MagicaVoxel @ Ephtracy

# group
o 

# material
mtllib Bush2.mtl
usemtl palette

# normals
vn -1 0 0
vn 1 0 0
vn 0 0 1
vn 0 0 -1
vn 0 -1 0
vn 0 1 0

# texcoords
vt 0.537109 0.5
vt 0.794922 0.5
vt 0.861328 0.5

# verts
v -0.4 0 0.2
v -0.4 0 0
v -0.4 0.1 0
v -0.4 0.1 -0.1
v -0.4 0.2 0.2
v -0.4 0.2 0
v -0.4 0.2 -0.1
v -0.4 0.2 -0.2
v -0.4 0.3 0.2
v -0.4 0.3 0.1
v -0.4 0.3 0
v -0.4 0.3 -0.1
v -0.4 0.4 0.1
v -0.4 0.4 0
v -0.4 0.4 -0.1
v -0.4 0.4 -0.2
v -0.4 0.5 0
v -0.4 0.5 -0.1
v -0.4 0.6 0
v -0.4 0.6 -0.2
v -0.3 0 0
v -0.3 0 -0.2
v -0.3 0 -0.4
v -0.3 0.1 0.3
v -0.3 0.1 0.2
v -0.3 0.1 0
v -0.3 0.1 -0.1
v -0.3 0.1 -0.2
v -0.3 0.1 -0.3
v -0.3 0.2 0.2
v -0.3 0.2 -0.1
v -0.3 0.2 -0.2
v -0.3 0.2 -0.3
v -0.3 0.2 -0.4
v -0.3 0.3 0.3
v -0.3 0.3 0.2
v -0.3 0.3 0.1
v -0.3 0.3 0
v -0.3 0.3 -0.1
v -0.3 0.3 -0.2
v -0.3 0.3 -0.3
v -0.3 0.4 0.4
v -0.3 0.4 0.3
v -0.3 0.4 0.2
v -0.3 0.4 0.1
v -0.3 0.4 0
v -0.3 0.4 -0.1
v -0.3 0.4 -0.2
v -0.3 0.4 -0.3
v -0.3 0.5 0.3
v -0.3 0.5 0.2
v -0.3 0.5 0.1
v -0.3 0.5 0
v -0.3 0.5 -0.2
v -0.3 0.5 -0.3
v -0.3 0.6 0.4
v -0.3 0.6 0.2
v -0.2 0 0.3
v -0.2 0 0.2
v -0.2 0.1 0.3
v -0.2 0.1 0.2
v -0.2 0.2 0.4
v -0.2 0.2 0.3
v -0.2 0.2 -0.3
v -0.2 0.2 -0.4
v -0.2 0.3 0.3
v -0.2 0.3 0.2
v -0.2 0.3 -0.2
v -0.2 0.3 -0.3
v -0.2 0.4 0.4
v -0.2 0.4 0.3
v -0.2 0.4 0.2
v -0.2 0.4 0.1
v -0.2 0.4 -0.2
v -0.2 0.4 -0.3
v -0.2 0.4 -0.4
v -0.2 0.5 0.2
v -0.2 0.5 0.1
v -0.2 0.5 0
v -0.2 0.6 0.2
v -0.2 0.6 0
v -0.2 0.6 -0.1
v -0.2 0.7 0
v -0.2 0.7 -0.1
v -0.1 0.4 -0.3
v -0.1 0.4 -0.4
v -0.1 0.5 -0.2
v -0.1 0.5 -0.3
v -0.1 0.5 -0.4
v -0.1 0.6 0.2
v -0.1 0.6 0.1
v -0.1 0.6 -0.1
v -0.1 0.6 -0.2
v -0.1 0.6 -0.3
v -0.1 0.7 0.2
v -0.1 0.7 0.1
v -0.1 0.7 -0.1
v -0.1 0.7 -0.2
v 0 0.1 0.4
v 0 0.1 0.3
v 0 0.3 0.4
v 0 0.3 0.3
v 0 0.5 0.3
v 0 0.5 0.2
v 0 0.6 0.3
v 0 0.6 0.2
v 0 0.6 0.1
v 0 0.6 -0.1
v 0 0.7 0.1
v 0 0.7 -0.1
v 0.3 0.1 0.3
v 0.3 0.1 0.2
v 0.3 0.2 0.3
v 0.3 0.2 0.2
v -0.1 0 -0.3
v -0.1 0 -0.4
v -0.1 0.1 -0.3
v -0.1 0.1 -0.4
v -0.1 0.2 0.4
v -0.1 0.2 0.3
v -0.1 0.3 0.4
v -0.1 0.3 0.3
v -0.1 0.5 0.4
v -0.1 0.5 0.3
v -0.1 0.5 0.2
v -0.1 0.6 0.4
v -0.1 0.6 0.3
v -0.1 0.6 0.2
v -0.1 0.6 0
v -0.1 0.6 -0.1
v -0.1 0.7 0
v -0.1 0.7 -0.1
v 0 0.4 0.4
v 0 0.4 0.3
v 0 0.5 0.4
v 0 0.5 0.3
v 0 0.5 -0.2
v 0 0.5 -0.3
v 0 0.6 -0.2
v 0 0.6 -0.3
v 0.1 0.1 0.4
v 0.1 0.1 0.3
v 0.1 0.1 -0.3
v 0.1 0.1 -0.4
v 0.1 0.2 -0.3
v 0.1 0.2 -0.4
v 0.1 0.3 0.4
v 0.1 0.3 0.3
v 0.1 0.4 -0.3
v 0.1 0.4 -0.4
v 0.1 0.5 -0.3
v 0.1 0.5 -0.4
v 0.1 0.6 0.2
v 0.1 0.6 0.1
v 0.1 0.7 0.2
v 0.1 0.7 0.1
v 0.2 0 0.3
v 0.2 0 0.2
v 0.2 0 -0.2
v 0.2 0 -0.3
v 0.2 0.1 -0.2
v 0.2 0.1 -0.3
v 0.2 0.2 0.3
v 0.2 0.2 0.2
v 0.2 0.2 -0.3
v 0.2 0.2 -0.4
v 0.2 0.3 0.4
v 0.2 0.3 0.3
v 0.2 0.4 0.4
v 0.2 0.4 0.3
v 0.2 0.4 -0.2
v 0.2 0.4 -0.3
v 0.2 0.4 -0.4
v 0.2 0.5 0.1
v 0.2 0.5 0
v 0.2 0.5 -0.1
v 0.2 0.5 -0.2
v 0.2 0.5 -0.3
v 0.2 0.6 0.1
v 0.2 0.6 0
v 0.2 0.6 -0.1
v 0.2 0.6 -0.2
v 0.2 0.7 0.1
v 0.2 0.7 0
v 0.2 0.7 -0.2
v 0.3 0 0.2
v 0.3 0 -0.2
v 0.3 0.1 0.2
v 0.3 0.1 0.1
v 0.3 0.1 -0.1
v 0.3 0.1 -0.2
v 0.3 0.1 -0.3
v 0.3 0.2 -0.1
v 0.3 0.2 -0.2
v 0.3 0.2 -0.3
v 0.3 0.3 0.3
v 0.3 0.3 0.2
v 0.3 0.3 0.1
v 0.3 0.4 0.3
v 0.3 0.4 0.2
v 0.3 0.4 0.1
v 0.3 0.4 0
v 0.3 0.4 -0.1
v 0.3 0.4 -0.2
v 0.3 0.5 0.2
v 0.3 0.5 0.1
v 0.3 0.5 0
v 0.3 0.5 -0.1
v 0.3 0.5 -0.2
v 0.3 0.6 0.3
v 0.3 0.6 0.1
v 0.3 0.6 0
v 0.3 0.6 -0.1
v 0.4 0.1 0.3
v 0.4 0.1 0.1
v 0.4 0.1 -0.1
v 0.4 0.2 0.2
v 0.4 0.2 0.1
v 0.4 0.2 -0.1
v 0.4 0.2 -0.2
v 0.4 0.2 -0.3
v 0.4 0.3 0.3
v 0.4 0.3 0.2
v 0.4 0.3 0.1
v 0.4 0.3 -0.1
v 0.4 0.3 -0.2
v 0.4 0.4 0.1
v 0.4 0.4 0
v 0.4 0.4 -0.1
v 0.4 0.4 -0.3
v 0.4 0.5 0
v 0.4 0.5 -0.1
v -0.3 0.4 0.4
v -0.3 0.6 0.4
v -0.2 0.2 0.4
v -0.2 0.4 0.4
v -0.1 0.2 0.4
v -0.1 0.3 0.4
v -0.1 0.4 0.4
v -0.1 0.5 0.4
v -0.1 0.6 0.4
v 0 0.1 0.4
v 0 0.3 0.4
v 0 0.4 0.4
v 0 0.5 0.4
v 0.1 0.1 0.4
v 0.1 0.3 0.4
v 0.2 0.3 0.4
v 0.2 0.4 0.4
v -0.3 0.1 0.3
v -0.3 0.3 0.3
v -0.2 0 0.3
v -0.2 0.1 0.3
v -0.2 0.2 0.3
v -0.2 0.3 0.3
v -0.1 0.2 0.3
v -0.1 0.3 0.3
v 0 0.1 0.3
v 0 0.3 0.3
v 0 0.4 0.3
v 0 0.5 0.3
v 0 0.6 0.3
v 0.1 0.1 0.3
v 0.1 0.3 0.3
v 0.1 0.5 0.3
v 0.1 0.6 0.3
v 0.2 0 0.3
v 0.2 0.2 0.3
v 0.2 0.3 0.3
v 0.2 0.4 0.3
v 0.2 0.5 0.3
v 0.3 0.1 0.3
v 0.3 0.2 0.3
v 0.3 0.3 0.3
v 0.3 0.4 0.3
v 0.3 0.6 0.3
v 0.4 0.1 0.3
v 0.4 0.3 0.3
v -0.4 0 0.2
v -0.4 0.2 0.2
v -0.4 0.3 0.2
v -0.3 0 0.2
v -0.3 0.1 0.2
v -0.3 0.2 0.2
v -0.3 0.3 0.2
v -0.3 0.4 0.2
v -0.2 0 0.2
v -0.2 0.1 0.2
v -0.2 0.3 0.2
v -0.2 0.4 0.2
v -0.1 0.5 0.2
v -0.1 0.6 0.2
v -0.1 0.7 0.2
v 0 0.5 0.2
v 0 0.6 0.2
v 0.1 0.6 0.2
v 0.1 0.7 0.2
v 0.2 0 0.2
v 0.2 0.2 0.2
v 0.3 0 0.2
v 0.3 0.1 0.2
v 0.3 0.2 0.2
v -0.4 0.3 0.1
v -0.4 0.4 0.1
v -0.3 0.3 0.1
v -0.3 0.4 0.1
v -0.3 0.5 0.1
v -0.2 0.4 0.1
v -0.2 0.5 0.1
v 0.1 0.6 0.1
v 0.1 0.7 0.1
v 0.2 0.6 0.1
v 0.2 0.7 0.1
v 0.3 0.3 0.1
v 0.3 0.4 0.1
v 0.4 0.3 0.1
v 0.4 0.4 0.1
v -0.4 0.4 0
v -0.4 0.5 0
v -0.4 0.6 0
v -0.3 0.4 0
v -0.3 0.5 0
v -0.3 0.6 0
v -0.2 0.5 0
v -0.2 0.6 0
v -0.2 0.7 0
v -0.1 0.6 0
v -0.1 0.7 0
v 0.2 0.5 0
v 0.2 0.6 0
v 0.3 0.4 0
v 0.3 0.5 0
v 0.3 0.6 0
v 0.4 0.4 0
v 0.4 0.5 0
v -0.4 0.3 -0.1
v -0.4 0.4 -0.1
v -0.3 0.3 -0.1
v -0.3 0.4 -0.1
v -0.1 0.6 -0.1
v -0.1 0.7 -0.1
v 0 0.6 -0.1
v 0 0.7 -0.1
v -0.3 0.4 0.2
v -0.3 0.5 0.2
v -0.3 0.6 0.2
v -0.2 0.4 0.2
v -0.2 0.5 0.2
v -0.2 0.6 0.2
v -0.1 0.6 0.1
v -0.1 0.7 0.1
v 0 0.6 0.1
v 0 0.7 0.1
v 0.2 0.5 0.1
v 0.2 0.6 0.1
v 0.3 0.5 0.1
v 0.3 0.6 0.1
v -0.4 0 0
v -0.4 0.1 0
v -0.4 0.3 0
v -0.4 0.4 0
v -0.3 0 0
v -0.3 0.1 0
v -0.3 0.3 0
v -0.3 0.4 0
v -0.4 0.1 -0.1
v -0.4 0.2 -0.1
v -0.3 0.1 -0.1
v -0.3 0.2 -0.1
v -0.2 0.6 -0.1
v -0.2 0.7 -0.1
v -0.1 0.6 -0.1
v -0.1 0.7 -0.1
v 0.2 0.5 -0.1
v 0.2 0.6 -0.1
v 0.3 0.1 -0.1
v 0.3 0.2 -0.1
v 0.3 0.4 -0.1
v 0.3 0.5 -0.1
v 0.3 0.6 -0.1
v 0.4 0.1 -0.1
v 0.4 0.2 -0.1
v 0.4 0.4 -0.1
v 0.4 0.5 -0.1
v -0.4 0.2 -0.2
v -0.4 0.4 -0.2
v -0.4 0.6 -0.2
v -0.3 0.2 -0.2
v -0.3 0.3 -0.2
v -0.3 0.4 -0.2
v -0.3 0.5 -0.2
v -0.2 0.3 -0.2
v -0.2 0.4 -0.2
v -0.2 0.5 -0.2
v -0.2 0.6 -0.2
v -0.1 0.5 -0.2
v -0.1 0.6 -0.2
v -0.1 0.7 -0.2
v 0 0.5 -0.2
v 0 0.6 -0.2
v 0 0.7 -0.2
v 0.2 0 -0.2
v 0.2 0.1 -0.2
v 0.2 0.4 -0.2
v 0.2 0.5 -0.2
v 0.2 0.6 -0.2
v 0.2 0.7 -0.2
v 0.3 0 -0.2
v 0.3 0.1 -0.2
v 0.3 0.4 -0.2
v 0.3 0.5 -0.2
v -0.3 0.2 -0.3
v -0.3 0.3 -0.3
v -0.3 0.4 -0.3
v -0.3 0.5 -0.3
v -0.2 0.2 -0.3
v -0.2 0.3 -0.3
v -0.2 0.4 -0.3
v -0.1 0 -0.3
v -0.1 0.1 -0.3
v -0.1 0.4 -0.3
v -0.1 0.5 -0.3
v -0.1 0.6 -0.3
v 0 0.5 -0.3
v 0 0.6 -0.3
v 0.1 0.1 -0.3
v 0.1 0.2 -0.3
v 0.1 0.4 -0.3
v 0.1 0.5 -0.3
v 0.2 0 -0.3
v 0.2 0.1 -0.3
v 0.2 0.2 -0.3
v 0.2 0.4 -0.3
v 0.2 0.5 -0.3
v 0.3 0.1 -0.3
v 0.3 0.2 -0.3
v 0.3 0.4 -0.3
v 0.4 0.2 -0.3
v 0.4 0.4 -0.3
v -0.3 0 -0.4
v -0.3 0.2 -0.4
v -0.2 0.2 -0.4
v -0.2 0.4 -0.4
v -0.1 0 -0.4
v -0.1 0.1 -0.4
v -0.1 0.2 -0.4
v -0.1 0.4 -0.4
v -0.1 0.5 -0.4
v 0 0.3 -0.4
v 0 0.5 -0.4
v 0.1 0.1 -0.4
v 0.1 0.2 -0.4
v 0.1 0.3 -0.4
v 0.1 0.4 -0.4
v 0.1 0.5 -0.4
v 0.2 0.2 -0.4
v 0.2 0.4 -0.4
v -0.2 0 0.3
v 0.2 0 0.3
v -0.4 0 0.2
v -0.3 0 0.2
v -0.2 0 0.2
v 0.2 0 0.2
v 0.3 0 0.2
v -0.4 0 0
v -0.3 0 0
v 0 0 0
v 0.1 0 0
v 0 0 -0.1
v 0.1 0 -0.1
v -0.3 0 -0.2
v -0.2 0 -0.2
v 0.2 0 -0.2
v 0.3 0 -0.2
v -0.2 0 -0.3
v -0.1 0 -0.3
v 0.2 0 -0.3
v -0.3 0 -0.4
v -0.1 0 -0.4
v 0 0.1 0.4
v 0.1 0.1 0.4
v -0.3 0.1 0.3
v -0.2 0.1 0.3
v 0 0.1 0.3
v 0.1 0.1 0.3
v 0.3 0.1 0.3
v 0.4 0.1 0.3
v -0.3 0.1 0.2
v -0.2 0.1 0.2
v 0.3 0.1 0.2
v 0.3 0.1 0.1
v 0.4 0.1 0.1
v -0.4 0.1 0
v -0.3 0.1 0
v -0.4 0.1 -0.1
v -0.3 0.1 -0.1
v 0.3 0.1 -0.1
v 0.4 0.1 -0.1
v 0.2 0.1 -0.2
v 0.3 0.1 -0.2
v -0.1 0.1 -0.3
v 0.1 0.1 -0.3
v 0.2 0.1 -0.3
v 0.3 0.1 -0.3
v -0.1 0.1 -0.4
v 0.1 0.1 -0.4
v -0.2 0.2 0.4
v -0.1 0.2 0.4
v -0.2 0.2 0.3
v -0.1 0.2 0.3
v 0.2 0.2 0.3
v 0.3 0.2 0.3
v 0.2 0.2 0.2
v 0.3 0.2 0.2
v -0.4 0.2 -0.1
v -0.3 0.2 -0.1
v 0.3 0.2 -0.1
v 0.4 0.2 -0.1
v -0.4 0.2 -0.2
v -0.3 0.2 -0.2
v 0.3 0.2 -0.2
v 0.4 0.2 -0.2
v 0.1 0.2 -0.3
v 0.2 0.2 -0.3
v 0.3 0.2 -0.3
v 0.4 0.2 -0.3
v 0.1 0.2 -0.4
v 0.2 0.2 -0.4
v -0.1 0.3 0.4
v 0 0.3 0.4
v 0.1 0.3 0.4
v 0.2 0.3 0.4
v -0.1 0.3 0.3
v 0 0.3 0.3
v 0.1 0.3 0.3
v 0.2 0.3 0.3
v -0.3 0.4 0.4
v -0.2 0.4 0.4
v -0.3 0.4 0.3
v -0.2 0.4 0.3
v -0.3 0.4 0.2
v -0.2 0.4 0.2
v -0.4 0.4 0
v -0.3 0.4 0
v -0.4 0.4 -0.1
v -0.3 0.4 -0.1
v -0.3 0.4 -0.2
v -0.2 0.4 -0.2
v -0.3 0.4 -0.3
v -0.2 0.4 -0.3
v -0.3 0.2 -0.3
v -0.2 0.2 -0.3
v -0.3 0.2 -0.4
v -0.2 0.2 -0.4
v -0.3 0.3 0.3
v -0.2 0.3 0.3
v 0.3 0.3 0.3
v 0.4 0.3 0.3
v -0.4 0.3 0.2
v -0.3 0.3 0.2
v -0.2 0.3 0.2
v 0.3 0.3 0.2
v 0.4 0.3 0.2
v -0.4 0.3 0.1
v -0.3 0.3 0.1
v 0.3 0.3 0.1
v 0.4 0.3 0.1
v -0.4 0.3 0
v -0.3 0.3 0
v -0.4 0.3 -0.1
v -0.3 0.3 -0.1
v -0.3 0.3 -0.2
v -0.2 0.3 -0.2
v -0.3 0.3 -0.3
v -0.2 0.3 -0.3
v 0 0.4 0.4
v 0.2 0.4 0.4
v 0 0.4 0.3
v 0.2 0.4 0.3
v -0.3 0.4 0.2
v -0.2 0.4 0.2
v -0.4 0.4 0.1
v -0.3 0.4 0.1
v -0.2 0.4 0.1
v 0.3 0.4 0.1
v 0.4 0.4 0.1
v -0.4 0.4 0
v -0.3 0.4 0
v 0.3 0.4 0
v 0.4 0.4 0
v 0.3 0.4 -0.1
v 0.4 0.4 -0.1
v 0.2 0.4 -0.2
v 0.3 0.4 -0.2
v -0.2 0.4 -0.3
v -0.1 0.4 -0.3
v 0.1 0.4 -0.3
v 0.2 0.4 -0.3
v 0.3 0.4 -0.3
v 0.4 0.4 -0.3
v -0.2 0.4 -0.4
v -0.1 0.4 -0.4
v 0.1 0.4 -0.4
v 0.2 0.4 -0.4
v -0.1 0.5 0.4
v 0 0.5 0.4
v -0.1 0.5 0.3
v 0 0.5 0.3
v -0.1 0.5 0.2
v 0 0.5 0.2
v -0.3 0.5 0.1
v -0.2 0.5 0.1
v 0.2 0.5 0.1
v 0.3 0.5 0.1
v -0.3 0.5 0
v -0.2 0.5 0
v 0.2 0.5 0
v 0.3 0.5 0
v 0.4 0.5 0
v 0.2 0.5 -0.1
v 0.3 0.5 -0.1
v 0.4 0.5 -0.1
v -0.3 0.5 -0.2
v -0.2 0.5 -0.2
v -0.1 0.5 -0.2
v 0 0.5 -0.2
v 0.2 0.5 -0.2
v 0.3 0.5 -0.2
v -0.3 0.5 -0.3
v -0.1 0.5 -0.3
v 0 0.5 -0.3
v 0.1 0.5 -0.3
v 0.2 0.5 -0.3
v -0.1 0.5 -0.4
v 0 0.5 -0.4
v 0.1 0.5 -0.4
v -0.3 0.6 0.4
v -0.1 0.6 0.4
v -0.2 0.6 0.3
v -0.1 0.6 0.3
v 0 0.6 0.3
v 0.1 0.6 0.3
v 0.3 0.6 0.3
v -0.3 0.6 0.2
v -0.2 0.6 0.2
v -0.1 0.6 0.2
v 0 0.6 0.2
v 0.1 0.6 0.2
v 0.2 0.6 0.2
v -0.1 0.6 0.1
v 0 0.6 0.1
v 0.1 0.6 0.1
v 0.2 0.6 0.1
v 0.3 0.6 0.1
v -0.4 0.6 0
v -0.3 0.6 0
v -0.2 0.6 0
v -0.1 0.6 0
v 0.2 0.6 0
v 0.3 0.6 0
v -0.3 0.6 -0.1
v -0.2 0.6 -0.1
v -0.1 0.6 -0.1
v 0 0.6 -0.1
v 0.2 0.6 -0.1
v 0.3 0.6 -0.1
v -0.4 0.6 -0.2
v -0.2 0.6 -0.2
v -0.1 0.6 -0.2
v 0 0.6 -0.2
v -0.1 0.6 -0.3
v 0 0.6 -0.3
v -0.1 0.7 0.2
v 0.1 0.7 0.2
v -0.1 0.7 0.1
v 0 0.7 0.1
v 0.1 0.7 0.1
v 0.2 0.7 0.1
v -0.2 0.7 0
v -0.1 0.7 0
v 0.1 0.7 0
v 0.2 0.7 0
v -0.2 0.7 -0.1
v -0.1 0.7 -0.1
v 0 0.7 -0.1
v 0.1 0.7 -0.1
v -0.1 0.7 -0.2
v 0 0.7 -0.2
v 0.2 0.7 -0.2

# faces
f 3/3/1 2/3/1 1/3/1
f 5/3/1 3/3/1 1/3/1
f 6/2/1 4/2/1 3/2/1
f 6/3/1 3/3/1 5/3/1
f 7/2/1 4/2/1 6/2/1
f 9/2/1 6/2/1 5/2/1
f 9/2/1 8/2/1 7/2/1
f 9/2/1 7/2/1 6/2/1
f 10/2/1 8/2/1 9/2/1
f 11/2/1 8/2/1 10/2/1
f 12/2/1 8/2/1 11/2/1
f 13/2/1 11/2/1 10/2/1
f 14/2/1 11/2/1 13/2/1
f 15/2/1 8/2/1 12/2/1
f 16/2/1 8/2/1 15/2/1
f 17/2/1 15/2/1 14/2/1
f 18/3/1 16/3/1 15/3/1
f 18/2/1 15/2/1 17/2/1
f 19/3/1 18/3/1 17/3/1
f 20/3/1 16/3/1 18/3/1
f 20/3/1 18/3/1 19/3/1
f 26/2/1 22/2/1 21/2/1
f 27/2/1 22/2/1 26/2/1
f 28/3/1 23/3/1 22/3/1
f 28/2/1 22/2/1 27/2/1
f 29/3/1 23/3/1 28/3/1
f 30/2/1 25/2/1 24/2/1
f 31/2/1 29/2/1 28/2/1
f 31/2/1 28/2/1 27/2/1
f 32/2/1 29/2/1 31/2/1
f 33/3/1 23/3/1 29/3/1
f 33/2/1 29/2/1 32/2/1
f 34/3/1 23/3/1 33/3/1
f 35/2/1 30/2/1 24/2/1
f 36/2/1 30/2/1 35/2/1
f 40/2/1 33/2/1 32/2/1
f 41/2/1 33/2/1 40/2/1
f 44/2/1 37/2/1 36/2/1
f 45/2/1 37/2/1 44/2/1
f 46/2/1 39/2/1 38/2/1
f 47/2/1 39/2/1 46/2/1
f 50/3/1 43/3/1 42/3/1
f 50/2/1 44/2/1 43/2/1
f 51/2/1 44/2/1 50/2/1
f 52/2/1 46/2/1 45/2/1
f 53/2/1 46/2/1 52/2/1
f 54/2/1 49/2/1 48/2/1
f 55/2/1 49/2/1 54/2/1
f 56/3/1 51/3/1 50/3/1
f 56/3/1 50/3/1 42/3/1
f 57/3/1 51/3/1 56/3/1
f 60/2/1 59/2/1 58/2/1
f 61/2/1 59/2/1 60/2/1
f 66/2/1 63/2/1 62/2/1
f 69/2/1 65/2/1 64/2/1
f 70/2/1 67/2/1 66/2/1
f 70/2/1 66/2/1 62/2/1
f 71/2/1 67/2/1 70/2/1
f 72/2/1 67/2/1 71/2/1
f 74/2/1 69/2/1 68/2/1
f 75/2/1 65/2/1 69/2/1
f 75/2/1 69/2/1 74/2/1
f 76/2/1 65/2/1 75/2/1
f 77/2/1 73/2/1 72/2/1
f 78/2/1 73/2/1 77/2/1
f 80/2/1 78/2/1 77/2/1
f 80/2/1 79/2/1 78/2/1
f 81/2/1 79/2/1 80/2/1
f 83/2/1 82/2/1 81/2/1
f 84/2/1 82/2/1 83/2/1
f 88/2/1 86/2/1 85/2/1
f 89/2/1 86/2/1 88/2/1
f 93/2/1 88/2/1 87/2/1
f 94/2/1 88/2/1 93/2/1
f 95/2/1 91/2/1 90/2/1
f 96/2/1 91/2/1 95/2/1
f 97/2/1 93/2/1 92/2/1
f 98/2/1 93/2/1 97/2/1
f 101/2/1 100/2/1 99/2/1
f 102/2/1 100/2/1 101/2/1
f 105/2/1 104/2/1 103/2/1
f 106/2/1 104/2/1 105/2/1
f 109/2/1 108/2/1 107/2/1
f 110/2/1 108/2/1 109/2/1
f 113/3/1 112/3/1 111/3/1
f 114/3/1 112/3/1 113/3/1
f 115/3/2 116/3/2 117/3/2
f 117/3/2 116/3/2 118/3/2
f 119/2/2 120/2/2 121/2/2
f 121/2/2 120/2/2 122/2/2
f 123/3/2 124/3/2 126/3/2
f 124/2/2 125/2/2 127/2/2
f 126/3/2 124/3/2 127/3/2
f 127/2/2 125/2/2 128/2/2
f 129/2/2 130/2/2 131/2/2
f 131/2/2 130/2/2 132/2/2
f 133/2/2 134/2/2 135/2/2
f 135/2/2 134/2/2 136/2/2
f 137/2/2 138/2/2 139/2/2
f 139/2/2 138/2/2 140/2/2
f 143/2/2 144/2/2 145/2/2
f 145/2/2 144/2/2 146/2/2
f 141/2/2 142/2/2 147/2/2
f 147/2/2 142/2/2 148/2/2
f 149/3/2 150/3/2 151/3/2
f 151/3/2 150/3/2 152/3/2
f 153/2/2 154/2/2 155/2/2
f 155/2/2 154/2/2 156/2/2
f 159/2/2 160/2/2 161/2/2
f 161/2/2 160/2/2 162/2/2
f 157/2/2 158/2/2 163/2/2
f 163/2/2 158/2/2 164/2/2
f 167/2/2 168/2/2 169/2/2
f 169/2/2 168/2/2 170/2/2
f 165/2/2 166/2/2 172/2/2
f 172/2/2 166/2/2 173/2/2
f 171/2/2 172/2/2 177/2/2
f 177/2/2 172/2/2 178/2/2
f 174/2/2 175/2/2 179/2/2
f 179/2/2 175/2/2 180/2/2
f 176/2/2 177/2/2 181/2/2
f 181/2/2 177/2/2 182/2/2
f 179/2/2 180/2/2 183/2/2
f 180/3/2 181/3/2 184/3/2
f 183/2/2 180/2/2 184/2/2
f 181/3/2 182/3/2 184/3/2
f 184/3/2 182/3/2 185/3/2
f 186/2/2 187/2/2 188/2/2
f 188/2/2 187/2/2 189/2/2
f 189/2/2 187/2/2 190/2/2
f 190/2/2 187/2/2 191/2/2
f 191/2/2 192/2/2 193/2/2
f 190/2/2 191/2/2 193/2/2
f 193/2/2 192/2/2 194/2/2
f 194/2/2 192/2/2 195/2/2
f 196/2/2 197/2/2 199/2/2
f 197/2/2 198/2/2 199/2/2
f 199/2/2 198/2/2 200/2/2
f 200/2/2 198/2/2 201/2/2
f 199/3/2 200/3/2 205/3/2
f 200/2/2 201/2/2 205/2/2
f 201/2/2 202/2/2 205/2/2
f 205/2/2 202/2/2 206/2/2
f 206/2/2 202/2/2 207/2/2
f 203/2/2 204/2/2 208/2/2
f 208/2/2 204/2/2 209/2/2
f 199/3/2 205/3/2 210/3/2
f 205/3/2 206/3/2 210/3/2
f 210/3/2 206/3/2 211/3/2
f 207/2/2 208/2/2 212/2/2
f 212/2/2 208/2/2 213/2/2
f 214/3/2 215/3/2 217/3/2
f 215/2/2 216/2/2 218/2/2
f 217/3/2 215/3/2 218/3/2
f 218/2/2 216/2/2 219/2/2
f 214/3/2 217/3/2 222/3/2
f 217/2/2 218/2/2 223/2/2
f 222/3/2 217/3/2 223/3/2
f 218/2/2 219/2/2 223/2/2
f 219/2/2 220/2/2 223/2/2
f 223/2/2 220/2/2 224/2/2
f 224/2/2 220/2/2 225/2/2
f 220/3/2 221/3/2 226/3/2
f 225/2/2 220/2/2 226/2/2
f 224/2/2 225/2/2 227/2/2
f 227/2/2 225/2/2 228/2/2
f 225/3/2 226/3/2 229/3/2
f 228/2/2 225/2/2 229/2/2
f 226/3/2 221/3/2 230/3/2
f 229/3/2 226/3/2 230/3/2
f 228/2/2 229/2/2 231/2/2
f 231/2/2 229/2/2 232/2/2
f 236/3/3 234/3/3 233/3/3
f 237/2/3 236/2/3 235/2/3
f 238/2/3 236/2/3 237/2/3
f 239/3/3 234/3/3 236/3/3
f 239/2/3 236/2/3 238/2/3
f 240/3/3 234/3/3 239/3/3
f 241/3/3 234/3/3 240/3/3
f 243/2/3 239/2/3 238/2/3
f 243/2/3 240/2/3 239/2/3
f 244/2/3 240/2/3 243/2/3
f 245/2/3 240/2/3 244/2/3
f 246/2/3 243/2/3 242/2/3
f 246/2/3 244/2/3 243/2/3
f 247/2/3 244/2/3 246/2/3
f 248/2/3 244/2/3 247/2/3
f 249/2/3 244/2/3 248/2/3
f 253/2/3 251/2/3 250/2/3
f 254/2/3 251/2/3 253/2/3
f 255/2/3 251/2/3 254/2/3
f 256/2/3 253/2/3 252/2/3
f 256/2/3 254/2/3 253/2/3
f 258/2/3 256/2/3 252/2/3
f 258/2/3 257/2/3 256/2/3
f 259/2/3 257/2/3 258/2/3
f 263/2/3 258/2/3 252/2/3
f 265/2/3 262/2/3 261/2/3
f 265/2/3 261/2/3 260/2/3
f 266/2/3 262/2/3 265/2/3
f 267/2/3 264/2/3 263/2/3
f 267/2/3 263/2/3 252/2/3
f 268/2/3 264/2/3 267/2/3
f 269/2/3 264/2/3 268/2/3
f 270/2/3 265/2/3 260/2/3
f 271/3/3 266/3/3 265/3/3
f 271/2/3 265/2/3 270/2/3
f 273/2/3 270/2/3 269/2/3
f 273/2/3 269/2/3 268/2/3
f 274/2/3 270/2/3 273/2/3
f 275/3/3 271/3/3 270/3/3
f 275/2/3 270/2/3 274/2/3
f 276/3/3 266/3/3 271/3/3
f 276/3/3 271/3/3 275/3/3
f 277/3/3 274/3/3 273/3/3
f 277/3/3 273/3/3 272/3/3
f 278/3/3 274/3/3 277/3/3
f 282/3/3 280/3/3 279/3/3
f 283/3/3 280/3/3 282/3/3
f 284/2/3 281/2/3 280/2/3
f 284/3/3 280/3/3 283/3/3
f 285/2/3 281/2/3 284/2/3
f 287/2/3 283/2/3 282/2/3
f 288/2/3 283/2/3 287/2/3
f 289/2/3 286/2/3 285/2/3
f 290/2/3 286/2/3 289/2/3
f 294/2/3 292/2/3 291/2/3
f 294/2/3 293/2/3 292/2/3
f 295/2/3 293/2/3 294/2/3
f 296/2/3 293/2/3 295/2/3
f 297/2/3 293/2/3 296/2/3
f 300/2/3 299/2/3 298/2/3
f 301/2/3 299/2/3 300/2/3
f 302/2/3 299/2/3 301/2/3
f 305/2/3 304/2/3 303/2/3
f 306/2/3 304/2/3 305/2/3
f 308/2/3 307/2/3 306/2/3
f 309/2/3 307/2/3 308/2/3
f 312/2/3 311/2/3 310/2/3
f 313/2/3 311/2/3 312/2/3
f 316/2/3 315/2/3 314/2/3
f 317/2/3 315/2/3 316/2/3
f 321/2/3 319/2/3 318/2/3
f 322/3/3 320/3/3 319/3/3
f 322/2/3 319/2/3 321/2/3
f 323/3/3 320/3/3 322/3/3
f 324/2/3 323/2/3 322/2/3
f 325/2/3 323/2/3 324/2/3
f 327/2/3 326/2/3 325/2/3
f 328/2/3 326/2/3 327/2/3
f 332/2/3 330/2/3 329/2/3
f 333/2/3 330/2/3 332/2/3
f 334/2/3 332/2/3 331/2/3
f 335/2/3 332/2/3 334/2/3
f 338/2/3 337/2/3 336/2/3
f 339/2/3 337/2/3 338/2/3
f 342/2/3 341/2/3 340/2/3
f 343/2/3 341/2/3 342/2/3
f 344/2/4 345/2/4 347/2/4
f 345/3/4 346/3/4 348/3/4
f 347/2/4 345/2/4 348/2/4
f 348/3/4 346/3/4 349/3/4
f 350/2/4 351/2/4 352/2/4
f 352/2/4 351/2/4 353/2/4
f 354/3/4 355/3/4 356/3/4
f 356/3/4 355/3/4 357/3/4
f 358/3/4 359/3/4 362/3/4
f 362/3/4 359/3/4 363/3/4
f 360/2/4 361/2/4 364/2/4
f 364/2/4 361/2/4 365/2/4
f 366/2/4 367/2/4 368/2/4
f 368/2/4 367/2/4 369/2/4
f 370/2/4 371/2/4 372/2/4
f 372/2/4 371/2/4 373/2/4
f 374/2/4 375/2/4 379/2/4
f 379/2/4 375/2/4 380/2/4
f 376/2/4 377/2/4 381/2/4
f 381/2/4 377/2/4 382/2/4
f 378/2/4 379/2/4 383/2/4
f 383/2/4 379/2/4 384/2/4
f 385/2/4 386/2/4 388/2/4
f 388/2/4 386/2/4 389/2/4
f 386/3/4 387/3/4 390/3/4
f 389/2/4 386/2/4 390/2/4
f 390/3/4 387/3/4 391/3/4
f 389/2/4 390/2/4 392/2/4
f 392/2/4 390/2/4 393/2/4
f 391/3/4 387/3/4 394/3/4
f 394/3/4 387/3/4 395/3/4
f 394/2/4 395/2/4 396/2/4
f 396/2/4 395/2/4 397/2/4
f 397/2/4 398/2/4 400/2/4
f 400/2/4 398/2/4 401/2/4
f 399/2/4 400/2/4 405/2/4
f 400/3/4 401/3/4 406/3/4
f 405/2/4 400/2/4 406/2/4
f 406/3/4 401/3/4 407/3/4
f 402/2/4 403/2/4 408/2/4
f 408/2/4 403/2/4 409/2/4
f 404/2/4 405/2/4 410/2/4
f 410/2/4 405/2/4 411/2/4
f 412/2/4 413/2/4 416/2/4
f 416/2/4 413/2/4 417/2/4
f 414/2/4 415/2/4 418/2/4
f 418/2/4 415/2/4 421/2/4
f 421/2/4 415/2/4 422/2/4
f 422/2/4 423/2/4 424/2/4
f 424/2/4 423/2/4 425/2/4
f 419/2/4 420/2/4 426/2/4
f 419/2/4 426/2/4 430/2/4
f 426/2/4 427/2/4 430/2/4
f 430/2/4 427/2/4 431/2/4
f 431/2/4 427/2/4 432/2/4
f 428/2/4 429/2/4 433/2/4
f 433/2/4 429/2/4 434/2/4
f 431/2/4 432/2/4 435/2/4
f 432/2/4 433/2/4 435/2/4
f 435/2/4 433/2/4 436/2/4
f 436/2/4 433/2/4 437/2/4
f 436/3/4 437/3/4 438/3/4
f 438/3/4 437/3/4 439/3/4
f 440/3/4 441/3/4 442/3/4
f 440/3/4 442/3/4 444/3/4
f 444/3/4 442/3/4 445/3/4
f 442/2/4 443/2/4 446/2/4
f 445/3/4 442/3/4 446/3/4
f 446/2/4 443/2/4 447/2/4
f 447/2/4 448/2/4 449/2/4
f 446/2/4 447/2/4 449/2/4
f 445/2/4 446/2/4 449/2/4
f 449/2/4 448/2/4 450/2/4
f 445/2/4 449/2/4 451/2/4
f 451/2/4 449/2/4 452/2/4
f 449/3/4 450/3/4 453/3/4
f 452/2/4 449/2/4 453/2/4
f 453/3/4 450/3/4 454/3/4
f 454/3/4 450/3/4 455/3/4
f 452/2/4 453/2/4 456/2/4
f 453/2/4 454/2/4 456/2/4
f 456/2/4 454/2/4 457/2/4
f 462/2/5 459/2/5 458/2/5
f 463/2/5 459/2/5 462/2/5
f 465/3/5 461/3/5 460/3/5
f 466/2/5 464/2/5 463/2/5
f 466/3/5 461/3/5 465/3/5
f 466/2/5 462/2/5 461/2/5
f 466/2/5 463/2/5 462/2/5
f 467/2/5 464/2/5 466/2/5
f 468/2/5 464/2/5 467/2/5
f 469/2/5 467/2/5 466/2/5
f 469/1/5 468/1/5 467/1/5
f 470/2/5 464/2/5 468/2/5
f 470/1/5 468/1/5 469/1/5
f 471/2/5 469/2/5 466/2/5
f 471/2/5 470/2/5 469/2/5
f 472/2/5 470/2/5 471/2/5
f 473/2/5 464/2/5 470/2/5
f 473/2/5 470/2/5 472/2/5
f 474/2/5 464/2/5 473/2/5
f 475/3/5 472/3/5 471/3/5
f 475/2/5 473/2/5 472/2/5
f 476/2/5 473/2/5 475/2/5
f 477/2/5 473/2/5 476/2/5
f 478/3/5 475/3/5 471/3/5
f 478/3/5 476/3/5 475/3/5
f 479/3/5 476/3/5 478/3/5
f 484/2/5 481/2/5 480/2/5
f 485/2/5 481/2/5 484/2/5
f 488/2/5 483/2/5 482/2/5
f 489/2/5 483/2/5 488/2/5
f 490/3/5 487/3/5 486/3/5
f 491/3/5 487/3/5 490/3/5
f 492/3/5 487/3/5 491/3/5
f 495/2/5 494/2/5 493/2/5
f 496/2/5 494/2/5 495/2/5
f 497/2/5 492/2/5 491/2/5
f 498/2/5 492/2/5 497/2/5
f 503/2/5 500/2/5 499/2/5
f 504/2/5 500/2/5 503/2/5
f 505/2/5 502/2/5 501/2/5
f 506/2/5 502/2/5 505/2/5
f 509/2/5 508/2/5 507/2/5
f 510/2/5 508/2/5 509/2/5
f 513/2/5 512/2/5 511/2/5
f 514/2/5 512/2/5 513/2/5
f 519/2/5 516/2/5 515/2/5
f 520/2/5 516/2/5 519/2/5
f 521/2/5 518/2/5 517/2/5
f 522/2/5 518/2/5 521/2/5
f 525/3/5 522/3/5 521/3/5
f 526/3/5 522/3/5 525/3/5
f 527/2/5 524/2/5 523/2/5
f 528/2/5 524/2/5 527/2/5
f 533/2/5 530/2/5 529/2/5
f 534/2/5 530/2/5 533/2/5
f 535/2/5 532/2/5 531/2/5
f 536/2/5 532/2/5 535/2/5
f 539/3/5 538/3/5 537/3/5
f 540/3/5 538/3/5 539/3/5
f 541/2/5 540/2/5 539/2/5
f 542/2/5 540/2/5 541/2/5
f 545/2/5 544/2/5 543/2/5
f 546/2/5 544/2/5 545/2/5
f 549/2/5 548/2/5 547/2/5
f 550/2/5 548/2/5 549/2/5
f 551/3/6 552/3/6 553/3/6
f 553/3/6 552/3/6 554/3/6
f 555/2/6 556/2/6 560/2/6
f 560/2/6 556/2/6 561/2/6
f 557/3/6 558/3/6 562/3/6
f 562/3/6 558/3/6 563/3/6
f 559/2/6 560/2/6 564/2/6
f 564/2/6 560/2/6 565/2/6
f 562/2/6 563/2/6 566/2/6
f 566/2/6 563/2/6 567/2/6
f 568/2/6 569/2/6 570/2/6
f 570/2/6 569/2/6 571/2/6
f 572/2/6 573/2/6 574/2/6
f 574/2/6 573/2/6 575/2/6
f 576/2/6 577/2/6 578/2/6
f 578/2/6 577/2/6 579/2/6
f 580/2/6 581/2/6 583/2/6
f 583/2/6 581/2/6 584/2/6
f 582/2/6 583/2/6 587/2/6
f 587/2/6 583/2/6 588/2/6
f 585/2/6 586/2/6 589/2/6
f 589/2/6 586/2/6 590/2/6
f 591/3/6 592/3/6 594/3/6
f 593/2/6 594/2/6 598/2/6
f 594/3/6 592/3/6 599/3/6
f 598/2/6 594/2/6 599/2/6
f 599/3/6 592/3/6 600/3/6
f 595/2/6 596/2/6 601/2/6
f 601/2/6 596/2/6 602/2/6
f 597/2/6 598/2/6 603/2/6
f 603/2/6 598/2/6 604/2/6
f 605/2/6 606/2/6 607/2/6
f 607/2/6 606/2/6 608/2/6
f 607/2/6 608/2/6 609/2/6
f 609/2/6 608/2/6 610/2/6
f 611/2/6 612/2/6 615/2/6
f 615/2/6 612/2/6 616/2/6
f 613/2/6 614/2/6 617/2/6
f 617/2/6 614/2/6 618/2/6
f 618/2/6 619/2/6 621/2/6
f 621/2/6 619/2/6 622/2/6
f 620/2/6 621/2/6 627/2/6
f 627/2/6 621/2/6 628/2/6
f 624/2/6 625/2/6 629/2/6
f 623/2/6 624/2/6 629/2/6
f 629/2/6 625/2/6 630/2/6
f 626/2/6 627/2/6 631/2/6
f 631/2/6 627/2/6 632/2/6
f 632/2/6 627/2/6 633/2/6
f 630/2/6 631/2/6 634/2/6
f 631/3/6 632/3/6 635/3/6
f 634/2/6 631/2/6 635/2/6
f 635/3/6 632/3/6 636/3/6
f 637/3/6 638/3/6 639/3/6
f 639/3/6 638/3/6 640/3/6
f 637/3/6 639/3/6 644/3/6
f 639/2/6 640/2/6 645/2/6
f 644/3/6 639/3/6 645/3/6
f 645/2/6 640/2/6 646/2/6
f 641/2/6 642/2/6 647/2/6
f 642/3/6 643/3/6 648/3/6
f 647/2/6 642/2/6 648/2/6
f 648/3/6 643/3/6 649/3/6
f 645/2/6 646/2/6 650/2/6
f 648/2/6 649/2/6 652/2/6
f 649/3/6 643/3/6 653/3/6
f 652/2/6 649/2/6 653/2/6
f 653/3/6 643/3/6 654/3/6
f 650/2/6 651/2/6 657/2/6
f 645/2/6 650/2/6 657/2/6
f 657/2/6 651/2/6 658/2/6
f 655/3/6 656/3/6 661/3/6
f 656/2/6 657/2/6 661/2/6
f 661/2/6 657/2/6 662/2/6
f 658/2/6 651/2/6 663/2/6
f 663/2/6 651/2/6 664/2/6
f 659/2/6 660/2/6 665/2/6
f 665/2/6 660/2/6 666/2/6
f 661/3/6 662/3/6 667/3/6
f 655/3/6 661/3/6 667/3/6
f 662/2/6 663/2/6 668/2/6
f 667/3/6 662/3/6 668/3/6
f 668/2/6 663/2/6 669/2/6
f 669/2/6 670/2/6 671/2/6
f 671/2/6 670/2/6 672/2/6
f 673/2/6 674/2/6 675/2/6
f 675/2/6 674/2/6 676/2/6
f 676/2/6 674/2/6 677/2/6
f 677/2/6 678/2/6 681/2/6
f 676/2/6 677/2/6 681/2/6
f 681/2/6 678/2/6 682/2/6
f 679/2/6 680/2/6 683/2/6
f 683/2/6 680/2/6 684/2/6
f 676/2/6 681/2/6 685/2/6
f 681/3/6 682/3/6 686/3/6
f 685/2/6 681/2/6 686/2/6
f 684/2/6 685/2/6 687/2/6
f 685/3/6 686/3/6 688/3/6
f 687/2/6 685/2/6 688/2/6
f 686/3/6 682/3/6 689/3/6
f 688/3/6 686/3/6 689/3/6
