# MagicaVoxel @ Ephtracy

# group
o 

# material
mtllib Chair.mtl
usemtl palette

# normals
vn -1 0 0
vn 1 0 0
vn 0 0 1
vn 0 0 -1
vn 0 -1 0
vn 0 1 0

# texcoords
vt 0.396484 0.5
vt 0.416016 0.5
vt 0.419922 0.5
vt 0.537109 0.5

# verts
v -0.4 0 2.23517e-08
v -0.4 0 -0.1
v -0.4 0 -0.6
v -0.4 0 -0.7
v -0.4 0.4 2.23517e-08
v -0.4 0.4 -0.1
v -0.4 0.4 -0.6
v -0.4 0.5 2.23517e-08
v -0.4 0.5 -0.6
v -0.4 1.3 -0.6
v -0.4 1.3 -0.7
v -0.2 0.5 -0.6
v -0.2 0.5 -0.7
v -0.2 1.2 -0.6
v -0.2 1.2 -0.7
v 0 0.5 -0.6
v 0 0.5 -0.7
v 0 1.2 -0.6
v 0 1.2 -0.7
v 0.2 0 2.23517e-08
v 0.2 0 -0.1
v 0.2 0 -0.6
v 0.2 0 -0.7
v 0.2 0.4 2.23517e-08
v 0.2 0.4 -0.1
v 0.2 0.4 -0.6
v 0.2 0.4 -0.7
v 0.2 0.5 -0.6
v 0.2 0.5 -0.7
v 0.2 1.2 -0.6
v 0.2 1.2 -0.7
v -0.3 0 2.23517e-08
v -0.3 0 -0.1
v -0.3 0 -0.6
v -0.3 0 -0.7
v -0.3 0.4 2.23517e-08
v -0.3 0.4 -0.1
v -0.3 0.4 -0.6
v -0.3 0.4 -0.7
v -0.3 0.5 -0.6
v -0.3 0.5 -0.7
v -0.3 1.2 -0.6
v -0.3 1.2 -0.7
v -0.1 0.5 -0.6
v -0.1 0.5 -0.7
v -0.1 1.2 -0.6
v -0.1 1.2 -0.7
v 0.1 0.5 -0.6
v 0.1 0.5 -0.7
v 0.1 1.2 -0.6
v 0.1 1.2 -0.7
v 0.3 0 2.23517e-08
v 0.3 0 -0.1
v 0.3 0 -0.6
v 0.3 0 -0.7
v 0.3 0.4 2.23517e-08
v 0.3 0.4 -0.1
v 0.3 0.4 -0.6
v 0.3 0.5 2.23517e-08
v 0.3 0.5 -0.6
v 0.3 1.3 -0.6
v 0.3 1.3 -0.7
v -0.4 0 2.23517e-08
v -0.4 0.4 2.23517e-08
v -0.4 0.5 2.23517e-08
v -0.3 0 2.23517e-08
v -0.3 0.4 2.23517e-08
v 0.2 0 2.23517e-08
v 0.2 0.4 2.23517e-08
v 0.3 0 2.23517e-08
v 0.3 0.4 2.23517e-08
v 0.3 0.5 2.23517e-08
v -0.4 0 -0.6
v -0.4 0.4 -0.6
v -0.4 0.5 -0.6
v -0.4 1.3 -0.6
v -0.3 0 -0.6
v -0.3 0.4 -0.6
v -0.3 0.5 -0.6
v -0.3 1.2 -0.6
v -0.2 0.5 -0.6
v -0.2 1.2 -0.6
v -0.1 0.5 -0.6
v -0.1 1.2 -0.6
v 0 0.5 -0.6
v 0 1.2 -0.6
v 0.1 0.5 -0.6
v 0.1 1.2 -0.6
v 0.2 0 -0.6
v 0.2 0.4 -0.6
v 0.2 0.5 -0.6
v 0.2 1.2 -0.6
v 0.3 0 -0.6
v 0.3 0.4 -0.6
v 0.3 0.5 -0.6
v 0.3 1.3 -0.6
v -0.4 0 -0.1
v -0.4 0.4 -0.1
v -0.3 0 -0.1
v -0.3 0.4 -0.1
v 0.2 0 -0.1
v 0.2 0.4 -0.1
v 0.3 0 -0.1
v 0.3 0.4 -0.1
v -0.4 0 -0.7
v -0.4 1.3 -0.7
v -0.3 0 -0.7
v -0.3 0.4 -0.7
v -0.3 0.5 -0.7
v -0.3 1.2 -0.7
v -0.2 0.4 -0.7
v -0.2 0.5 -0.7
v -0.2 1.2 -0.7
v -0.1 0.4 -0.7
v -0.1 0.5 -0.7
v -0.1 1.2 -0.7
v 0 0.4 -0.7
v 0 0.5 -0.7
v 0 1.2 -0.7
v 0.1 0.4 -0.7
v 0.1 0.5 -0.7
v 0.1 1.2 -0.7
v 0.2 0 -0.7
v 0.2 0.4 -0.7
v 0.2 0.5 -0.7
v 0.2 1.2 -0.7
v 0.3 0 -0.7
v 0.3 1.3 -0.7
v -0.4 0 2.23517e-08
v -0.3 0 2.23517e-08
v 0.2 0 2.23517e-08
v 0.3 0 2.23517e-08
v -0.4 0 -0.1
v -0.3 0 -0.1
v 0.2 0 -0.1
v 0.3 0 -0.1
v -0.4 0 -0.6
v -0.3 0 -0.6
v 0.2 0 -0.6
v 0.3 0 -0.6
v -0.4 0 -0.7
v -0.3 0 -0.7
v 0.2 0 -0.7
v 0.3 0 -0.7
v -0.3 0.4 2.23517e-08
v 0.2 0.4 2.23517e-08
v -0.4 0.4 -0.1
v -0.3 0.4 -0.1
v 0.2 0.4 -0.1
v 0.3 0.4 -0.1
v -0.2 0.4 -0.2
v 0.1 0.4 -0.2
v -0.2 0.4 -0.4
v 0.1 0.4 -0.4
v -0.3 0.4 -0.5
v 0.2 0.4 -0.5
v -0.4 0.4 -0.6
v -0.3 0.4 -0.6
v -0.2 0.4 -0.6
v -0.1 0.4 -0.6
v 0 0.4 -0.6
v 0.1 0.4 -0.6
v 0.2 0.4 -0.6
v 0.3 0.4 -0.6
v -0.3 0.4 -0.7
v -0.2 0.4 -0.7
v -0.1 0.4 -0.7
v 0 0.4 -0.7
v 0.1 0.4 -0.7
v 0.2 0.4 -0.7
v -0.3 1.2 -0.6
v -0.2 1.2 -0.6
v -0.1 1.2 -0.6
v 0 1.2 -0.6
v 0.1 1.2 -0.6
v 0.2 1.2 -0.6
v -0.3 1.2 -0.7
v -0.2 1.2 -0.7
v -0.1 1.2 -0.7
v 0 1.2 -0.7
v 0.1 1.2 -0.7
v 0.2 1.2 -0.7
v -0.4 0.5 2.23517e-08
v 0.3 0.5 2.23517e-08
v -0.3 0.5 -0.1
v 0.2 0.5 -0.1
v -0.2 0.5 -0.2
v 0.1 0.5 -0.2
v -0.2 0.5 -0.4
v 0.1 0.5 -0.4
v -0.3 0.5 -0.5
v 0.2 0.5 -0.5
v -0.4 0.5 -0.6
v -0.3 0.5 -0.6
v -0.2 0.5 -0.6
v -0.1 0.5 -0.6
v 0 0.5 -0.6
v 0.1 0.5 -0.6
v 0.2 0.5 -0.6
v 0.3 0.5 -0.6
v -0.3 0.5 -0.7
v -0.2 0.5 -0.7
v -0.1 0.5 -0.7
v 0 0.5 -0.7
v 0.1 0.5 -0.7
v 0.2 0.5 -0.7
v -0.4 1.3 -0.6
v 0.3 1.3 -0.6
v -0.4 1.3 -0.7
v 0.3 1.3 -0.7

# faces
f 5/4/1 2/4/1 1/4/1
f 6/4/1 2/4/1 5/4/1
f 7/4/1 4/4/1 3/4/1
f 8/1/1 6/1/1 5/1/1
f 8/1/1 7/1/1 6/1/1
f 9/4/1 4/4/1 7/4/1
f 9/1/1 7/1/1 8/1/1
f 10/4/1 4/4/1 9/4/1
f 11/4/1 4/4/1 10/4/1
f 14/4/1 13/4/1 12/4/1
f 15/4/1 13/4/1 14/4/1
f 18/4/1 17/4/1 16/4/1
f 19/4/1 17/4/1 18/4/1
f 24/4/1 21/4/1 20/4/1
f 25/4/1 21/4/1 24/4/1
f 26/4/1 23/4/1 22/4/1
f 27/4/1 23/4/1 26/4/1
f 30/4/1 29/4/1 28/4/1
f 31/4/1 29/4/1 30/4/1
f 32/4/2 33/4/2 36/4/2
f 36/4/2 33/4/2 37/4/2
f 34/4/2 35/4/2 38/4/2
f 38/4/2 35/4/2 39/4/2
f 40/4/2 41/4/2 42/4/2
f 42/4/2 41/4/2 43/4/2
f 44/4/2 45/4/2 46/4/2
f 46/4/2 45/4/2 47/4/2
f 48/4/2 49/4/2 50/4/2
f 50/4/2 49/4/2 51/4/2
f 52/4/2 53/4/2 56/4/2
f 56/4/2 53/4/2 57/4/2
f 54/4/2 55/4/2 58/4/2
f 56/1/2 57/1/2 59/1/2
f 57/1/2 58/1/2 59/1/2
f 58/4/2 55/4/2 60/4/2
f 59/1/2 58/1/2 60/1/2
f 60/4/2 55/4/2 61/4/2
f 61/4/2 55/4/2 62/4/2
f 66/4/3 64/4/3 63/4/3
f 67/1/3 65/1/3 64/1/3
f 67/4/3 64/4/3 66/4/3
f 69/1/3 65/1/3 67/1/3
f 70/4/3 69/4/3 68/4/3
f 71/1/3 65/1/3 69/1/3
f 71/4/3 69/4/3 70/4/3
f 72/1/3 65/1/3 71/1/3
f 77/4/3 74/4/3 73/4/3
f 78/4/3 74/4/3 77/4/3
f 79/4/3 76/4/3 75/4/3
f 80/4/3 76/4/3 79/4/3
f 82/4/3 76/4/3 80/4/3
f 83/4/3 82/4/3 81/4/3
f 84/4/3 76/4/3 82/4/3
f 84/4/3 82/4/3 83/4/3
f 86/4/3 76/4/3 84/4/3
f 87/4/3 86/4/3 85/4/3
f 88/4/3 76/4/3 86/4/3
f 88/4/3 86/4/3 87/4/3
f 92/4/3 76/4/3 88/4/3
f 93/4/3 90/4/3 89/4/3
f 94/4/3 90/4/3 93/4/3
f 95/4/3 92/4/3 91/4/3
f 96/4/3 76/4/3 92/4/3
f 96/4/3 92/4/3 95/4/3
f 97/4/4 98/4/4 99/4/4
f 99/4/4 98/4/4 100/4/4
f 101/4/4 102/4/4 103/4/4
f 103/4/4 102/4/4 104/4/4
f 105/4/4 106/4/4 107/4/4
f 107/4/4 106/4/4 108/4/4
f 108/4/4 106/4/4 109/4/4
f 109/4/4 106/4/4 110/4/4
f 108/1/4 109/1/4 111/1/4
f 111/1/4 109/1/4 112/1/4
f 110/4/4 106/4/4 113/4/4
f 111/4/4 112/4/4 114/4/4
f 112/4/4 113/4/4 114/4/4
f 114/4/4 113/4/4 115/4/4
f 113/4/4 106/4/4 116/4/4
f 115/4/4 113/4/4 116/4/4
f 114/1/4 115/1/4 117/1/4
f 117/1/4 115/1/4 118/1/4
f 116/4/4 106/4/4 119/4/4
f 117/4/4 118/4/4 120/4/4
f 118/4/4 119/4/4 120/4/4
f 120/4/4 119/4/4 121/4/4
f 119/4/4 106/4/4 122/4/4
f 121/4/4 119/4/4 122/4/4
f 120/1/4 121/1/4 124/1/4
f 124/1/4 121/1/4 125/1/4
f 122/4/4 106/4/4 126/4/4
f 124/4/4 125/4/4 127/4/4
f 125/4/4 126/4/4 127/4/4
f 123/4/4 124/4/4 127/4/4
f 126/4/4 106/4/4 128/4/4
f 127/4/4 126/4/4 128/4/4
f 133/4/5 130/4/5 129/4/5
f 134/4/5 130/4/5 133/4/5
f 135/4/5 132/4/5 131/4/5
f 136/4/5 132/4/5 135/4/5
f 141/4/5 138/4/5 137/4/5
f 142/4/5 138/4/5 141/4/5
f 143/4/5 140/4/5 139/4/5
f 144/4/5 140/4/5 143/4/5
f 148/1/5 146/1/5 145/1/5
f 149/1/5 146/1/5 148/1/5
f 151/3/5 149/3/5 148/3/5
f 152/3/5 149/3/5 151/3/5
f 153/3/5 151/3/5 148/3/5
f 153/2/5 152/2/5 151/2/5
f 154/3/5 149/3/5 152/3/5
f 154/2/5 152/2/5 153/2/5
f 155/1/5 148/1/5 147/1/5
f 155/3/5 153/3/5 148/3/5
f 155/3/5 154/3/5 153/3/5
f 156/3/5 149/3/5 154/3/5
f 156/3/5 154/3/5 155/3/5
f 156/1/5 150/1/5 149/1/5
f 157/1/5 155/1/5 147/1/5
f 157/1/5 156/1/5 155/1/5
f 158/1/5 156/1/5 157/1/5
f 159/1/5 156/1/5 158/1/5
f 160/1/5 156/1/5 159/1/5
f 161/1/5 156/1/5 160/1/5
f 162/1/5 156/1/5 161/1/5
f 163/1/5 150/1/5 156/1/5
f 163/1/5 156/1/5 162/1/5
f 164/1/5 150/1/5 163/1/5
f 165/1/5 159/1/5 158/1/5
f 166/4/5 160/4/5 159/4/5
f 166/1/5 159/1/5 165/1/5
f 167/1/5 161/1/5 160/1/5
f 167/4/5 160/4/5 166/4/5
f 168/4/5 162/4/5 161/4/5
f 168/1/5 161/1/5 167/1/5
f 169/1/5 163/1/5 162/1/5
f 169/4/5 162/4/5 168/4/5
f 170/1/5 163/1/5 169/1/5
f 177/4/5 172/4/5 171/4/5
f 178/4/5 172/4/5 177/4/5
f 179/4/5 174/4/5 173/4/5
f 180/4/5 174/4/5 179/4/5
f 181/4/5 176/4/5 175/4/5
f 182/4/5 176/4/5 181/4/5
f 183/1/6 184/1/6 185/1/6
f 185/1/6 184/1/6 186/1/6
f 185/3/6 186/3/6 187/3/6
f 187/3/6 186/3/6 188/3/6
f 185/3/6 187/3/6 189/3/6
f 187/2/6 188/2/6 189/2/6
f 188/3/6 186/3/6 190/3/6
f 189/2/6 188/2/6 190/2/6
f 183/1/6 185/1/6 191/1/6
f 185/3/6 189/3/6 191/3/6
f 189/3/6 190/3/6 191/3/6
f 190/3/6 186/3/6 192/3/6
f 191/3/6 190/3/6 192/3/6
f 186/1/6 184/1/6 192/1/6
f 183/1/6 191/1/6 193/1/6
f 191/1/6 192/1/6 193/1/6
f 193/1/6 192/1/6 194/1/6
f 194/1/6 192/1/6 195/1/6
f 195/1/6 192/1/6 196/1/6
f 196/1/6 192/1/6 197/1/6
f 197/1/6 192/1/6 198/1/6
f 192/1/6 184/1/6 199/1/6
f 198/1/6 192/1/6 199/1/6
f 199/1/6 184/1/6 200/1/6
f 194/1/6 195/1/6 201/1/6
f 201/1/6 195/1/6 202/1/6
f 196/1/6 197/1/6 203/1/6
f 203/1/6 197/1/6 204/1/6
f 198/1/6 199/1/6 205/1/6
f 205/1/6 199/1/6 206/1/6
f 207/4/6 208/4/6 209/4/6
f 209/4/6 208/4/6 210/4/6
