# MagicaVoxel @ Ephtracy

# group
o 

# material
mtllib Fence.mtl
usemtl palette

# normals
vn -1 0 0
vn 1 0 0
vn 0 0 1
vn 0 0 -1
vn 0 -1 0
vn 0 1 0

# texcoords
vt 0.373047 0.5
vt 0.537109 0.5

# verts
v -0.3 1.8 12.5
v -0.3 1.8 12
v -0.3 1.8 4
v -0.3 1.8 3.5
v -0.3 1.8 -4.2
v -0.3 1.8 -4.7
v -0.3 1.8 -12
v -0.3 1.8 -12.5
v -0.3 2 12.5
v -0.3 2 12
v -0.3 2 4
v -0.3 2 3.5
v -0.3 2 -4.2
v -0.3 2 -4.7
v -0.3 2 -12
v -0.3 2 -12.5
v -0.2 0 12.4
v -0.2 0 12.1
v -0.2 0 3.9
v -0.2 0 3.6
v -0.2 0 -4.3
v -0.2 0 -4.6
v -0.2 0 -12.1
v -0.2 0 -12.4
v -0.2 1.8 12.4
v -0.2 1.8 12.1
v -0.2 1.8 3.9
v -0.2 1.8 3.6
v -0.2 1.8 -4.3
v -0.2 1.8 -4.6
v -0.2 1.8 -12.1
v -0.2 1.8 -12.4
v -0.1 0.6 12.5
v -0.1 0.6 12.4
v -0.1 0.6 12.1
v -0.1 0.6 3.9
v -0.1 0.6 3.6
v -0.1 0.6 -4.3
v -0.1 0.6 -4.6
v -0.1 0.6 -12.1
v -0.1 0.6 -12.4
v -0.1 0.6 -12.5
v -0.1 0.9 12.5
v -0.1 0.9 12.4
v -0.1 0.9 12.1
v -0.1 0.9 3.9
v -0.1 0.9 3.6
v -0.1 0.9 -4.3
v -0.1 0.9 -4.6
v -0.1 0.9 -12.1
v -0.1 0.9 -12.4
v -0.1 0.9 -12.5
v -0.1 1.2 12.5
v -0.1 1.2 12.4
v -0.1 1.2 12.1
v -0.1 1.2 3.9
v -0.1 1.2 3.6
v -0.1 1.2 -4.3
v -0.1 1.2 -4.6
v -0.1 1.2 -12.1
v -0.1 1.2 -12.4
v -0.1 1.2 -12.5
v -0.1 1.5 12.5
v -0.1 1.5 12.4
v -0.1 1.5 12.1
v -0.1 1.5 3.9
v -0.1 1.5 3.6
v -0.1 1.5 -4.3
v -0.1 1.5 -4.6
v -0.1 1.5 -12.1
v -0.1 1.5 -12.4
v -0.1 1.5 -12.5
v 0 0.6 12.5
v 0 0.6 12.4
v 0 0.6 12.1
v 0 0.6 3.9
v 0 0.6 3.6
v 0 0.6 -4.3
v 0 0.6 -4.6
v 0 0.6 -12.1
v 0 0.6 -12.4
v 0 0.6 -12.5
v 0 0.9 12.5
v 0 0.9 12.4
v 0 0.9 12.1
v 0 0.9 3.9
v 0 0.9 3.6
v 0 0.9 -4.3
v 0 0.9 -4.6
v 0 0.9 -12.1
v 0 0.9 -12.4
v 0 0.9 -12.5
v 0 1.2 12.5
v 0 1.2 12.4
v 0 1.2 12.1
v 0 1.2 3.9
v 0 1.2 3.6
v 0 1.2 -4.3
v 0 1.2 -4.6
v 0 1.2 -12.1
v 0 1.2 -12.4
v 0 1.2 -12.5
v 0 1.5 12.5
v 0 1.5 12.4
v 0 1.5 12.1
v 0 1.5 3.9
v 0 1.5 3.6
v 0 1.5 -4.3
v 0 1.5 -4.6
v 0 1.5 -12.1
v 0 1.5 -12.4
v 0 1.5 -12.5
v 0.1 0 12.4
v 0.1 0 12.1
v 0.1 0 3.9
v 0.1 0 3.6
v 0.1 0 -4.3
v 0.1 0 -4.6
v 0.1 0 -12.1
v 0.1 0 -12.4
v 0.1 1.8 12.4
v 0.1 1.8 12.1
v 0.1 1.8 3.9
v 0.1 1.8 3.6
v 0.1 1.8 -4.3
v 0.1 1.8 -4.6
v 0.1 1.8 -12.1
v 0.1 1.8 -12.4
v 0.2 1.8 12.5
v 0.2 1.8 12
v 0.2 1.8 4
v 0.2 1.8 3.5
v 0.2 1.8 -4.2
v 0.2 1.8 -4.7
v 0.2 1.8 -12
v 0.2 1.8 -12.5
v 0.2 2 12.5
v 0.2 2 12
v 0.2 2 4
v 0.2 2 3.5
v 0.2 2 -4.2
v 0.2 2 -4.7
v 0.2 2 -12
v 0.2 2 -12.5
v -0.3 1.8 12.5
v -0.3 2 12.5
v -0.1 0.6 12.5
v -0.1 0.9 12.5
v -0.1 1.2 12.5
v -0.1 1.5 12.5
v 0 0.6 12.5
v 0 0.9 12.5
v 0 1.2 12.5
v 0 1.5 12.5
v 0.2 1.8 12.5
v 0.2 2 12.5
v -0.2 0 12.4
v -0.2 1.8 12.4
v -0.1 0.6 12.4
v -0.1 0.9 12.4
v -0.1 1.2 12.4
v -0.1 1.5 12.4
v 0 0.6 12.4
v 0 0.9 12.4
v 0 1.2 12.4
v 0 1.5 12.4
v 0.1 0 12.4
v 0.1 1.8 12.4
v -0.3 1.8 4
v -0.3 2 4
v 0.2 1.8 4
v 0.2 2 4
v -0.2 0 3.9
v -0.2 1.8 3.9
v -0.1 0.6 3.9
v -0.1 0.9 3.9
v -0.1 1.2 3.9
v -0.1 1.5 3.9
v 0 0.6 3.9
v 0 0.9 3.9
v 0 1.2 3.9
v 0 1.5 3.9
v 0.1 0 3.9
v 0.1 1.8 3.9
v -0.3 1.8 -4.2
v -0.3 2 -4.2
v 0.2 1.8 -4.2
v 0.2 2 -4.2
v -0.2 0 -4.3
v -0.2 1.8 -4.3
v -0.1 0.6 -4.3
v -0.1 0.9 -4.3
v -0.1 1.2 -4.3
v -0.1 1.5 -4.3
v 0 0.6 -4.3
v 0 0.9 -4.3
v 0 1.2 -4.3
v 0 1.5 -4.3
v 0.1 0 -4.3
v 0.1 1.8 -4.3
v -0.3 1.8 -12
v -0.3 2 -12
v 0.2 1.8 -12
v 0.2 2 -12
v -0.2 0 -12.1
v -0.2 1.8 -12.1
v -0.1 0.6 -12.1
v -0.1 0.9 -12.1
v -0.1 1.2 -12.1
v -0.1 1.5 -12.1
v 0 0.6 -12.1
v 0 0.9 -12.1
v 0 1.2 -12.1
v 0 1.5 -12.1
v 0.1 0 -12.1
v 0.1 1.8 -12.1
v -0.2 0 12.1
v -0.2 1.8 12.1
v -0.1 0.6 12.1
v -0.1 0.9 12.1
v -0.1 1.2 12.1
v -0.1 1.5 12.1
v 0 0.6 12.1
v 0 0.9 12.1
v 0 1.2 12.1
v 0 1.5 12.1
v 0.1 0 12.1
v 0.1 1.8 12.1
v -0.3 1.8 12
v -0.3 2 12
v 0.2 1.8 12
v 0.2 2 12
v -0.2 0 3.6
v -0.2 1.8 3.6
v -0.1 0.6 3.6
v -0.1 0.9 3.6
v -0.1 1.2 3.6
v -0.1 1.5 3.6
v 0 0.6 3.6
v 0 0.9 3.6
v 0 1.2 3.6
v 0 1.5 3.6
v 0.1 0 3.6
v 0.1 1.8 3.6
v -0.3 1.8 3.5
v -0.3 2 3.5
v 0.2 1.8 3.5
v 0.2 2 3.5
v -0.2 0 -4.6
v -0.2 1.8 -4.6
v -0.1 0.6 -4.6
v -0.1 0.9 -4.6
v -0.1 1.2 -4.6
v -0.1 1.5 -4.6
v 0 0.6 -4.6
v 0 0.9 -4.6
v 0 1.2 -4.6
v 0 1.5 -4.6
v 0.1 0 -4.6
v 0.1 1.8 -4.6
v -0.3 1.8 -4.7
v -0.3 2 -4.7
v 0.2 1.8 -4.7
v 0.2 2 -4.7
v -0.2 0 -12.4
v -0.2 1.8 -12.4
v -0.1 0.6 -12.4
v -0.1 0.9 -12.4
v -0.1 1.2 -12.4
v -0.1 1.5 -12.4
v 0 0.6 -12.4
v 0 0.9 -12.4
v 0 1.2 -12.4
v 0 1.5 -12.4
v 0.1 0 -12.4
v 0.1 1.8 -12.4
v -0.3 1.8 -12.5
v -0.3 2 -12.5
v -0.1 0.6 -12.5
v -0.1 0.9 -12.5
v -0.1 1.2 -12.5
v -0.1 1.5 -12.5
v 0 0.6 -12.5
v 0 0.9 -12.5
v 0 1.2 -12.5
v 0 1.5 -12.5
v 0.2 1.8 -12.5
v 0.2 2 -12.5
v -0.2 0 12.4
v 0.1 0 12.4
v -0.2 0 12.1
v 0.1 0 12.1
v -0.2 0 3.9
v 0.1 0 3.9
v -0.2 0 3.6
v 0.1 0 3.6
v -0.2 0 -4.3
v 0.1 0 -4.3
v -0.2 0 -4.6
v 0.1 0 -4.6
v -0.2 0 -12.1
v 0.1 0 -12.1
v -0.2 0 -12.4
v 0.1 0 -12.4
v -0.1 0.6 12.5
v 0 0.6 12.5
v -0.1 0.6 12.4
v 0 0.6 12.4
v -0.1 0.6 12.1
v 0 0.6 12.1
v -0.1 0.6 3.9
v 0 0.6 3.9
v -0.1 0.6 3.6
v 0 0.6 3.6
v -0.1 0.6 -4.3
v 0 0.6 -4.3
v -0.1 0.6 -4.6
v 0 0.6 -4.6
v -0.1 0.6 -12.1
v 0 0.6 -12.1
v -0.1 0.6 -12.4
v 0 0.6 -12.4
v -0.1 0.6 -12.5
v 0 0.6 -12.5
v -0.1 1.2 12.5
v 0 1.2 12.5
v -0.1 1.2 12.4
v 0 1.2 12.4
v -0.1 1.2 12.1
v 0 1.2 12.1
v -0.1 1.2 3.9
v 0 1.2 3.9
v -0.1 1.2 3.6
v 0 1.2 3.6
v -0.1 1.2 -4.3
v 0 1.2 -4.3
v -0.1 1.2 -4.6
v 0 1.2 -4.6
v -0.1 1.2 -12.1
v 0 1.2 -12.1
v -0.1 1.2 -12.4
v 0 1.2 -12.4
v -0.1 1.2 -12.5
v 0 1.2 -12.5
v -0.3 1.8 12.5
v 0.2 1.8 12.5
v -0.2 1.8 12.4
v 0.1 1.8 12.4
v -0.2 1.8 12.1
v 0.1 1.8 12.1
v -0.3 1.8 12
v 0.2 1.8 12
v -0.3 1.8 4
v 0.2 1.8 4
v -0.2 1.8 3.9
v 0.1 1.8 3.9
v -0.2 1.8 3.6
v 0.1 1.8 3.6
v -0.3 1.8 3.5
v 0.2 1.8 3.5
v -0.3 1.8 -4.2
v 0.2 1.8 -4.2
v -0.2 1.8 -4.3
v 0.1 1.8 -4.3
v -0.2 1.8 -4.6
v 0.1 1.8 -4.6
v -0.3 1.8 -4.7
v 0.2 1.8 -4.7
v -0.3 1.8 -12
v 0.2 1.8 -12
v -0.2 1.8 -12.1
v 0.1 1.8 -12.1
v -0.2 1.8 -12.4
v 0.1 1.8 -12.4
v -0.3 1.8 -12.5
v 0.2 1.8 -12.5
v -0.1 0.9 12.5
v 0 0.9 12.5
v -0.1 0.9 12.4
v 0 0.9 12.4
v -0.1 0.9 12.1
v 0 0.9 12.1
v -0.1 0.9 3.9
v 0 0.9 3.9
v -0.1 0.9 3.6
v 0 0.9 3.6
v -0.1 0.9 -4.3
v 0 0.9 -4.3
v -0.1 0.9 -4.6
v 0 0.9 -4.6
v -0.1 0.9 -12.1
v 0 0.9 -12.1
v -0.1 0.9 -12.4
v 0 0.9 -12.4
v -0.1 0.9 -12.5
v 0 0.9 -12.5
v -0.1 1.5 12.5
v 0 1.5 12.5
v -0.1 1.5 12.4
v 0 1.5 12.4
v -0.1 1.5 12.1
v 0 1.5 12.1
v -0.1 1.5 3.9
v 0 1.5 3.9
v -0.1 1.5 3.6
v 0 1.5 3.6
v -0.1 1.5 -4.3
v 0 1.5 -4.3
v -0.1 1.5 -4.6
v 0 1.5 -4.6
v -0.1 1.5 -12.1
v 0 1.5 -12.1
v -0.1 1.5 -12.4
v 0 1.5 -12.4
v -0.1 1.5 -12.5
v 0 1.5 -12.5
v -0.3 2 12.5
v 0.2 2 12.5
v -0.3 2 12
v 0.2 2 12
v -0.3 2 4
v 0.2 2 4
v -0.3 2 3.5
v 0.2 2 3.5
v -0.3 2 -4.2
v 0.2 2 -4.2
v -0.3 2 -4.7
v 0.2 2 -4.7
v -0.3 2 -12
v 0.2 2 -12
v -0.3 2 -12.5
v 0.2 2 -12.5

# faces
f 9/2/1 2/2/1 1/2/1
f 10/2/1 2/2/1 9/2/1
f 11/2/1 4/2/1 3/2/1
f 12/2/1 4/2/1 11/2/1
f 13/2/1 6/2/1 5/2/1
f 14/2/1 6/2/1 13/2/1
f 15/2/1 8/2/1 7/2/1
f 16/2/1 8/2/1 15/2/1
f 25/2/1 18/2/1 17/2/1
f 26/2/1 18/2/1 25/2/1
f 27/2/1 20/2/1 19/2/1
f 28/2/1 20/2/1 27/2/1
f 29/2/1 22/2/1 21/2/1
f 30/2/1 22/2/1 29/2/1
f 31/2/1 24/2/1 23/2/1
f 32/2/1 24/2/1 31/2/1
f 43/1/1 34/1/1 33/1/1
f 44/1/1 34/1/1 43/1/1
f 45/1/1 36/1/1 35/1/1
f 46/1/1 36/1/1 45/1/1
f 47/1/1 38/1/1 37/1/1
f 48/1/1 38/1/1 47/1/1
f 49/1/1 40/1/1 39/1/1
f 50/1/1 40/1/1 49/1/1
f 51/1/1 42/1/1 41/1/1
f 52/1/1 42/1/1 51/1/1
f 63/1/1 54/1/1 53/1/1
f 64/1/1 54/1/1 63/1/1
f 65/1/1 56/1/1 55/1/1
f 66/1/1 56/1/1 65/1/1
f 67/1/1 58/1/1 57/1/1
f 68/1/1 58/1/1 67/1/1
f 69/1/1 60/1/1 59/1/1
f 70/1/1 60/1/1 69/1/1
f 71/1/1 62/1/1 61/1/1
f 72/1/1 62/1/1 71/1/1
f 73/1/2 74/1/2 83/1/2
f 83/1/2 74/1/2 84/1/2
f 75/1/2 76/1/2 85/1/2
f 85/1/2 76/1/2 86/1/2
f 77/1/2 78/1/2 87/1/2
f 87/1/2 78/1/2 88/1/2
f 79/1/2 80/1/2 89/1/2
f 89/1/2 80/1/2 90/1/2
f 81/1/2 82/1/2 91/1/2
f 91/1/2 82/1/2 92/1/2
f 93/1/2 94/1/2 103/1/2
f 103/1/2 94/1/2 104/1/2
f 95/1/2 96/1/2 105/1/2
f 105/1/2 96/1/2 106/1/2
f 97/1/2 98/1/2 107/1/2
f 107/1/2 98/1/2 108/1/2
f 99/1/2 100/1/2 109/1/2
f 109/1/2 100/1/2 110/1/2
f 101/1/2 102/1/2 111/1/2
f 111/1/2 102/1/2 112/1/2
f 113/2/2 114/2/2 121/2/2
f 121/2/2 114/2/2 122/2/2
f 115/2/2 116/2/2 123/2/2
f 123/2/2 116/2/2 124/2/2
f 117/2/2 118/2/2 125/2/2
f 125/2/2 118/2/2 126/2/2
f 119/2/2 120/2/2 127/2/2
f 127/2/2 120/2/2 128/2/2
f 129/2/2 130/2/2 137/2/2
f 137/2/2 130/2/2 138/2/2
f 131/2/2 132/2/2 139/2/2
f 139/2/2 132/2/2 140/2/2
f 133/2/2 134/2/2 141/2/2
f 141/2/2 134/2/2 142/2/2
f 135/2/2 136/2/2 143/2/2
f 143/2/2 136/2/2 144/2/2
f 151/1/3 148/1/3 147/1/3
f 152/1/3 148/1/3 151/1/3
f 153/1/3 150/1/3 149/1/3
f 154/1/3 150/1/3 153/1/3
f 155/2/3 146/2/3 145/2/3
f 156/2/3 146/2/3 155/2/3
f 159/2/3 158/2/3 157/2/3
f 160/2/3 158/2/3 159/2/3
f 161/2/3 158/2/3 160/2/3
f 162/2/3 158/2/3 161/2/3
f 163/2/3 159/2/3 157/2/3
f 164/2/3 161/2/3 160/2/3
f 165/2/3 161/2/3 164/2/3
f 166/2/3 158/2/3 162/2/3
f 167/2/3 165/2/3 164/2/3
f 167/2/3 166/2/3 165/2/3
f 167/2/3 163/2/3 157/2/3
f 167/2/3 164/2/3 163/2/3
f 168/2/3 158/2/3 166/2/3
f 168/2/3 166/2/3 167/2/3
f 171/2/3 170/2/3 169/2/3
f 172/2/3 170/2/3 171/2/3
f 175/2/3 174/2/3 173/2/3
f 176/2/3 174/2/3 175/2/3
f 177/2/3 174/2/3 176/2/3
f 178/2/3 174/2/3 177/2/3
f 179/2/3 175/2/3 173/2/3
f 180/2/3 177/2/3 176/2/3
f 181/2/3 177/2/3 180/2/3
f 182/2/3 174/2/3 178/2/3
f 183/2/3 181/2/3 180/2/3
f 183/2/3 182/2/3 181/2/3
f 183/2/3 179/2/3 173/2/3
f 183/2/3 180/2/3 179/2/3
f 184/2/3 174/2/3 182/2/3
f 184/2/3 182/2/3 183/2/3
f 187/2/3 186/2/3 185/2/3
f 188/2/3 186/2/3 187/2/3
f 191/2/3 190/2/3 189/2/3
f 192/2/3 190/2/3 191/2/3
f 193/2/3 190/2/3 192/2/3
f 194/2/3 190/2/3 193/2/3
f 195/2/3 191/2/3 189/2/3
f 196/2/3 193/2/3 192/2/3
f 197/2/3 193/2/3 196/2/3
f 198/2/3 190/2/3 194/2/3
f 199/2/3 197/2/3 196/2/3
f 199/2/3 198/2/3 197/2/3
f 199/2/3 195/2/3 189/2/3
f 199/2/3 196/2/3 195/2/3
f 200/2/3 190/2/3 198/2/3
f 200/2/3 198/2/3 199/2/3
f 203/2/3 202/2/3 201/2/3
f 204/2/3 202/2/3 203/2/3
f 207/2/3 206/2/3 205/2/3
f 208/2/3 206/2/3 207/2/3
f 209/2/3 206/2/3 208/2/3
f 210/2/3 206/2/3 209/2/3
f 211/2/3 207/2/3 205/2/3
f 212/2/3 209/2/3 208/2/3
f 213/2/3 209/2/3 212/2/3
f 214/2/3 206/2/3 210/2/3
f 215/2/3 213/2/3 212/2/3
f 215/2/3 214/2/3 213/2/3
f 215/2/3 211/2/3 205/2/3
f 215/2/3 212/2/3 211/2/3
f 216/2/3 206/2/3 214/2/3
f 216/2/3 214/2/3 215/2/3
f 217/2/4 218/2/4 219/2/4
f 219/2/4 218/2/4 220/2/4
f 220/2/4 218/2/4 221/2/4
f 221/2/4 218/2/4 222/2/4
f 217/2/4 219/2/4 223/2/4
f 220/2/4 221/2/4 224/2/4
f 224/2/4 221/2/4 225/2/4
f 222/2/4 218/2/4 226/2/4
f 224/2/4 225/2/4 227/2/4
f 225/2/4 226/2/4 227/2/4
f 217/2/4 223/2/4 227/2/4
f 223/2/4 224/2/4 227/2/4
f 226/2/4 218/2/4 228/2/4
f 227/2/4 226/2/4 228/2/4
f 229/2/4 230/2/4 231/2/4
f 231/2/4 230/2/4 232/2/4
f 233/2/4 234/2/4 235/2/4
f 235/2/4 234/2/4 236/2/4
f 236/2/4 234/2/4 237/2/4
f 237/2/4 234/2/4 238/2/4
f 233/2/4 235/2/4 239/2/4
f 236/2/4 237/2/4 240/2/4
f 240/2/4 237/2/4 241/2/4
f 238/2/4 234/2/4 242/2/4
f 240/2/4 241/2/4 243/2/4
f 241/2/4 242/2/4 243/2/4
f 233/2/4 239/2/4 243/2/4
f 239/2/4 240/2/4 243/2/4
f 242/2/4 234/2/4 244/2/4
f 243/2/4 242/2/4 244/2/4
f 245/2/4 246/2/4 247/2/4
f 247/2/4 246/2/4 248/2/4
f 249/2/4 250/2/4 251/2/4
f 251/2/4 250/2/4 252/2/4
f 252/2/4 250/2/4 253/2/4
f 253/2/4 250/2/4 254/2/4
f 249/2/4 251/2/4 255/2/4
f 252/2/4 253/2/4 256/2/4
f 256/2/4 253/2/4 257/2/4
f 254/2/4 250/2/4 258/2/4
f 256/2/4 257/2/4 259/2/4
f 257/2/4 258/2/4 259/2/4
f 249/2/4 255/2/4 259/2/4
f 255/2/4 256/2/4 259/2/4
f 258/2/4 250/2/4 260/2/4
f 259/2/4 258/2/4 260/2/4
f 261/2/4 262/2/4 263/2/4
f 263/2/4 262/2/4 264/2/4
f 265/2/4 266/2/4 267/2/4
f 267/2/4 266/2/4 268/2/4
f 268/2/4 266/2/4 269/2/4
f 269/2/4 266/2/4 270/2/4
f 265/2/4 267/2/4 271/2/4
f 268/2/4 269/2/4 272/2/4
f 272/2/4 269/2/4 273/2/4
f 270/2/4 266/2/4 274/2/4
f 272/2/4 273/2/4 275/2/4
f 273/2/4 274/2/4 275/2/4
f 265/2/4 271/2/4 275/2/4
f 271/2/4 272/2/4 275/2/4
f 274/2/4 266/2/4 276/2/4
f 275/2/4 274/2/4 276/2/4
f 279/1/4 280/1/4 283/1/4
f 283/1/4 280/1/4 284/1/4
f 281/1/4 282/1/4 285/1/4
f 285/1/4 282/1/4 286/1/4
f 277/2/4 278/2/4 287/2/4
f 287/2/4 278/2/4 288/2/4
f 291/2/5 290/2/5 289/2/5
f 292/2/5 290/2/5 291/2/5
f 295/2/5 294/2/5 293/2/5
f 296/2/5 294/2/5 295/2/5
f 299/2/5 298/2/5 297/2/5
f 300/2/5 298/2/5 299/2/5
f 303/2/5 302/2/5 301/2/5
f 304/2/5 302/2/5 303/2/5
f 307/1/5 306/1/5 305/1/5
f 308/1/5 306/1/5 307/1/5
f 311/1/5 310/1/5 309/1/5
f 312/1/5 310/1/5 311/1/5
f 315/1/5 314/1/5 313/1/5
f 316/1/5 314/1/5 315/1/5
f 319/1/5 318/1/5 317/1/5
f 320/1/5 318/1/5 319/1/5
f 323/1/5 322/1/5 321/1/5
f 324/1/5 322/1/5 323/1/5
f 327/1/5 326/1/5 325/1/5
f 328/1/5 326/1/5 327/1/5
f 331/1/5 330/1/5 329/1/5
f 332/1/5 330/1/5 331/1/5
f 335/1/5 334/1/5 333/1/5
f 336/1/5 334/1/5 335/1/5
f 339/1/5 338/1/5 337/1/5
f 340/1/5 338/1/5 339/1/5
f 343/1/5 342/1/5 341/1/5
f 344/1/5 342/1/5 343/1/5
f 347/2/5 346/2/5 345/2/5
f 348/2/5 346/2/5 347/2/5
f 349/2/5 347/2/5 345/2/5
f 350/2/5 346/2/5 348/2/5
f 351/2/5 349/2/5 345/2/5
f 351/2/5 350/2/5 349/2/5
f 352/2/5 346/2/5 350/2/5
f 352/2/5 350/2/5 351/2/5
f 355/2/5 354/2/5 353/2/5
f 356/2/5 354/2/5 355/2/5
f 357/2/5 355/2/5 353/2/5
f 358/2/5 354/2/5 356/2/5
f 359/2/5 357/2/5 353/2/5
f 359/2/5 358/2/5 357/2/5
f 360/2/5 354/2/5 358/2/5
f 360/2/5 358/2/5 359/2/5
f 363/2/5 362/2/5 361/2/5
f 364/2/5 362/2/5 363/2/5
f 365/2/5 363/2/5 361/2/5
f 366/2/5 362/2/5 364/2/5
f 367/2/5 365/2/5 361/2/5
f 367/2/5 366/2/5 365/2/5
f 368/2/5 362/2/5 366/2/5
f 368/2/5 366/2/5 367/2/5
f 371/2/5 370/2/5 369/2/5
f 372/2/5 370/2/5 371/2/5
f 373/2/5 371/2/5 369/2/5
f 374/2/5 370/2/5 372/2/5
f 375/2/5 373/2/5 369/2/5
f 375/2/5 374/2/5 373/2/5
f 376/2/5 370/2/5 374/2/5
f 376/2/5 374/2/5 375/2/5
f 377/1/6 378/1/6 379/1/6
f 379/1/6 378/1/6 380/1/6
f 381/1/6 382/1/6 383/1/6
f 383/1/6 382/1/6 384/1/6
f 385/1/6 386/1/6 387/1/6
f 387/1/6 386/1/6 388/1/6
f 389/1/6 390/1/6 391/1/6
f 391/1/6 390/1/6 392/1/6
f 393/1/6 394/1/6 395/1/6
f 395/1/6 394/1/6 396/1/6
f 397/1/6 398/1/6 399/1/6
f 399/1/6 398/1/6 400/1/6
f 401/1/6 402/1/6 403/1/6
f 403/1/6 402/1/6 404/1/6
f 405/1/6 406/1/6 407/1/6
f 407/1/6 406/1/6 408/1/6
f 409/1/6 410/1/6 411/1/6
f 411/1/6 410/1/6 412/1/6
f 413/1/6 414/1/6 415/1/6
f 415/1/6 414/1/6 416/1/6
f 417/2/6 418/2/6 419/2/6
f 419/2/6 418/2/6 420/2/6
f 421/2/6 422/2/6 423/2/6
f 423/2/6 422/2/6 424/2/6
f 425/2/6 426/2/6 427/2/6
f 427/2/6 426/2/6 428/2/6
f 429/2/6 430/2/6 431/2/6
f 431/2/6 430/2/6 432/2/6
