# MagicaVoxel @ Ephtracy

# group
o 

# material
mtllib Tool Axe.mtl
usemtl palette

# normals
vn -1 0 0
vn 1 0 0
vn 0 0 1
vn 0 0 -1
vn 0 -1 0
vn 0 1 0

# texcoords
vt 0.369141 0.5
vt 0.974609 0.5
vt 0.982422 0.5

# verts
v -0.2 1.1 -0.2
v -0.2 1.1 -0.4
v -0.2 1.5 -0.2
v -0.2 1.5 -0.4
v -0.1 0 -0.3
v -0.1 0 -0.4
v -0.1 1.1 0.2
v -0.1 1.1 0.1
v -0.1 1.1 -0.2
v -0.1 1.1 -0.3
v -0.1 1.1 -0.4
v -0.1 1.1 -0.5
v -0.1 1.5 0.2
v -0.1 1.5 0.1
v -0.1 1.5 -0.2
v -0.1 1.5 -0.4
v -0.1 1.5 -0.5
v 0 0 -0.3
v 0 0 -0.4
v 0 1.1 0.2
v 0 1.1 0.1
v 0 1.1 -0.2
v 0 1.1 -0.3
v 0 1.1 -0.4
v 0 1.1 -0.5
v 0 1.5 0.2
v 0 1.5 0.1
v 0 1.5 -0.2
v 0 1.5 -0.4
v 0 1.5 -0.5
v 0.1 1.1 -0.2
v 0.1 1.1 -0.4
v 0.1 1.5 -0.2
v 0.1 1.5 -0.4
v -0.1 1.1 0.2
v -0.1 1.5 0.2
v 0 1.1 0.2
v 0 1.5 0.2
v -0.2 1.1 -0.2
v -0.2 1.5 -0.2
v -0.1 1.1 -0.2
v -0.1 1.5 -0.2
v 0 1.1 -0.2
v 0 1.5 -0.2
v 0.1 1.1 -0.2
v 0.1 1.5 -0.2
v -0.1 0 -0.3
v -0.1 1.1 -0.3
v 0 0 -0.3
v 0 1.1 -0.3
v -0.2 1.1 -0.4
v -0.2 1.5 -0.4
v -0.1 0 -0.4
v -0.1 1.1 -0.4
v -0.1 1.5 -0.4
v 0 0 -0.4
v 0 1.1 -0.4
v 0 1.5 -0.4
v 0.1 1.1 -0.4
v 0.1 1.5 -0.4
v -0.1 1.1 -0.5
v -0.1 1.5 -0.5
v 0 1.1 -0.5
v 0 1.5 -0.5
v -0.1 0 -0.3
v 0 0 -0.3
v -0.1 0 -0.4
v 0 0 -0.4
v -0.1 1.1 0.2
v 0 1.1 0.2
v -0.1 1.1 0.1
v 0 1.1 0.1
v -0.2 1.1 -0.2
v -0.1 1.1 -0.2
v 0 1.1 -0.2
v 0.1 1.1 -0.2
v -0.1 1.1 -0.3
v 0 1.1 -0.3
v -0.2 1.1 -0.4
v -0.1 1.1 -0.4
v 0 1.1 -0.4
v 0.1 1.1 -0.4
v -0.1 1.1 -0.5
v 0 1.1 -0.5
v -0.1 1.5 0.2
v 0 1.5 0.2
v -0.1 1.5 0.1
v 0 1.5 0.1
v -0.2 1.5 -0.2
v -0.1 1.5 -0.2
v 0 1.5 -0.2
v 0.1 1.5 -0.2
v -0.1 1.5 -0.3
v 0 1.5 -0.3
v -0.2 1.5 -0.4
v -0.1 1.5 -0.4
v 0 1.5 -0.4
v 0.1 1.5 -0.4
v -0.1 1.5 -0.5
v 0 1.5 -0.5

# faces
f 3/3/1 2/3/1 1/3/1
f 4/3/1 2/3/1 3/3/1
f 10/1/1 6/1/1 5/1/1
f 11/1/1 6/1/1 10/1/1
f 13/2/1 8/2/1 7/2/1
f 14/3/1 9/3/1 8/3/1
f 14/2/1 8/2/1 13/2/1
f 15/3/1 9/3/1 14/3/1
f 16/3/1 12/3/1 11/3/1
f 17/3/1 12/3/1 16/3/1
f 18/1/2 19/1/2 23/1/2
f 23/1/2 19/1/2 24/1/2
f 20/2/2 21/2/2 26/2/2
f 21/3/2 22/3/2 27/3/2
f 26/2/2 21/2/2 27/2/2
f 27/3/2 22/3/2 28/3/2
f 24/3/2 25/3/2 29/3/2
f 29/3/2 25/3/2 30/3/2
f 31/3/2 32/3/2 33/3/2
f 33/3/2 32/3/2 34/3/2
f 37/2/3 36/2/3 35/2/3
f 38/2/3 36/2/3 37/2/3
f 41/3/3 40/3/3 39/3/3
f 42/3/3 40/3/3 41/3/3
f 45/3/3 44/3/3 43/3/3
f 46/3/3 44/3/3 45/3/3
f 49/1/3 48/1/3 47/1/3
f 50/1/3 48/1/3 49/1/3
f 51/3/4 52/3/4 54/3/4
f 54/3/4 52/3/4 55/3/4
f 53/1/4 54/1/4 56/1/4
f 56/1/4 54/1/4 57/1/4
f 57/3/4 58/3/4 59/3/4
f 59/3/4 58/3/4 60/3/4
f 61/3/4 62/3/4 63/3/4
f 63/3/4 62/3/4 64/3/4
f 67/1/5 66/1/5 65/1/5
f 68/1/5 66/1/5 67/1/5
f 71/2/5 70/2/5 69/2/5
f 72/2/5 70/2/5 71/2/5
f 74/3/5 72/3/5 71/3/5
f 75/3/5 72/3/5 74/3/5
f 77/3/5 75/3/5 74/3/5
f 77/3/5 76/3/5 75/3/5
f 77/3/5 74/3/5 73/3/5
f 78/3/5 76/3/5 77/3/5
f 79/3/5 77/3/5 73/3/5
f 80/3/5 77/3/5 79/3/5
f 81/3/5 76/3/5 78/3/5
f 82/3/5 76/3/5 81/3/5
f 83/3/5 81/3/5 80/3/5
f 84/3/5 81/3/5 83/3/5
f 85/2/6 86/2/6 87/2/6
f 87/2/6 86/2/6 88/2/6
f 87/3/6 88/3/6 90/3/6
f 90/3/6 88/3/6 91/3/6
f 90/3/6 91/3/6 93/3/6
f 91/3/6 92/3/6 93/3/6
f 89/3/6 90/3/6 93/3/6
f 93/3/6 92/3/6 94/3/6
f 89/3/6 93/3/6 95/3/6
f 93/1/6 94/1/6 96/1/6
f 95/3/6 93/3/6 96/3/6
f 94/3/6 92/3/6 97/3/6
f 96/1/6 94/1/6 97/1/6
f 97/3/6 92/3/6 98/3/6
f 96/3/6 97/3/6 99/3/6
f 99/3/6 97/3/6 100/3/6
