# MagicaVoxel @ Ephtracy

# group
o 

# material
mtllib Tools Fishing Rod.mtl
usemtl palette

# normals
vn -1 0 0
vn 1 0 0
vn 0 0 1
vn 0 0 -1
vn 0 -1 0
vn 0 1 0

# texcoords
vt 0.0449219 0.5
vt 0.373047 0.5
vt 0.845703 0.5
vt 0.962891 0.5
vt 0.974609 0.5
vt 0.978516 0.5
vt 0.986328 0.5

# verts
v -0.1 0.3 0.2
v -0.1 0.3 0.1
v -0.1 0.4 0.2
v -0.1 0.4 0.1
v 0 0 0.3
v 0 0 0.2
v 0 0.3 0.2
v 0 0.4 0.2
v 0 0.6 0.4
v 0 0.6 0.3
v 0 0.7 0.4
v 0 0.7 0.3
v 0 0.9 -0.2
v 0 0.9 -0.3
v 0 1 0.4
v 0 1 0.3
v 0 1 -0.2
v 0 1 -0.3
v 0 1.1 0.4
v 0 1.1 0.3
v 0 1.1 0.2
v 0 1.1 0.1
v 0 1.2 0.3
v 0 1.2 0.2
v 0 1.2 -0.2
v 0 1.2 -0.3
v 0 1.3 0.1
v 0 1.3 0
v 0 1.3 -0.2
v 0 1.3 -0.3
v 0 1.4 0.2
v 0 1.4 0.1
v 0 1.5 0.2
v 0 1.5 0.1
v 0 1.5 0
v 0 1.5 -0.1
v 0 1.6 0.2
v 0 1.6 0.1
v 0 1.6 0
v 0 1.7 -0.1
v 0 1.7 -0.2
v 0 1.8 0
v 0 1.8 -0.1
v 0 1.9 0
v 0 1.9 -0.1
v 0 2 0
v 0 2 -0.1
v 0 2 -0.2
v 0 2 -0.3
v 0.1 0 0.3
v 0.1 0 0.2
v 0.1 0.3 0.2
v 0.1 0.4 0.2
v 0.1 0.6 0.4
v 0.1 0.6 0.3
v 0.1 0.7 0.4
v 0.1 0.7 0.3
v 0.1 0.9 -0.2
v 0.1 0.9 -0.3
v 0.1 1 0.4
v 0.1 1 0.3
v 0.1 1 -0.2
v 0.1 1 -0.3
v 0.1 1.1 0.4
v 0.1 1.1 0.3
v 0.1 1.1 0.2
v 0.1 1.1 0.1
v 0.1 1.2 0.3
v 0.1 1.2 0.2
v 0.1 1.2 -0.2
v 0.1 1.2 -0.3
v 0.1 1.3 0.1
v 0.1 1.3 0
v 0.1 1.3 -0.2
v 0.1 1.3 -0.3
v 0.1 1.4 0.2
v 0.1 1.4 0.1
v 0.1 1.5 0.2
v 0.1 1.5 0.1
v 0.1 1.5 0
v 0.1 1.5 -0.1
v 0.1 1.6 0.2
v 0.1 1.6 0.1
v 0.1 1.6 0
v 0.1 1.7 -0.1
v 0.1 1.7 -0.2
v 0.1 1.8 0
v 0.1 1.8 -0.1
v 0.1 1.9 0
v 0.1 1.9 -0.1
v 0.1 2 0
v 0.1 2 -0.1
v 0.1 2 -0.2
v 0.1 2 -0.3
v 0.2 0.3 0.2
v 0.2 0.3 0.1
v 0.2 0.4 0.2
v 0.2 0.4 0.1
v 0 0.6 0.4
v 0 0.7 0.4
v 0 1 0.4
v 0 1.1 0.4
v 0.1 0.6 0.4
v 0.1 0.7 0.4
v 0.1 1 0.4
v 0.1 1.1 0.4
v 0 0 0.3
v 0 0.6 0.3
v 0 0.7 0.3
v 0 1 0.3
v 0 1.1 0.3
v 0 1.2 0.3
v 0.1 0 0.3
v 0.1 0.6 0.3
v 0.1 0.7 0.3
v 0.1 1 0.3
v 0.1 1.1 0.3
v 0.1 1.2 0.3
v -0.1 0.3 0.2
v -0.1 0.4 0.2
v 0 0.3 0.2
v 0 0.4 0.2
v 0 1.2 0.2
v 0 1.4 0.2
v 0 1.5 0.2
v 0 1.6 0.2
v 0.1 0.3 0.2
v 0.1 0.4 0.2
v 0.1 1.2 0.2
v 0.1 1.4 0.2
v 0.1 1.5 0.2
v 0.1 1.6 0.2
v 0.2 0.3 0.2
v 0.2 0.4 0.2
v 0 1.4 0.1
v 0 1.5 0.1
v 0.1 1.4 0.1
v 0.1 1.5 0.1
v 0 1.6 0
v 0 1.8 0
v 0 1.9 0
v 0 2 0
v 0.1 1.6 0
v 0.1 1.8 0
v 0.1 1.9 0
v 0.1 2 0
v 0 1.8 -0.1
v 0 1.9 -0.1
v 0.1 1.8 -0.1
v 0.1 1.9 -0.1
v 0 0.9 -0.2
v 0 1 -0.2
v 0 1.2 -0.2
v 0 1.3 -0.2
v 0 1.7 -0.2
v 0.1 0.9 -0.2
v 0.1 1 -0.2
v 0.1 1.2 -0.2
v 0.1 1.3 -0.2
v 0.1 1.7 -0.2
v 0 0 0.2
v 0 0.3 0.2
v 0 0.4 0.2
v 0 1.1 0.2
v 0.1 0 0.2
v 0.1 0.3 0.2
v 0.1 0.4 0.2
v 0.1 1.1 0.2
v -0.1 0.3 0.1
v -0.1 0.4 0.1
v 0 0.3 0.1
v 0 0.4 0.1
v 0 1.1 0.1
v 0 1.3 0.1
v 0.1 0.3 0.1
v 0.1 0.4 0.1
v 0.1 1.1 0.1
v 0.1 1.3 0.1
v 0.2 0.3 0.1
v 0.2 0.4 0.1
v 0 1.3 0
v 0 1.5 0
v 0.1 1.3 0
v 0.1 1.5 0
v 0 1.5 -0.1
v 0 1.7 -0.1
v 0.1 1.5 -0.1
v 0.1 1.7 -0.1
v 0 0.9 -0.3
v 0 1 -0.3
v 0 1.2 -0.3
v 0 1.3 -0.3
v 0 2 -0.3
v 0.1 0.9 -0.3
v 0.1 1 -0.3
v 0.1 1.2 -0.3
v 0.1 1.3 -0.3
v 0.1 2 -0.3
v 0 0 0.3
v 0.1 0 0.3
v 0 0 0.2
v 0.1 0 0.2
v -0.1 0.3 0.2
v 0 0.3 0.2
v 0.1 0.3 0.2
v 0.2 0.3 0.2
v -0.1 0.3 0.1
v 0 0.3 0.1
v 0.1 0.3 0.1
v 0.2 0.3 0.1
v 0 0.6 0.4
v 0.1 0.6 0.4
v 0 0.6 0.3
v 0.1 0.6 0.3
v 0 0.9 -0.2
v 0.1 0.9 -0.2
v 0 0.9 -0.3
v 0.1 0.9 -0.3
v 0 1 0.4
v 0.1 1 0.4
v 0 1 0.3
v 0.1 1 0.3
v 0 1.1 0.2
v 0.1 1.1 0.2
v 0 1.1 0.1
v 0.1 1.1 0.1
v 0 1.3 0.1
v 0.1 1.3 0.1
v 0 1.3 0
v 0.1 1.3 0
v 0 1.5 0.2
v 0.1 1.5 0.2
v 0 1.5 0.1
v 0.1 1.5 0.1
v 0 1.5 0
v 0.1 1.5 0
v 0 1.5 -0.1
v 0.1 1.5 -0.1
v 0 1.7 -0.1
v 0.1 1.7 -0.1
v 0 1.7 -0.2
v 0.1 1.7 -0.2
v 0 1.9 0
v 0.1 1.9 0
v 0 1.9 -0.1
v 0.1 1.9 -0.1
v -0.1 0.4 0.2
v 0 0.4 0.2
v 0.1 0.4 0.2
v 0.2 0.4 0.2
v -0.1 0.4 0.1
v 0 0.4 0.1
v 0.1 0.4 0.1
v 0.2 0.4 0.1
v 0 0.7 0.4
v 0.1 0.7 0.4
v 0 0.7 0.3
v 0.1 0.7 0.3
v 0 1.1 0.4
v 0.1 1.1 0.4
v 0 1.1 0.3
v 0.1 1.1 0.3
v 0 1.2 0.3
v 0.1 1.2 0.3
v 0 1.2 0.2
v 0.1 1.2 0.2
v 0 1.4 0.2
v 0.1 1.4 0.2
v 0 1.4 0.1
v 0.1 1.4 0.1
v 0 1.6 0.2
v 0.1 1.6 0.2
v 0 1.6 0.1
v 0.1 1.6 0.1
v 0 1.6 0
v 0.1 1.6 0
v 0 1.8 0
v 0.1 1.8 0
v 0 1.8 -0.1
v 0.1 1.8 -0.1
v 0 2 0
v 0.1 2 0
v 0 2 -0.1
v 0.1 2 -0.1
v 0 2 -0.2
v 0.1 2 -0.2
v 0 2 -0.3
v 0.1 2 -0.3

# faces
f 3/5/1 2/5/1 1/5/1
f 4/5/1 2/5/1 3/5/1
f 7/2/1 6/2/1 5/2/1
f 8/2/1 7/2/1 5/2/1
f 10/2/1 8/2/1 5/2/1
f 11/1/1 10/1/1 9/1/1
f 12/2/1 8/2/1 10/2/1
f 12/1/1 10/1/1 11/1/1
f 16/2/1 8/2/1 12/2/1
f 17/6/1 14/6/1 13/6/1
f 18/6/1 14/6/1 17/6/1
f 19/1/1 16/1/1 15/1/1
f 20/2/1 8/2/1 16/2/1
f 20/1/1 16/1/1 19/1/1
f 21/2/1 8/2/1 20/2/1
f 23/2/1 22/2/1 21/2/1
f 23/2/1 21/2/1 20/2/1
f 24/2/1 22/2/1 23/2/1
f 25/4/1 18/4/1 17/4/1
f 26/4/1 18/4/1 25/4/1
f 27/2/1 22/2/1 24/2/1
f 29/3/1 26/3/1 25/3/1
f 30/3/1 26/3/1 29/3/1
f 31/2/1 28/2/1 27/2/1
f 31/2/1 27/2/1 24/2/1
f 32/2/1 28/2/1 31/2/1
f 34/2/1 28/2/1 32/2/1
f 35/2/1 28/2/1 34/2/1
f 37/1/1 34/1/1 33/1/1
f 38/2/1 36/2/1 35/2/1
f 38/1/1 34/1/1 37/1/1
f 38/2/1 35/2/1 34/2/1
f 39/2/1 36/2/1 38/2/1
f 40/2/1 36/2/1 39/2/1
f 41/4/1 30/4/1 29/4/1
f 42/2/1 40/2/1 39/2/1
f 42/2/1 41/2/1 40/2/1
f 43/2/1 41/2/1 42/2/1
f 45/2/1 41/2/1 43/2/1
f 46/1/1 45/1/1 44/1/1
f 47/2/1 41/2/1 45/2/1
f 47/1/1 45/1/1 46/1/1
f 48/4/1 30/4/1 41/4/1
f 48/2/1 41/2/1 47/2/1
f 49/4/1 30/4/1 48/4/1
f 50/2/2 51/2/2 52/2/2
f 50/2/2 52/2/2 53/2/2
f 50/2/2 53/2/2 55/2/2
f 54/1/2 55/1/2 56/1/2
f 55/2/2 53/2/2 57/2/2
f 56/1/2 55/1/2 57/1/2
f 57/2/2 53/2/2 61/2/2
f 58/6/2 59/6/2 62/6/2
f 62/6/2 59/6/2 63/6/2
f 60/1/2 61/1/2 64/1/2
f 61/2/2 53/2/2 65/2/2
f 64/1/2 61/1/2 65/1/2
f 65/2/2 53/2/2 66/2/2
f 66/2/2 67/2/2 68/2/2
f 65/2/2 66/2/2 68/2/2
f 68/2/2 67/2/2 69/2/2
f 62/4/2 63/4/2 70/4/2
f 70/4/2 63/4/2 71/4/2
f 69/2/2 67/2/2 72/2/2
f 70/3/2 71/3/2 74/3/2
f 74/3/2 71/3/2 75/3/2
f 72/2/2 73/2/2 76/2/2
f 69/2/2 72/2/2 76/2/2
f 76/2/2 73/2/2 77/2/2
f 77/2/2 73/2/2 79/2/2
f 79/2/2 73/2/2 80/2/2
f 78/1/2 79/1/2 82/1/2
f 80/2/2 81/2/2 83/2/2
f 82/1/2 79/1/2 83/1/2
f 79/2/2 80/2/2 83/2/2
f 83/2/2 81/2/2 84/2/2
f 84/2/2 81/2/2 85/2/2
f 74/4/2 75/4/2 86/4/2
f 84/2/2 85/2/2 87/2/2
f 85/2/2 86/2/2 87/2/2
f 87/2/2 86/2/2 88/2/2
f 88/2/2 86/2/2 90/2/2
f 89/1/2 90/1/2 91/1/2
f 90/2/2 86/2/2 92/2/2
f 91/1/2 90/1/2 92/1/2
f 86/4/2 75/4/2 93/4/2
f 92/2/2 86/2/2 93/2/2
f 93/4/2 75/4/2 94/4/2
f 95/5/2 96/5/2 97/5/2
f 97/5/2 96/5/2 98/5/2
f 103/1/3 100/1/3 99/1/3
f 104/1/3 100/1/3 103/1/3
f 105/1/3 102/1/3 101/1/3
f 106/1/3 102/1/3 105/1/3
f 113/2/3 108/2/3 107/2/3
f 114/2/3 108/2/3 113/2/3
f 115/2/3 110/2/3 109/2/3
f 116/2/3 110/2/3 115/2/3
f 117/2/3 112/2/3 111/2/3
f 118/2/3 112/2/3 117/2/3
f 121/5/3 120/5/3 119/5/3
f 122/5/3 120/5/3 121/5/3
f 129/2/3 124/2/3 123/2/3
f 130/2/3 124/2/3 129/2/3
f 131/1/3 126/1/3 125/1/3
f 132/1/3 126/1/3 131/1/3
f 133/5/3 128/5/3 127/5/3
f 134/5/3 128/5/3 133/5/3
f 137/2/3 136/2/3 135/2/3
f 138/2/3 136/2/3 137/2/3
f 143/2/3 140/2/3 139/2/3
f 144/2/3 140/2/3 143/2/3
f 145/1/3 142/1/3 141/1/3
f 146/1/3 142/1/3 145/1/3
f 149/2/3 148/2/3 147/2/3
f 150/2/3 148/2/3 149/2/3
f 156/6/3 152/6/3 151/6/3
f 157/4/3 153/4/3 152/4/3
f 157/6/3 152/6/3 156/6/3
f 158/3/3 154/3/3 153/3/3
f 158/4/3 153/4/3 157/4/3
f 159/4/3 155/4/3 154/4/3
f 159/3/3 154/3/3 158/3/3
f 160/4/3 155/4/3 159/4/3
f 161/2/4 162/2/4 165/2/4
f 165/2/4 162/2/4 166/2/4
f 163/2/4 164/2/4 167/2/4
f 167/2/4 164/2/4 168/2/4
f 169/5/4 170/5/4 171/5/4
f 171/5/4 170/5/4 172/5/4
f 171/7/4 172/7/4 175/7/4
f 175/7/4 172/7/4 176/7/4
f 173/2/4 174/2/4 177/2/4
f 177/2/4 174/2/4 178/2/4
f 175/5/4 176/5/4 179/5/4
f 179/5/4 176/5/4 180/5/4
f 181/2/4 182/2/4 183/2/4
f 183/2/4 182/2/4 184/2/4
f 185/2/4 186/2/4 187/2/4
f 187/2/4 186/2/4 188/2/4
f 189/6/4 190/6/4 194/6/4
f 190/4/4 191/4/4 195/4/4
f 194/6/4 190/6/4 195/6/4
f 191/3/4 192/3/4 196/3/4
f 195/4/4 191/4/4 196/4/4
f 192/4/4 193/4/4 197/4/4
f 196/3/4 192/3/4 197/3/4
f 197/4/4 193/4/4 198/4/4
f 201/2/5 200/2/5 199/2/5
f 202/2/5 200/2/5 201/2/5
f 207/5/5 204/5/5 203/5/5
f 208/7/5 205/7/5 204/7/5
f 208/5/5 204/5/5 207/5/5
f 209/5/5 206/5/5 205/5/5
f 209/7/5 205/7/5 208/7/5
f 210/5/5 206/5/5 209/5/5
f 213/1/5 212/1/5 211/1/5
f 214/1/5 212/1/5 213/1/5
f 217/6/5 216/6/5 215/6/5
f 218/6/5 216/6/5 217/6/5
f 221/1/5 220/1/5 219/1/5
f 222/1/5 220/1/5 221/1/5
f 225/2/5 224/2/5 223/2/5
f 226/2/5 224/2/5 225/2/5
f 229/2/5 228/2/5 227/2/5
f 230/2/5 228/2/5 229/2/5
f 233/1/5 232/1/5 231/1/5
f 234/1/5 232/1/5 233/1/5
f 237/2/5 236/2/5 235/2/5
f 238/2/5 236/2/5 237/2/5
f 241/2/5 240/2/5 239/2/5
f 242/2/5 240/2/5 241/2/5
f 245/1/5 244/1/5 243/1/5
f 246/1/5 244/1/5 245/1/5
f 247/5/6 248/5/6 251/5/6
f 248/7/6 249/7/6 252/7/6
f 251/5/6 248/5/6 252/5/6
f 249/5/6 250/5/6 253/5/6
f 252/7/6 249/7/6 253/7/6
f 253/5/6 250/5/6 254/5/6
f 255/1/6 256/1/6 257/1/6
f 257/1/6 256/1/6 258/1/6
f 259/1/6 260/1/6 261/1/6
f 261/1/6 260/1/6 262/1/6
f 263/2/6 264/2/6 265/2/6
f 265/2/6 264/2/6 266/2/6
f 267/2/6 268/2/6 269/2/6
f 269/2/6 268/2/6 270/2/6
f 271/1/6 272/1/6 273/1/6
f 273/1/6 272/1/6 274/1/6
f 273/2/6 274/2/6 275/2/6
f 275/2/6 274/2/6 276/2/6
f 277/2/6 278/2/6 279/2/6
f 279/2/6 278/2/6 280/2/6
f 281/1/6 282/1/6 283/1/6
f 283/1/6 282/1/6 284/1/6
f 283/2/6 284/2/6 285/2/6
f 285/2/6 284/2/6 286/2/6
f 285/4/6 286/4/6 287/4/6
f 287/4/6 286/4/6 288/4/6
