# MagicaVoxel @ Ephtracy

# group
o 

# material
mtllib Tool shovel.mtl
usemtl palette

# normals
vn -1 0 0
vn 1 0 0
vn 0 0 1
vn 0 0 -1
vn 0 -1 0
vn 0 1 0

# texcoords
vt 0.373047 0.5
vt 0.970703 0.5
vt 0.986328 0.5

# verts
v -0.2 0 -0.4
v -0.2 0 -0.5
v -0.2 0.1 -0.4
v -0.2 0.1 -0.5
v -0.2 0.5 -0.4
v -0.2 0.5 -0.5
v 0 0.5 -0.4
v 0 0.5 -0.5
v 0 2 -0.4
v 0 2 -0.5
v 0.1 0.5 -0.4
v 0.1 0.5 -0.5
v 0.1 2 -0.4
v 0.1 2 -0.5
v 0.3 0 -0.4
v 0.3 0 -0.5
v 0.3 0.1 -0.4
v 0.3 0.1 -0.5
v 0.3 0.5 -0.4
v 0.3 0.5 -0.5
v -0.2 0 -0.4
v -0.2 0.1 -0.4
v -0.2 0.5 -0.4
v 0 0.5 -0.4
v 0 2 -0.4
v 0.1 0.5 -0.4
v 0.1 2 -0.4
v 0.3 0 -0.4
v 0.3 0.1 -0.4
v 0.3 0.5 -0.4
v -0.2 0 -0.5
v -0.2 0.1 -0.5
v -0.2 0.5 -0.5
v 0 0.5 -0.5
v 0 2 -0.5
v 0.1 0.5 -0.5
v 0.1 2 -0.5
v 0.3 0 -0.5
v 0.3 0.1 -0.5
v 0.3 0.5 -0.5
v -0.2 0 -0.4
v 0.3 0 -0.4
v -0.2 0 -0.5
v 0.3 0 -0.5
v -0.2 0.5 -0.4
v 0 0.5 -0.4
v 0.1 0.5 -0.4
v 0.3 0.5 -0.4
v -0.2 0.5 -0.5
v 0 0.5 -0.5
v 0.1 0.5 -0.5
v 0.3 0.5 -0.5
v 0 2 -0.4
v 0.1 2 -0.4
v 0 2 -0.5
v 0.1 2 -0.5

# faces
f 3/2/1 2/2/1 1/2/1
f 4/2/1 2/2/1 3/2/1
f 5/3/1 4/3/1 3/3/1
f 6/3/1 4/3/1 5/3/1
f 9/1/1 8/1/1 7/1/1
f 10/1/1 8/1/1 9/1/1
f 11/1/2 12/1/2 13/1/2
f 13/1/2 12/1/2 14/1/2
f 15/2/2 16/2/2 17/2/2
f 17/2/2 16/2/2 18/2/2
f 17/3/2 18/3/2 19/3/2
f 19/3/2 18/3/2 20/3/2
f 24/3/3 23/3/3 22/3/3
f 26/3/3 24/3/3 22/3/3
f 26/1/3 25/1/3 24/1/3
f 27/1/3 25/1/3 26/1/3
f 28/2/3 22/2/3 21/2/3
f 29/3/3 26/3/3 22/3/3
f 29/2/3 22/2/3 28/2/3
f 30/3/3 26/3/3 29/3/3
f 32/3/4 33/3/4 34/3/4
f 32/3/4 34/3/4 36/3/4
f 34/1/4 35/1/4 36/1/4
f 36/1/4 35/1/4 37/1/4
f 31/2/4 32/2/4 38/2/4
f 32/3/4 36/3/4 39/3/4
f 38/2/4 32/2/4 39/2/4
f 39/3/4 36/3/4 40/3/4
f 43/2/5 42/2/5 41/2/5
f 44/2/5 42/2/5 43/2/5
f 45/3/6 46/3/6 49/3/6
f 49/3/6 46/3/6 50/3/6
f 47/3/6 48/3/6 51/3/6
f 51/3/6 48/3/6 52/3/6
f 53/1/6 54/1/6 55/1/6
f 55/1/6 54/1/6 56/1/6
