# MagicaVoxel @ Ephtracy

# group
o 

# material
mtllib Guy1.mtl
usemtl palette

# normals
vn -1 0 0
vn 1 0 0
vn 0 0 1
vn 0 0 -1
vn 0 -1 0
vn 0 1 0

# texcoords
vt 0.0332031 0.5
vt 0.0683594 0.5
vt 0.369141 0.5
vt 0.939453 0.5
vt 0.943359 0.5
vt 0.947266 0.5
vt 0.958984 0.5
vt 0.962891 0.5
vt 0.970703 0.5
vt 0.974609 0.5
vt 0.994141 0.5

# verts
v -1.2 0 1
v -1.2 0 0.9
v -1.2 0.1 1
v -1.2 0.1 0.9
v -1.2 0.2 1
v -1.2 0.2 0.9
v -1.2 0.3 1.1
v -1.2 0.3 1
v -1.2 0.3 0.9
v -1.2 0.3 0.8
v -1.2 0.4 1.1
v -1.2 0.4 1
v -1.2 0.4 0.9
v -1.2 0.4 0.8
v -1.2 0.5 1.1
v -1.2 0.5 1
v -1.2 0.6 1.1
v -1.2 0.6 1
v -1.2 0.6 0.9
v -1.2 0.6 0.8
v -1.2 0.7 1.1
v -1.2 0.7 1
v -1.2 0.7 0.9
v -1.2 0.7 0.8
v -1.2 0.8 1.1
v -1.2 0.8 1
v -1.2 0.8 0.9
v -1.2 0.8 0.8
v -1.2 0.9 1.1
v -1.2 0.9 1
v -1.2 1 1.1
v -1.2 1 1
v -1.2 1.1 1.1
v -1.2 1.1 1
v -1.2 1.1 0.9
v -1.2 1.1 0.8
v -1.2 1.2 1
v -1.2 1.2 0.9
v -1.1 0.7 0.9
v -1.1 0.7 0.8
v -1.1 0.8 0.9
v -1.1 0.8 0.8
v -1.1 1.1 1.1
v -1.1 1.1 1
v -1.1 1.1 0.9
v -1.1 1.1 0.8
v -1.1 1.2 1.1
v -1.1 1.2 1
v -1.1 1.2 0.9
v -1.1 1.2 0.8
v -0.9 0 1
v -0.9 0 0.9
v -0.9 0.1 1
v -0.9 0.1 0.9
v -0.9 0.2 1
v -0.9 0.2 0.9
v -0.9 0.3 1
v -0.9 0.3 0.9
v -1.1 0 1
v -1.1 0 0.9
v -1.1 0.1 1
v -1.1 0.1 0.9
v -1.1 0.2 1
v -1.1 0.2 0.9
v -1.1 0.3 1
v -1.1 0.3 0.9
v -0.9 0.7 0.9
v -0.9 0.7 0.8
v -0.9 0.8 0.9
v -0.9 0.8 0.8
v -0.9 1.1 1.1
v -0.9 1.1 1
v -0.9 1.1 0.9
v -0.9 1.1 0.8
v -0.9 1.2 1.1
v -0.9 1.2 1
v -0.9 1.2 0.9
v -0.9 1.2 0.8
v -0.8 0 1
v -0.8 0 0.9
v -0.8 0.1 1
v -0.8 0.1 0.9
v -0.8 0.2 1
v -0.8 0.2 0.9
v -0.8 0.3 1.1
v -0.8 0.3 1
v -0.8 0.3 0.9
v -0.8 0.3 0.8
v -0.8 0.4 1.1
v -0.8 0.4 1
v -0.8 0.4 0.9
v -0.8 0.4 0.8
v -0.8 0.5 1.1
v -0.8 0.5 1
v -0.8 0.5 0.9
v -0.8 0.7 1.1
v -0.8 0.7 1
v -0.8 0.7 0.9
v -0.8 0.7 0.8
v -0.8 0.8 1.1
v -0.8 0.8 1
v -0.8 0.8 0.9
v -0.8 0.8 0.8
v -0.8 0.9 1.1
v -0.8 0.9 1
v -0.8 1 1.1
v -0.8 1 1
v -0.8 1.1 1.1
v -0.8 1.1 1
v -0.8 1.1 0.9
v -0.8 1.1 0.8
v -0.8 1.2 1
v -0.8 1.2 0.9
v -1.2 0.3 1.1
v -1.2 0.4 1.1
v -1.2 0.5 1.1
v -1.2 0.6 1.1
v -1.2 0.7 1.1
v -1.2 0.8 1.1
v -1.2 0.9 1.1
v -1.2 1 1.1
v -1.2 1.1 1.1
v -1.1 0.3 1.1
v -1.1 0.4 1.1
v -1.1 0.5 1.1
v -1.1 0.6 1.1
v -1.1 0.8 1.1
v -1.1 0.9 1.1
v -1.1 1.1 1.1
v -1.1 1.2 1.1
v -1 0.3 1.1
v -1 0.4 1.1
v -1 0.6 1.1
v -1 0.7 1.1
v -0.9 0.4 1.1
v -0.9 0.5 1.1
v -0.9 0.8 1.1
v -0.9 0.9 1.1
v -0.9 1.1 1.1
v -0.9 1.2 1.1
v -0.8 0.3 1.1
v -0.8 0.4 1.1
v -0.8 0.5 1.1
v -0.8 0.7 1.1
v -0.8 0.8 1.1
v -0.8 0.9 1.1
v -0.8 1 1.1
v -0.8 1.1 1.1
v -1.2 0 1
v -1.2 0.1 1
v -1.2 0.2 1
v -1.2 0.3 1
v -1.2 1.1 1
v -1.2 1.2 1
v -1.1 0 1
v -1.1 0.1 1
v -1.1 0.2 1
v -1.1 0.3 1
v -1.1 1.1 1
v -1.1 1.2 1
v -0.9 0 1
v -0.9 0.1 1
v -0.9 0.2 1
v -0.9 0.3 1
v -0.9 1.1 1
v -0.9 1.2 1
v -0.8 0 1
v -0.8 0.1 1
v -0.8 0.2 1
v -0.8 0.3 1
v -0.8 1.1 1
v -0.8 1.2 1
v -1.2 0 0.9
v -1.2 0.1 0.9
v -1.2 0.2 0.9
v -1.2 0.3 0.9
v -1.2 0.7 0.9
v -1.2 0.8 0.9
v -1.2 1.1 0.9
v -1.2 1.2 0.9
v -1.1 0 0.9
v -1.1 0.1 0.9
v -1.1 0.2 0.9
v -1.1 0.3 0.9
v -1.1 0.7 0.9
v -1.1 0.8 0.9
v -1.1 1.1 0.9
v -1.1 1.2 0.9
v -0.9 0 0.9
v -0.9 0.1 0.9
v -0.9 0.2 0.9
v -0.9 0.3 0.9
v -0.9 0.7 0.9
v -0.9 0.8 0.9
v -0.9 1.1 0.9
v -0.9 1.2 0.9
v -0.8 0 0.9
v -0.8 0.1 0.9
v -0.8 0.2 0.9
v -0.8 0.3 0.9
v -0.8 0.7 0.9
v -0.8 0.8 0.9
v -0.8 1.1 0.9
v -0.8 1.2 0.9
v -1.2 0.3 0.8
v -1.2 0.4 0.8
v -1.2 0.6 0.8
v -1.2 0.7 0.8
v -1.2 0.8 0.8
v -1.2 1.1 0.8
v -1.1 0.4 0.8
v -1.1 0.6 0.8
v -1.1 0.7 0.8
v -1.1 0.8 0.8
v -1.1 1.1 0.8
v -1.1 1.2 0.8
v -1 0.3 0.8
v -1 0.4 0.8
v -1 0.6 0.8
v -0.9 0.4 0.8
v -0.9 0.6 0.8
v -0.9 0.7 0.8
v -0.9 0.8 0.8
v -0.9 1.1 0.8
v -0.9 1.2 0.8
v -0.8 0.3 0.8
v -0.8 0.4 0.8
v -0.8 0.7 0.8
v -0.8 0.8 0.8
v -0.8 1.1 0.8
v -1.2 0 1
v -1.1 0 1
v -0.9 0 1
v -0.8 0 1
v -1.2 0 0.9
v -1.1 0 0.9
v -0.9 0 0.9
v -0.8 0 0.9
v -1.2 0.3 1.1
v -1.1 0.3 1.1
v -1 0.3 1.1
v -0.8 0.3 1.1
v -1.2 0.3 1
v -1.1 0.3 1
v -1 0.3 1
v -0.9 0.3 1
v -0.8 0.3 1
v -1.2 0.3 0.9
v -1.1 0.3 0.9
v -1 0.3 0.9
v -0.9 0.3 0.9
v -0.8 0.3 0.9
v -1.2 0.3 0.8
v -1 0.3 0.8
v -0.8 0.3 0.8
v -1.2 0.8 0.9
v -1.1 0.8 0.9
v -0.9 0.8 0.9
v -0.8 0.8 0.9
v -1.2 0.8 0.8
v -1.1 0.8 0.8
v -0.9 0.8 0.8
v -0.8 0.8 0.8
v -1.2 0.7 0.9
v -1.1 0.7 0.9
v -0.9 0.7 0.9
v -0.8 0.7 0.9
v -1.2 0.7 0.8
v -1.1 0.7 0.8
v -0.9 0.7 0.8
v -0.8 0.7 0.8
v -1.2 1.1 1.1
v -1.1 1.1 1.1
v -0.9 1.1 1.1
v -0.8 1.1 1.1
v -1.2 1.1 1
v -1.1 1.1 1
v -0.9 1.1 1
v -0.8 1.1 1
v -1.2 1.1 0.9
v -1.1 1.1 0.9
v -0.9 1.1 0.9
v -0.8 1.1 0.9
v -1.2 1.1 0.8
v -1.1 1.1 0.8
v -0.9 1.1 0.8
v -0.8 1.1 0.8
v -1.1 1.2 1.1
v -0.9 1.2 1.1
v -1.2 1.2 1
v -1.1 1.2 1
v -0.9 1.2 1
v -0.8 1.2 1
v -1.2 1.2 0.9
v -1.1 1.2 0.9
v -0.9 1.2 0.9
v -0.8 1.2 0.9
v -1.1 1.2 0.8
v -0.9 1.2 0.8

# faces
f 3/3/1 2/3/1 1/3/1
f 4/3/1 2/3/1 3/3/1
f 5/6/1 4/6/1 3/6/1
f 6/6/1 4/6/1 5/6/1
f 8/5/1 6/5/1 5/5/1
f 9/5/1 6/5/1 8/5/1
f 11/4/1 8/4/1 7/4/1
f 12/5/1 9/5/1 8/5/1
f 12/4/1 8/4/1 11/4/1
f 12/5/1 10/5/1 9/5/1
f 13/5/1 10/5/1 12/5/1
f 14/5/1 10/5/1 13/5/1
f 15/10/1 12/10/1 11/10/1
f 15/10/1 13/10/1 12/10/1
f 16/10/1 13/10/1 15/10/1
f 17/8/1 16/8/1 15/8/1
f 18/10/1 13/10/1 16/10/1
f 18/8/1 16/8/1 17/8/1
f 19/8/1 14/8/1 13/8/1
f 19/10/1 13/10/1 18/10/1
f 20/8/1 14/8/1 19/8/1
f 21/7/1 18/7/1 17/7/1
f 22/10/1 19/10/1 18/10/1
f 22/7/1 18/7/1 21/7/1
f 22/10/1 20/10/1 19/10/1
f 23/10/1 20/10/1 22/10/1
f 24/10/1 20/10/1 23/10/1
f 25/1/1 22/1/1 21/1/1
f 25/1/1 23/1/1 22/1/1
f 26/1/1 23/1/1 25/1/1
f 27/1/1 23/1/1 26/1/1
f 29/11/1 26/11/1 25/11/1
f 30/2/1 28/2/1 27/2/1
f 30/11/1 26/11/1 29/11/1
f 30/2/1 27/2/1 26/2/1
f 31/1/1 30/1/1 29/1/1
f 32/2/1 28/2/1 30/2/1
f 32/1/1 30/1/1 31/1/1
f 33/2/1 32/2/1 31/2/1
f 34/2/1 28/2/1 32/2/1
f 34/2/1 32/2/1 33/2/1
f 35/2/1 28/2/1 34/2/1
f 36/2/1 28/2/1 35/2/1
f 37/2/1 35/2/1 34/2/1
f 38/2/1 35/2/1 37/2/1
f 41/1/1 40/1/1 39/1/1
f 42/1/1 40/1/1 41/1/1
f 47/2/1 44/2/1 43/2/1
f 48/2/1 44/2/1 47/2/1
f 49/2/1 46/2/1 45/2/1
f 50/2/1 46/2/1 49/2/1
f 53/3/1 52/3/1 51/3/1
f 54/3/1 52/3/1 53/3/1
f 55/5/1 54/5/1 53/5/1
f 56/5/1 54/5/1 55/5/1
f 57/4/1 56/4/1 55/4/1
f 58/4/1 56/4/1 57/4/1
f 59/3/2 60/3/2 61/3/2
f 61/3/2 60/3/2 62/3/2
f 61/6/2 62/6/2 63/6/2
f 63/6/2 62/6/2 64/6/2
f 63/5/2 64/5/2 65/5/2
f 65/5/2 64/5/2 66/5/2
f 67/1/2 68/1/2 69/1/2
f 69/1/2 68/1/2 70/1/2
f 71/2/2 72/2/2 75/2/2
f 75/2/2 72/2/2 76/2/2
f 73/2/2 74/2/2 77/2/2
f 77/2/2 74/2/2 78/2/2
f 79/3/2 80/3/2 81/3/2
f 81/3/2 80/3/2 82/3/2
f 81/5/2 82/5/2 83/5/2
f 83/5/2 82/5/2 84/5/2
f 83/4/2 84/4/2 86/4/2
f 86/4/2 84/4/2 87/4/2
f 85/6/2 86/6/2 89/6/2
f 86/5/2 87/5/2 90/5/2
f 89/6/2 86/6/2 90/6/2
f 87/6/2 88/6/2 91/6/2
f 90/5/2 87/5/2 91/5/2
f 91/6/2 88/6/2 92/6/2
f 89/9/2 90/9/2 93/9/2
f 90/8/2 91/8/2 94/8/2
f 93/9/2 90/9/2 94/9/2
f 91/10/2 92/10/2 95/10/2
f 94/8/2 91/8/2 95/8/2
f 93/8/2 94/8/2 96/8/2
f 94/10/2 95/10/2 97/10/2
f 96/8/2 94/8/2 97/8/2
f 95/10/2 92/10/2 98/10/2
f 97/10/2 95/10/2 98/10/2
f 98/10/2 92/10/2 99/10/2
f 96/1/2 97/1/2 100/1/2
f 97/1/2 98/1/2 100/1/2
f 100/1/2 98/1/2 101/1/2
f 101/1/2 98/1/2 102/1/2
f 100/11/2 101/11/2 104/11/2
f 102/2/2 103/2/2 105/2/2
f 104/11/2 101/11/2 105/11/2
f 101/2/2 102/2/2 105/2/2
f 104/1/2 105/1/2 106/1/2
f 105/2/2 103/2/2 107/2/2
f 106/1/2 105/1/2 107/1/2
f 106/2/2 107/2/2 108/2/2
f 107/2/2 103/2/2 109/2/2
f 108/2/2 107/2/2 109/2/2
f 109/2/2 103/2/2 110/2/2
f 110/2/2 103/2/2 111/2/2
f 109/2/2 110/2/2 112/2/2
f 112/2/2 110/2/2 113/2/2
f 123/4/3 115/4/3 114/4/3
f 124/10/3 116/10/3 115/10/3
f 124/4/3 115/4/3 123/4/3
f 125/8/3 117/8/3 116/8/3
f 125/10/3 116/10/3 124/10/3
f 126/7/3 118/7/3 117/7/3
f 126/8/3 117/8/3 125/8/3
f 127/1/3 119/1/3 118/1/3
f 127/11/3 120/11/3 119/11/3
f 128/1/3 121/1/3 120/1/3
f 128/11/3 120/11/3 127/11/3
f 129/2/3 122/2/3 121/2/3
f 131/5/3 124/5/3 123/5/3
f 132/9/3 125/9/3 124/9/3
f 132/5/3 124/5/3 131/5/3
f 132/9/3 126/9/3 125/9/3
f 133/7/3 118/7/3 126/7/3
f 133/9/3 126/9/3 132/9/3
f 134/1/3 127/1/3 118/1/3
f 134/7/3 118/7/3 133/7/3
f 134/1/3 128/1/3 127/1/3
f 135/6/3 132/6/3 131/6/3
f 135/8/3 133/8/3 132/8/3
f 135/8/3 134/8/3 133/8/3
f 136/8/3 134/8/3 135/8/3
f 137/1/3 128/1/3 134/1/3
f 138/1/3 121/1/3 128/1/3
f 138/1/3 128/1/3 137/1/3
f 139/2/3 130/2/3 129/2/3
f 139/2/3 129/2/3 121/2/3
f 140/2/3 130/2/3 139/2/3
f 141/6/3 135/6/3 131/6/3
f 142/9/3 136/9/3 135/9/3
f 142/6/3 135/6/3 141/6/3
f 143/8/3 134/8/3 136/8/3
f 143/9/3 136/9/3 142/9/3
f 144/1/3 137/1/3 134/1/3
f 144/8/3 134/8/3 143/8/3
f 145/11/3 138/11/3 137/11/3
f 145/1/3 137/1/3 144/1/3
f 146/1/3 121/1/3 138/1/3
f 146/11/3 138/11/3 145/11/3
f 147/2/3 139/2/3 121/2/3
f 147/1/3 121/1/3 146/1/3
f 148/2/3 139/2/3 147/2/3
f 155/3/3 150/3/3 149/3/3
f 156/6/3 151/6/3 150/6/3
f 156/3/3 150/3/3 155/3/3
f 157/5/3 152/5/3 151/5/3
f 157/6/3 151/6/3 156/6/3
f 158/5/3 152/5/3 157/5/3
f 159/2/3 154/2/3 153/2/3
f 160/2/3 154/2/3 159/2/3
f 167/3/3 162/3/3 161/3/3
f 168/5/3 163/5/3 162/5/3
f 168/3/3 162/3/3 167/3/3
f 169/4/3 164/4/3 163/4/3
f 169/5/3 163/5/3 168/5/3
f 170/4/3 164/4/3 169/4/3
f 171/2/3 166/2/3 165/2/3
f 172/2/3 166/2/3 171/2/3
f 173/3/4 174/3/4 181/3/4
f 174/6/4 175/6/4 182/6/4
f 181/3/4 174/3/4 182/3/4
f 175/5/4 176/5/4 183/5/4
f 182/6/4 175/6/4 183/6/4
f 183/5/4 176/5/4 184/5/4
f 177/1/4 178/1/4 185/1/4
f 185/1/4 178/1/4 186/1/4
f 179/2/4 180/2/4 187/2/4
f 187/2/4 180/2/4 188/2/4
f 189/3/4 190/3/4 197/3/4
f 190/5/4 191/5/4 198/5/4
f 197/3/4 190/3/4 198/3/4
f 191/4/4 192/4/4 199/4/4
f 198/5/4 191/5/4 199/5/4
f 199/4/4 192/4/4 200/4/4
f 193/1/4 194/1/4 201/1/4
f 201/1/4 194/1/4 202/1/4
f 195/2/4 196/2/4 203/2/4
f 203/2/4 196/2/4 204/2/4
f 205/5/4 206/5/4 211/5/4
f 206/8/4 207/8/4 211/8/4
f 207/10/4 208/10/4 212/10/4
f 211/8/4 207/8/4 212/8/4
f 212/10/4 208/10/4 213/10/4
f 209/2/4 210/2/4 214/2/4
f 214/2/4 210/2/4 215/2/4
f 205/5/4 211/5/4 217/5/4
f 211/9/4 212/9/4 218/9/4
f 217/5/4 211/5/4 218/5/4
f 212/10/4 213/10/4 219/10/4
f 218/9/4 212/9/4 219/9/4
f 217/6/4 218/6/4 220/6/4
f 218/8/4 219/8/4 220/8/4
f 219/10/4 213/10/4 221/10/4
f 220/8/4 219/8/4 221/8/4
f 213/1/4 214/1/4 222/1/4
f 221/10/4 213/10/4 222/10/4
f 215/2/4 216/2/4 223/2/4
f 222/1/4 214/1/4 223/1/4
f 214/2/4 215/2/4 223/2/4
f 223/2/4 216/2/4 224/2/4
f 224/2/4 216/2/4 225/2/4
f 217/6/4 220/6/4 226/6/4
f 221/10/4 222/10/4 227/10/4
f 226/6/4 220/6/4 227/6/4
f 220/10/4 221/10/4 227/10/4
f 227/10/4 222/10/4 228/10/4
f 223/2/4 224/2/4 229/2/4
f 229/2/4 224/2/4 230/2/4
f 235/3/5 232/3/5 231/3/5
f 236/3/5 232/3/5 235/3/5
f 237/3/5 234/3/5 233/3/5
f 238/3/5 234/3/5 237/3/5
f 243/4/5 240/4/5 239/4/5
f 244/5/5 241/5/5 240/5/5
f 244/4/5 240/4/5 243/4/5
f 245/6/5 242/6/5 241/6/5
f 245/5/5 241/5/5 244/5/5
f 246/6/5 242/6/5 245/6/5
f 247/6/5 242/6/5 246/6/5
f 249/5/5 245/5/5 244/5/5
f 249/5/5 246/5/5 245/5/5
f 250/5/5 246/5/5 249/5/5
f 251/5/5 246/5/5 250/5/5
f 253/5/5 249/5/5 248/5/5
f 253/5/5 250/5/5 249/5/5
f 254/6/5 252/6/5 251/6/5
f 254/5/5 250/5/5 253/5/5
f 254/6/5 251/6/5 250/6/5
f 255/6/5 252/6/5 254/6/5
f 260/2/5 257/2/5 256/2/5
f 261/2/5 257/2/5 260/2/5
f 262/2/5 259/2/5 258/2/5
f 263/2/5 259/2/5 262/2/5
f 264/10/6 265/10/6 268/10/6
f 268/10/6 265/10/6 269/10/6
f 266/10/6 267/10/6 270/10/6
f 270/10/6 267/10/6 271/10/6
f 272/2/6 273/2/6 276/2/6
f 276/2/6 273/2/6 277/2/6
f 274/2/6 275/2/6 278/2/6
f 278/2/6 275/2/6 279/2/6
f 280/2/6 281/2/6 284/2/6
f 284/2/6 281/2/6 285/2/6
f 282/2/6 283/2/6 286/2/6
f 286/2/6 283/2/6 287/2/6
f 288/2/6 289/2/6 291/2/6
f 291/2/6 289/2/6 292/2/6
f 290/2/6 291/2/6 294/2/6
f 292/2/6 293/2/6 294/2/6
f 291/2/6 292/2/6 294/2/6
f 294/2/6 293/2/6 295/2/6
f 295/2/6 293/2/6 296/2/6
f 296/2/6 293/2/6 297/2/6
f 295/2/6 296/2/6 298/2/6
f 298/2/6 296/2/6 299/2/6
