# MagicaVoxel @ Ephtracy

# group
o 

# material
mtllib Guy2.mtl
usemtl palette

# normals
vn -1 0 0
vn 1 0 0
vn 0 0 1
vn 0 0 -1
vn 0 -1 0
vn 0 1 0

# texcoords
vt 0.0332031 0.5
vt 0.232422 0.5
vt 0.369141 0.5
vt 0.841797 0.5
vt 0.845703 0.5
vt 0.849609 0.5
vt 0.853516 0.5
vt 0.939453 0.5
vt 0.943359 0.5
vt 0.947266 0.5
vt 0.994141 0.5

# verts
v -1.2 0 1
v -1.2 0 0.9
v -1.2 0.1 1
v -1.2 0.1 0.9
v -1.2 0.2 1
v -1.2 0.2 0.9
v -1.2 0.3 1.1
v -1.2 0.3 1
v -1.2 0.3 0.9
v -1.2 0.3 0.8
v -1.2 0.4 1.1
v -1.2 0.4 1
v -1.2 0.4 0.9
v -1.2 0.4 0.8
v -1.2 0.5 1.1
v -1.2 0.5 1
v -1.2 0.6 1.1
v -1.2 0.6 1
v -1.2 0.6 0.9
v -1.2 0.6 0.8
v -1.2 0.7 1.1
v -1.2 0.7 1
v -1.2 0.7 0.9
v -1.2 0.7 0.8
v -1.2 0.8 1.1
v -1.2 0.8 1
v -1.2 0.8 0.9
v -1.2 0.8 0.8
v -1.2 0.9 1.1
v -1.2 0.9 1
v -1.2 1 1.1
v -1.2 1 1
v -1.2 1.1 1.1
v -1.2 1.1 1
v -1.2 1.1 0.9
v -1.2 1.1 0.8
v -1.2 1.2 1
v -1.2 1.2 0.9
v -1.1 0.7 0.9
v -1.1 0.7 0.8
v -1.1 0.8 0.9
v -1.1 0.8 0.8
v -1.1 1.1 1.1
v -1.1 1.1 1
v -1.1 1.1 0.9
v -1.1 1.1 0.8
v -1.1 1.2 1.1
v -1.1 1.2 1
v -1.1 1.2 0.9
v -1.1 1.2 0.8
v -0.9 0 1
v -0.9 0 0.9
v -0.9 0.1 1
v -0.9 0.1 0.9
v -0.9 0.2 1
v -0.9 0.2 0.9
v -0.9 0.3 1
v -0.9 0.3 0.9
v -1.1 0 1
v -1.1 0 0.9
v -1.1 0.1 1
v -1.1 0.1 0.9
v -1.1 0.2 1
v -1.1 0.2 0.9
v -1.1 0.3 1
v -1.1 0.3 0.9
v -0.9 0.7 0.9
v -0.9 0.7 0.8
v -0.9 0.8 0.9
v -0.9 0.8 0.8
v -0.9 1.1 1.1
v -0.9 1.1 1
v -0.9 1.1 0.9
v -0.9 1.1 0.8
v -0.9 1.2 1.1
v -0.9 1.2 1
v -0.9 1.2 0.9
v -0.9 1.2 0.8
v -0.8 0 1
v -0.8 0 0.9
v -0.8 0.1 1
v -0.8 0.1 0.9
v -0.8 0.2 1
v -0.8 0.2 0.9
v -0.8 0.3 1.1
v -0.8 0.3 1
v -0.8 0.3 0.9
v -0.8 0.3 0.8
v -0.8 0.4 1.1
v -0.8 0.4 1
v -0.8 0.4 0.9
v -0.8 0.4 0.8
v -0.8 0.5 1.1
v -0.8 0.5 1
v -0.8 0.5 0.9
v -0.8 0.7 1.1
v -0.8 0.7 1
v -0.8 0.7 0.9
v -0.8 0.7 0.8
v -0.8 0.8 1.1
v -0.8 0.8 1
v -0.8 0.8 0.9
v -0.8 0.8 0.8
v -0.8 0.9 1.1
v -0.8 0.9 1
v -0.8 1 1.1
v -0.8 1 1
v -0.8 1.1 1.1
v -0.8 1.1 1
v -0.8 1.1 0.9
v -0.8 1.1 0.8
v -0.8 1.2 1
v -0.8 1.2 0.9
v -1.2 0.3 1.1
v -1.2 0.4 1.1
v -1.2 0.5 1.1
v -1.2 0.6 1.1
v -1.2 0.7 1.1
v -1.2 0.8 1.1
v -1.2 0.9 1.1
v -1.2 1 1.1
v -1.2 1.1 1.1
v -1.1 0.3 1.1
v -1.1 0.4 1.1
v -1.1 0.5 1.1
v -1.1 0.6 1.1
v -1.1 0.8 1.1
v -1.1 0.9 1.1
v -1.1 1.1 1.1
v -1.1 1.2 1.1
v -1 0.3 1.1
v -1 0.4 1.1
v -1 0.6 1.1
v -1 0.7 1.1
v -0.9 0.4 1.1
v -0.9 0.5 1.1
v -0.9 0.8 1.1
v -0.9 0.9 1.1
v -0.9 1.1 1.1
v -0.9 1.2 1.1
v -0.8 0.3 1.1
v -0.8 0.4 1.1
v -0.8 0.5 1.1
v -0.8 0.7 1.1
v -0.8 0.8 1.1
v -0.8 0.9 1.1
v -0.8 1 1.1
v -0.8 1.1 1.1
v -1.2 0 1
v -1.2 0.1 1
v -1.2 0.2 1
v -1.2 0.3 1
v -1.2 1.1 1
v -1.2 1.2 1
v -1.1 0 1
v -1.1 0.1 1
v -1.1 0.2 1
v -1.1 0.3 1
v -1.1 1.1 1
v -1.1 1.2 1
v -0.9 0 1
v -0.9 0.1 1
v -0.9 0.2 1
v -0.9 0.3 1
v -0.9 1.1 1
v -0.9 1.2 1
v -0.8 0 1
v -0.8 0.1 1
v -0.8 0.2 1
v -0.8 0.3 1
v -0.8 1.1 1
v -0.8 1.2 1
v -1.2 0 0.9
v -1.2 0.1 0.9
v -1.2 0.2 0.9
v -1.2 0.3 0.9
v -1.2 0.7 0.9
v -1.2 0.8 0.9
v -1.2 1.1 0.9
v -1.2 1.2 0.9
v -1.1 0 0.9
v -1.1 0.1 0.9
v -1.1 0.2 0.9
v -1.1 0.3 0.9
v -1.1 0.7 0.9
v -1.1 0.8 0.9
v -1.1 1.1 0.9
v -1.1 1.2 0.9
v -0.9 0 0.9
v -0.9 0.1 0.9
v -0.9 0.2 0.9
v -0.9 0.3 0.9
v -0.9 0.7 0.9
v -0.9 0.8 0.9
v -0.9 1.1 0.9
v -0.9 1.2 0.9
v -0.8 0 0.9
v -0.8 0.1 0.9
v -0.8 0.2 0.9
v -0.8 0.3 0.9
v -0.8 0.7 0.9
v -0.8 0.8 0.9
v -0.8 1.1 0.9
v -0.8 1.2 0.9
v -1.2 0.3 0.8
v -1.2 0.4 0.8
v -1.2 0.6 0.8
v -1.2 0.7 0.8
v -1.2 0.8 0.8
v -1.2 1.1 0.8
v -1.1 0.4 0.8
v -1.1 0.6 0.8
v -1.1 0.7 0.8
v -1.1 0.8 0.8
v -1.1 1.1 0.8
v -1.1 1.2 0.8
v -1 0.3 0.8
v -1 0.4 0.8
v -1 0.6 0.8
v -0.9 0.4 0.8
v -0.9 0.6 0.8
v -0.9 0.7 0.8
v -0.9 0.8 0.8
v -0.9 1.1 0.8
v -0.9 1.2 0.8
v -0.8 0.3 0.8
v -0.8 0.4 0.8
v -0.8 0.7 0.8
v -0.8 0.8 0.8
v -0.8 1.1 0.8
v -1.2 0 1
v -1.1 0 1
v -0.9 0 1
v -0.8 0 1
v -1.2 0 0.9
v -1.1 0 0.9
v -0.9 0 0.9
v -0.8 0 0.9
v -1.2 0.3 1.1
v -1.1 0.3 1.1
v -1 0.3 1.1
v -0.8 0.3 1.1
v -1.2 0.3 1
v -1.1 0.3 1
v -1 0.3 1
v -0.9 0.3 1
v -0.8 0.3 1
v -1.2 0.3 0.9
v -1.1 0.3 0.9
v -1 0.3 0.9
v -0.9 0.3 0.9
v -0.8 0.3 0.9
v -1.2 0.3 0.8
v -1 0.3 0.8
v -0.8 0.3 0.8
v -1.2 0.8 0.9
v -1.1 0.8 0.9
v -0.9 0.8 0.9
v -0.8 0.8 0.9
v -1.2 0.8 0.8
v -1.1 0.8 0.8
v -0.9 0.8 0.8
v -0.8 0.8 0.8
v -1.2 0.7 0.9
v -1.1 0.7 0.9
v -0.9 0.7 0.9
v -0.8 0.7 0.9
v -1.2 0.7 0.8
v -1.1 0.7 0.8
v -0.9 0.7 0.8
v -0.8 0.7 0.8
v -1.2 1.1 1.1
v -1.1 1.1 1.1
v -0.9 1.1 1.1
v -0.8 1.1 1.1
v -1.2 1.1 1
v -1.1 1.1 1
v -0.9 1.1 1
v -0.8 1.1 1
v -1.2 1.1 0.9
v -1.1 1.1 0.9
v -0.9 1.1 0.9
v -0.8 1.1 0.9
v -1.2 1.1 0.8
v -1.1 1.1 0.8
v -0.9 1.1 0.8
v -0.8 1.1 0.8
v -1.1 1.2 1.1
v -0.9 1.2 1.1
v -1.2 1.2 1
v -1.1 1.2 1
v -0.9 1.2 1
v -0.8 1.2 1
v -1.2 1.2 0.9
v -1.1 1.2 0.9
v -0.9 1.2 0.9
v -0.8 1.2 0.9
v -1.1 1.2 0.8
v -0.9 1.2 0.8

# faces
f 3/3/1 2/3/1 1/3/1
f 4/3/1 2/3/1 3/3/1
f 5/10/1 4/10/1 3/10/1
f 6/10/1 4/10/1 5/10/1
f 8/9/1 6/9/1 5/9/1
f 9/9/1 6/9/1 8/9/1
f 11/8/1 8/8/1 7/8/1
f 12/9/1 9/9/1 8/9/1
f 12/8/1 8/8/1 11/8/1
f 12/9/1 10/9/1 9/9/1
f 13/9/1 10/9/1 12/9/1
f 14/9/1 10/9/1 13/9/1
f 15/7/1 12/7/1 11/7/1
f 15/7/1 13/7/1 12/7/1
f 16/7/1 13/7/1 15/7/1
f 17/5/1 16/5/1 15/5/1
f 18/7/1 13/7/1 16/7/1
f 18/5/1 16/5/1 17/5/1
f 19/5/1 14/5/1 13/5/1
f 19/7/1 13/7/1 18/7/1
f 20/5/1 14/5/1 19/5/1
f 21/4/1 18/4/1 17/4/1
f 22/7/1 19/7/1 18/7/1
f 22/4/1 18/4/1 21/4/1
f 22/7/1 20/7/1 19/7/1
f 23/7/1 20/7/1 22/7/1
f 24/7/1 20/7/1 23/7/1
f 25/1/1 22/1/1 21/1/1
f 25/1/1 23/1/1 22/1/1
f 26/1/1 23/1/1 25/1/1
f 27/1/1 23/1/1 26/1/1
f 29/11/1 26/11/1 25/11/1
f 30/2/1 28/2/1 27/2/1
f 30/11/1 26/11/1 29/11/1
f 30/2/1 27/2/1 26/2/1
f 31/1/1 30/1/1 29/1/1
f 32/2/1 28/2/1 30/2/1
f 32/1/1 30/1/1 31/1/1
f 33/2/1 32/2/1 31/2/1
f 34/2/1 28/2/1 32/2/1
f 34/2/1 32/2/1 33/2/1
f 35/2/1 28/2/1 34/2/1
f 36/2/1 28/2/1 35/2/1
f 37/2/1 35/2/1 34/2/1
f 38/2/1 35/2/1 37/2/1
f 41/1/1 40/1/1 39/1/1
f 42/1/1 40/1/1 41/1/1
f 47/2/1 44/2/1 43/2/1
f 48/2/1 44/2/1 47/2/1
f 49/2/1 46/2/1 45/2/1
f 50/2/1 46/2/1 49/2/1
f 53/3/1 52/3/1 51/3/1
f 54/3/1 52/3/1 53/3/1
f 55/9/1 54/9/1 53/9/1
f 56/9/1 54/9/1 55/9/1
f 57/8/1 56/8/1 55/8/1
f 58/8/1 56/8/1 57/8/1
f 59/3/2 60/3/2 61/3/2
f 61/3/2 60/3/2 62/3/2
f 61/10/2 62/10/2 63/10/2
f 63/10/2 62/10/2 64/10/2
f 63/9/2 64/9/2 65/9/2
f 65/9/2 64/9/2 66/9/2
f 67/1/2 68/1/2 69/1/2
f 69/1/2 68/1/2 70/1/2
f 71/2/2 72/2/2 75/2/2
f 75/2/2 72/2/2 76/2/2
f 73/2/2 74/2/2 77/2/2
f 77/2/2 74/2/2 78/2/2
f 79/3/2 80/3/2 81/3/2
f 81/3/2 80/3/2 82/3/2
f 81/9/2 82/9/2 83/9/2
f 83/9/2 82/9/2 84/9/2
f 83/8/2 84/8/2 86/8/2
f 86/8/2 84/8/2 87/8/2
f 85/10/2 86/10/2 89/10/2
f 86/9/2 87/9/2 90/9/2
f 89/10/2 86/10/2 90/10/2
f 87/10/2 88/10/2 91/10/2
f 90/9/2 87/9/2 91/9/2
f 91/10/2 88/10/2 92/10/2
f 89/6/2 90/6/2 93/6/2
f 90/5/2 91/5/2 94/5/2
f 93/6/2 90/6/2 94/6/2
f 91/7/2 92/7/2 95/7/2
f 94/5/2 91/5/2 95/5/2
f 93/5/2 94/5/2 96/5/2
f 94/7/2 95/7/2 97/7/2
f 96/5/2 94/5/2 97/5/2
f 95/7/2 92/7/2 98/7/2
f 97/7/2 95/7/2 98/7/2
f 98/7/2 92/7/2 99/7/2
f 96/1/2 97/1/2 100/1/2
f 97/1/2 98/1/2 100/1/2
f 100/1/2 98/1/2 101/1/2
f 101/1/2 98/1/2 102/1/2
f 100/11/2 101/11/2 104/11/2
f 102/2/2 103/2/2 105/2/2
f 104/11/2 101/11/2 105/11/2
f 101/2/2 102/2/2 105/2/2
f 104/1/2 105/1/2 106/1/2
f 105/2/2 103/2/2 107/2/2
f 106/1/2 105/1/2 107/1/2
f 106/2/2 107/2/2 108/2/2
f 107/2/2 103/2/2 109/2/2
f 108/2/2 107/2/2 109/2/2
f 109/2/2 103/2/2 110/2/2
f 110/2/2 103/2/2 111/2/2
f 109/2/2 110/2/2 112/2/2
f 112/2/2 110/2/2 113/2/2
f 123/8/3 115/8/3 114/8/3
f 124/7/3 116/7/3 115/7/3
f 124/8/3 115/8/3 123/8/3
f 125/5/3 117/5/3 116/5/3
f 125/7/3 116/7/3 124/7/3
f 126/4/3 118/4/3 117/4/3
f 126/5/3 117/5/3 125/5/3
f 127/1/3 119/1/3 118/1/3
f 127/11/3 120/11/3 119/11/3
f 128/1/3 121/1/3 120/1/3
f 128/11/3 120/11/3 127/11/3
f 129/2/3 122/2/3 121/2/3
f 131/9/3 124/9/3 123/9/3
f 132/6/3 125/6/3 124/6/3
f 132/9/3 124/9/3 131/9/3
f 132/6/3 126/6/3 125/6/3
f 133/4/3 118/4/3 126/4/3
f 133/6/3 126/6/3 132/6/3
f 134/1/3 127/1/3 118/1/3
f 134/4/3 118/4/3 133/4/3
f 134/1/3 128/1/3 127/1/3
f 135/10/3 132/10/3 131/10/3
f 135/5/3 133/5/3 132/5/3
f 135/5/3 134/5/3 133/5/3
f 136/5/3 134/5/3 135/5/3
f 137/1/3 128/1/3 134/1/3
f 138/1/3 121/1/3 128/1/3
f 138/1/3 128/1/3 137/1/3
f 139/2/3 130/2/3 129/2/3
f 139/2/3 129/2/3 121/2/3
f 140/2/3 130/2/3 139/2/3
f 141/10/3 135/10/3 131/10/3
f 142/6/3 136/6/3 135/6/3
f 142/10/3 135/10/3 141/10/3
f 143/5/3 134/5/3 136/5/3
f 143/6/3 136/6/3 142/6/3
f 144/1/3 137/1/3 134/1/3
f 144/5/3 134/5/3 143/5/3
f 145/11/3 138/11/3 137/11/3
f 145/1/3 137/1/3 144/1/3
f 146/1/3 121/1/3 138/1/3
f 146/11/3 138/11/3 145/11/3
f 147/2/3 139/2/3 121/2/3
f 147/1/3 121/1/3 146/1/3
f 148/2/3 139/2/3 147/2/3
f 155/3/3 150/3/3 149/3/3
f 156/10/3 151/10/3 150/10/3
f 156/3/3 150/3/3 155/3/3
f 157/9/3 152/9/3 151/9/3
f 157/10/3 151/10/3 156/10/3
f 158/9/3 152/9/3 157/9/3
f 159/2/3 154/2/3 153/2/3
f 160/2/3 154/2/3 159/2/3
f 167/3/3 162/3/3 161/3/3
f 168/9/3 163/9/3 162/9/3
f 168/3/3 162/3/3 167/3/3
f 169/8/3 164/8/3 163/8/3
f 169/9/3 163/9/3 168/9/3
f 170/8/3 164/8/3 169/8/3
f 171/2/3 166/2/3 165/2/3
f 172/2/3 166/2/3 171/2/3
f 173/3/4 174/3/4 181/3/4
f 174/10/4 175/10/4 182/10/4
f 181/3/4 174/3/4 182/3/4
f 175/9/4 176/9/4 183/9/4
f 182/10/4 175/10/4 183/10/4
f 183/9/4 176/9/4 184/9/4
f 177/1/4 178/1/4 185/1/4
f 185/1/4 178/1/4 186/1/4
f 179/2/4 180/2/4 187/2/4
f 187/2/4 180/2/4 188/2/4
f 189/3/4 190/3/4 197/3/4
f 190/9/4 191/9/4 198/9/4
f 197/3/4 190/3/4 198/3/4
f 191/8/4 192/8/4 199/8/4
f 198/9/4 191/9/4 199/9/4
f 199/8/4 192/8/4 200/8/4
f 193/1/4 194/1/4 201/1/4
f 201/1/4 194/1/4 202/1/4
f 195/2/4 196/2/4 203/2/4
f 203/2/4 196/2/4 204/2/4
f 205/9/4 206/9/4 211/9/4
f 206/5/4 207/5/4 211/5/4
f 207/7/4 208/7/4 212/7/4
f 211/5/4 207/5/4 212/5/4
f 212/7/4 208/7/4 213/7/4
f 209/2/4 210/2/4 214/2/4
f 214/2/4 210/2/4 215/2/4
f 205/9/4 211/9/4 217/9/4
f 211/6/4 212/6/4 218/6/4
f 217/9/4 211/9/4 218/9/4
f 212/7/4 213/7/4 219/7/4
f 218/6/4 212/6/4 219/6/4
f 217/10/4 218/10/4 220/10/4
f 218/5/4 219/5/4 220/5/4
f 219/7/4 213/7/4 221/7/4
f 220/5/4 219/5/4 221/5/4
f 213/1/4 214/1/4 222/1/4
f 221/7/4 213/7/4 222/7/4
f 215/2/4 216/2/4 223/2/4
f 222/1/4 214/1/4 223/1/4
f 214/2/4 215/2/4 223/2/4
f 223/2/4 216/2/4 224/2/4
f 224/2/4 216/2/4 225/2/4
f 217/10/4 220/10/4 226/10/4
f 221/7/4 222/7/4 227/7/4
f 226/10/4 220/10/4 227/10/4
f 220/7/4 221/7/4 227/7/4
f 227/7/4 222/7/4 228/7/4
f 223/2/4 224/2/4 229/2/4
f 229/2/4 224/2/4 230/2/4
f 235/3/5 232/3/5 231/3/5
f 236/3/5 232/3/5 235/3/5
f 237/3/5 234/3/5 233/3/5
f 238/3/5 234/3/5 237/3/5
f 243/8/5 240/8/5 239/8/5
f 244/9/5 241/9/5 240/9/5
f 244/8/5 240/8/5 243/8/5
f 245/10/5 242/10/5 241/10/5
f 245/9/5 241/9/5 244/9/5
f 246/10/5 242/10/5 245/10/5
f 247/10/5 242/10/5 246/10/5
f 249/9/5 245/9/5 244/9/5
f 249/9/5 246/9/5 245/9/5
f 250/9/5 246/9/5 249/9/5
f 251/9/5 246/9/5 250/9/5
f 253/9/5 249/9/5 248/9/5
f 253/9/5 250/9/5 249/9/5
f 254/10/5 252/10/5 251/10/5
f 254/9/5 250/9/5 253/9/5
f 254/10/5 251/10/5 250/10/5
f 255/10/5 252/10/5 254/10/5
f 260/2/5 257/2/5 256/2/5
f 261/2/5 257/2/5 260/2/5
f 262/2/5 259/2/5 258/2/5
f 263/2/5 259/2/5 262/2/5
f 264/7/6 265/7/6 268/7/6
f 268/7/6 265/7/6 269/7/6
f 266/7/6 267/7/6 270/7/6
f 270/7/6 267/7/6 271/7/6
f 272/2/6 273/2/6 276/2/6
f 276/2/6 273/2/6 277/2/6
f 274/2/6 275/2/6 278/2/6
f 278/2/6 275/2/6 279/2/6
f 280/2/6 281/2/6 284/2/6
f 284/2/6 281/2/6 285/2/6
f 282/2/6 283/2/6 286/2/6
f 286/2/6 283/2/6 287/2/6
f 288/2/6 289/2/6 291/2/6
f 291/2/6 289/2/6 292/2/6
f 290/2/6 291/2/6 294/2/6
f 292/2/6 293/2/6 294/2/6
f 291/2/6 292/2/6 294/2/6
f 294/2/6 293/2/6 295/2/6
f 295/2/6 293/2/6 296/2/6
f 296/2/6 293/2/6 297/2/6
f 295/2/6 296/2/6 298/2/6
f 298/2/6 296/2/6 299/2/6
